<svg width="26" height="26" viewBox="0 0 26 26" fill="none" xmlns="http://www.w3.org/2000/svg">
<path d="M21.9357 22.1068C21.8889 19.111 20.9556 16.387 19.2963 14.4147C17.6465 12.4545 15.4107 11.375 13 11.375C10.5894 11.375 8.35356 12.4545 6.70383 14.4147C5.04602 16.3849 4.11333 19.1051 4.06458 22.0972C5.002 22.5667 8.88118 24.375 13 24.375C17.454 24.375 21.0664 22.5773 21.9357 22.1068V22.1068Z" fill="#FF0101"/>
<path d="M13 10.5625C15.468 10.5625 17.4688 8.56177 17.4688 6.09375C17.4688 3.62573 15.468 1.625 13 1.625C10.532 1.625 8.53125 3.62573 8.53125 6.09375C8.53125 8.56177 10.532 10.5625 13 10.5625Z" fill="#FF0101"/>
</svg>
