<svg width="36" height="36" viewBox="0 0 36 36" fill="none" xmlns="http://www.w3.org/2000/svg">
<path d="M18.0842 1C14.7634 1 11.5173 1.98472 8.75617 3.82963C5.99507 5.67453 3.84306 8.29677 2.57226 11.3647C1.30146 14.4327 0.968966 17.8086 1.61681 21.0656C2.26466 24.3225 3.86375 27.3142 6.21187 29.6623C8.56 32.0104 11.5517 33.6095 14.8086 34.2574C18.0656 34.9052 21.4415 34.5727 24.5095 33.3019C27.5774 32.0311 30.1997 29.8791 32.0446 27.118C33.8895 24.3569 34.8742 21.1107 34.8742 17.79C34.8742 13.337 33.1053 9.06641 29.9565 5.91768C26.8078 2.76894 22.5372 1 18.0842 1V1ZM21.7442 10.91H28.0282V12.786H21.7442V10.91ZM18.5682 20.748C18.5682 25.397 13.7302 25.248 13.7302 25.248H5.8042V10.013H13.7302C16.1392 10.013 18.0402 11.343 18.0402 14.068C18.1122 14.7599 17.9087 15.4523 17.4736 15.9952C17.0386 16.538 16.4072 16.8875 15.7162 16.968C18.7792 16.967 18.5682 20.748 18.5682 20.748V20.748ZM25.1102 23.148C27.6422 23.148 27.5522 21.509 27.5522 21.509H30.2332C30.2332 25.858 25.0212 25.56 25.0212 25.56C24.238 25.6285 23.4493 25.5251 22.7102 25.2571C21.9711 24.9891 21.2994 24.5629 20.7421 24.0084C20.1848 23.4538 19.7553 22.7843 19.4836 22.0465C19.2119 21.3087 19.1046 20.5205 19.1692 19.737C19.1692 19.737 19.1692 13.885 25.0212 13.885C31.1862 13.885 30.3212 20.496 30.3212 20.496H22.4302C22.4034 20.8536 22.4546 21.2128 22.5802 21.5487C22.7058 21.8846 22.9028 22.1892 23.1576 22.4416C23.4125 22.6939 23.719 22.8879 24.0561 23.0102C24.3932 23.1325 24.7529 23.1802 25.1102 23.15V23.148Z" stroke="white" stroke-width="2"/>
</svg>
