<svg width="254" height="254" viewBox="0 0 254 254" fill="none" xmlns="http://www.w3.org/2000/svg">
<g opacity="0.35">
<path opacity="0.35" d="M16.988 63.973L64.337 16.624C55.9603 21.4177 48.1544 27.1459 41.069 33.699L34.064 40.704C27.5034 47.7839 21.7742 55.591 16.988 63.973Z" fill="#CECECE"/>
<path opacity="0.35" d="M2.85895 101.611L101.973 2.49597C99.236 3.03697 96.531 3.69597 93.8559 4.41997L4.77995 93.496C4.02995 96.171 3.39995 98.877 2.85895 101.611Z" fill="#CECECE"/>
<path opacity="0.35" d="M0.332947 126.8V127.612L127.948 0H127.133C125.301 0 123.466 0.0589951 121.633 0.119995L0.45295 121.3C0.39195 123.136 0.332947 124.94 0.332947 126.8Z" fill="#CECECE"/>
<path opacity="0.35" d="M2.31696 149.141L149.533 1.924C147.76 1.624 145.956 1.32399 144.183 1.08099L1.50696 143.759C1.71696 145.592 1.98596 147.365 2.31696 149.141Z" fill="#CECECE"/>
<path opacity="0.35" d="M7.12797 167.838L168.202 6.76398C166.639 6.22298 165.076 5.74198 163.513 5.26398L5.65497 163.118C6.10597 164.707 6.58497 166.275 7.12797 167.838Z" fill="#CECECE"/>
<path opacity="0.35" d="M14.1309 184.349L184.736 13.739C183.352 13.047 181.971 12.355 180.557 11.725L12.0859 180.165C12.7499 181.577 13.4109 182.961 14.1309 184.349Z" fill="#CECECE"/>
<path opacity="0.35" d="M22.909 199.045L199.409 22.545C198.177 21.705 196.944 20.862 195.709 20.052L20.444 195.317C21.256 196.58 22.069 197.812 22.909 199.045Z" fill="#CECECE"/>
<path opacity="0.35" d="M33.3409 212.123L212.481 32.98C211.4 31.988 210.288 31.025 209.176 30.092L30.4249 208.848C31.3879 209.957 32.3489 211.039 33.3409 212.123Z" fill="#CECECE"/>
<path opacity="0.35" d="M45.3059 223.665L224.029 44.942C223.096 43.83 222.129 42.718 221.141 41.637L41.9979 220.78C43.0819 221.771 44.1939 222.732 45.3059 223.665Z" fill="#CECECE"/>
<path opacity="0.35" d="M58.8349 233.645L234.035 58.445C233.223 57.182 232.411 55.945 231.535 54.745L55.1069 231.178C56.3389 232.023 57.5719 232.864 58.8349 233.645Z" fill="#CECECE"/>
<path opacity="0.35" d="M74.0169 241.973L242.337 73.653C241.676 72.241 241.015 70.853 240.323 69.474L69.838 239.96C71.222 240.651 72.6029 241.312 74.0169 241.973Z" fill="#CECECE"/>
<path opacity="0.35" d="M91.0919 248.407L248.799 90.728C248.32 89.134 247.838 87.571 247.326 86.039L86.403 246.96C87.935 247.442 89.4979 247.924 91.0919 248.407Z" fill="#CECECE"/>
<path opacity="0.35" d="M110.453 252.524L252.888 110.089C252.647 108.289 252.376 106.512 252.076 104.708L105.1 251.684C106.873 252.014 108.649 252.283 110.453 252.524Z" fill="#CECECE"/>
<path opacity="0.35" d="M127.167 253.637C129.122 253.637 131.075 253.578 132.999 253.488L253.849 132.635C253.941 130.713 254 128.758 254 126.803V126.323L126.716 253.609C126.836 253.609 127.016 253.637 127.167 253.637Z" fill="#CECECE"/>
</g>
</svg>
