<svg width="55" height="55" viewBox="0 0 55 55" fill="none" xmlns="http://www.w3.org/2000/svg">
<path d="M1 20L1 35C1 45.4934 9.50659 54 20 54H35C45.4934 54 54 45.4934 54 35V20C54 9.50659 45.4934 1 35 1H20C9.50659 1 1 9.50659 1 20Z" stroke="#FF0101" stroke-width="2"/>
<g clip-path="url(#clip0_174_10096)">
<path d="M41.25 20.625H31.625V17.875H41.25V20.625ZM43.6233 34.375C43.0155 36.1584 40.8334 38.5 36.6094 38.5C32.3826 38.5 28.9589 36.1226 28.9589 30.6969C28.9589 25.3206 32.1558 22.5569 36.4746 22.5569C40.7124 22.5569 43.3001 25.0071 43.8653 28.6426C43.9725 29.3384 44.0151 30.2761 43.9959 31.5851H32.9588C33.1375 36.0002 37.7479 36.1391 39.2673 34.375H43.6233ZM33.055 28.875H39.8819C39.7375 26.7479 38.3199 25.8239 36.476 25.8239C34.4603 25.8239 33.3451 26.8799 33.055 28.875ZM19.8908 38.4835H11V17.9039H20.5604C28.0899 18.0152 28.2329 25.3894 24.3004 27.3996C29.0593 29.1321 29.2188 38.4835 19.8908 38.4835V38.4835ZM15.125 26.125H20.053C23.5015 26.125 24.0488 22 19.624 22H15.125V26.125V26.125ZM19.7876 30.25H15.125V34.397H19.7189C23.9195 34.397 23.6624 30.25 19.7876 30.25V30.25Z" fill="#FF0101"/>
</g>
<defs>
<clipPath id="clip0_174_10096">
<rect width="33" height="33" fill="white" transform="translate(11 11)"/>
</clipPath>
</defs>
</svg>
