<svg width="55" height="55" viewBox="0 0 55 55" fill="none" xmlns="http://www.w3.org/2000/svg">
<rect x="1" y="54" width="53" height="53" rx="19" transform="rotate(-90 1 54)" stroke="#FF0101" stroke-width="2"/>
<g clip-path="url(#clip0_61:223)">
<path d="M46.3978 11.8741C45.9214 11.2915 45.2079 10.9707 44.3884 10.9707C43.943 10.9707 43.4711 11.0644 42.9861 11.2498L9.97333 23.8518C8.22137 24.5204 7.98542 25.5237 8.0006 26.0623C8.01577 26.6008 8.30826 27.5893 10.0953 28.1579C10.106 28.1611 10.1167 28.1644 10.1275 28.1674L16.9752 30.127L20.6785 40.7167C21.1834 42.1604 22.3167 43.0572 23.6367 43.0572C24.4689 43.0572 25.2874 42.7085 26.0039 42.0491L30.2395 38.1492L36.383 43.0959C36.3835 43.0965 36.3844 43.0968 36.385 43.0974L36.4434 43.1444C36.4487 43.1486 36.4544 43.153 36.4597 43.1572C37.1426 43.6868 37.8879 43.9665 38.616 43.9668H38.6163C40.0389 43.9668 41.1717 42.9138 41.5016 41.2844L46.9107 14.5755C47.1279 13.5034 46.9458 12.5441 46.3978 11.8741V11.8741ZM19.266 29.7548L32.4774 23.0056L24.2511 31.7466C24.1163 31.8897 24.0208 32.065 23.9738 32.2557L22.3876 38.6809L19.266 29.7548ZM24.4558 40.368C24.4011 40.4183 24.346 40.4632 24.291 40.5046L25.7626 34.5441L28.4397 36.6998L24.4558 40.368ZM44.6711 14.1217L39.262 40.831C39.2099 41.0866 39.0436 41.6814 38.616 41.6814C38.4048 41.6814 38.1394 41.5662 37.8677 41.357L30.9063 35.7519C30.9054 35.751 30.9042 35.7501 30.903 35.7495L26.7609 32.414L38.6571 19.7733C39.038 19.3687 39.0725 18.7489 38.7389 18.3043C38.4051 17.8598 37.8002 17.7199 37.3053 17.9729L17.7393 27.9686L10.7984 25.9828L43.8011 13.3847C44.0799 13.2782 44.2745 13.2559 44.3884 13.2559C44.4584 13.2559 44.5827 13.2642 44.6289 13.321C44.6896 13.3951 44.7669 13.6477 44.6711 14.1217V14.1217Z" fill="#FF0101"/>
</g>
<defs>
<clipPath id="clip0_61:223">
<rect width="39" height="39" fill="white" transform="translate(8 8)"/>
</clipPath>
</defs>
</svg>
