<svg width="55" height="55" viewBox="0 0 55 55" fill="none" xmlns="http://www.w3.org/2000/svg">
<path d="M1 20L1 35C1 45.4934 9.50659 54 20 54H35C45.4934 54 54 45.4934 54 35V20C54 9.50659 45.4934 1 35 1H20C9.50659 1 1 9.50659 1 20Z" stroke="#FF0101" stroke-width="2"/>
<path d="M33.5416 14.2206L21.4583 14.2085C20.1291 14.2085 19.0537 15.296 19.0537 16.6252V38.3752C19.0537 39.7043 20.1291 40.7918 21.4583 40.7918H33.5416C34.8708 40.7918 35.9583 39.7043 35.9583 38.3752V16.6252C35.9583 15.296 34.8708 14.2206 33.5416 14.2206ZM33.5416 35.9585H21.4583V19.0418H33.5416V35.9585Z" fill="#FF0101"/>
<ellipse cx="27.5003" cy="38.3748" rx="1.20833" ry="1.20833" fill="white"/>
</svg>
