<svg xmlns="http://www.w3.org/2000/svg" width="376.322" height="280.736" viewBox="0 0 376.322 280.736">
  <g id="Delivery-rafiki" transform="translate(-0.12 -54.56)">
    <g id="freepik--Shadow--inject-65" transform="translate(42.26 318.256)">
      <g id="freepik--Shape--inject-65">
        <ellipse id="freepik--path--inject-76--inject-65" cx="145.93" cy="8.52" rx="145.93" ry="8.52" fill="#f5f5f5"/>
      </g>
    </g>
    <g id="freepik--background-complete--inject-65" transform="translate(0.12 54.56)">
      <rect id="Rectangle_323" data-name="Rectangle 323" width="376.322" height="0.188" transform="translate(0 246.415)" fill="#e0e0e0"/>
      <rect id="Rectangle_324" data-name="Rectangle 324" width="43.48" height="0.188" transform="translate(38.874 255.44)" fill="#e0e0e0"/>
      <rect id="Rectangle_325" data-name="Rectangle 325" width="19.81" height="0.188" transform="translate(157.558 251.353)" fill="#e0e0e0"/>
      <rect id="Rectangle_326" data-name="Rectangle 326" width="38.596" height="0.188" transform="translate(184.608 251.255)" fill="#e0e0e0"/>
      <rect id="Rectangle_327" data-name="Rectangle 327" width="9.401" height="0.188" transform="translate(287.269 253.513)" fill="#e0e0e0"/>
      <rect id="Rectangle_328" data-name="Rectangle 328" width="37.497" height="0.188" transform="translate(217.311 253.513)" fill="#e0e0e0"/>
      <rect id="Rectangle_329" data-name="Rectangle 329" width="7.451" height="0.188" transform="translate(89.64 255.44)" fill="#e0e0e0"/>
      <rect id="Rectangle_330" data-name="Rectangle 330" width="32.552" height="0.188" transform="translate(302.811 253.513)" fill="#e0e0e0"/>
      <path id="Path_530" data-name="Path 530" d="M187.941,54.56H42.59a4.305,4.305,0,0,0-4.1,3.011,4.042,4.042,0,0,0-.188,1.212V263.11a4.3,4.3,0,0,0,4.29,4.3h145.35a4.3,4.3,0,0,0,4.3-4.3V58.858A4.3,4.3,0,0,0,187.941,54.56Zm4.109,208.55a4.117,4.117,0,0,1-4.109,4.109H42.59a4.109,4.109,0,0,1-4.1-4.109V58.82a4.109,4.109,0,0,1,4.1-4.109h145.35a4.124,4.124,0,0,1,4.109,4.109Z" transform="translate(-9.564 -54.56)" fill="#e0e0e0"/>
      <path id="Path_531" data-name="Path 531" d="M404.253,54.56H258.918a4.305,4.305,0,0,0-4.3,4.26V263.11a4.3,4.3,0,0,0,4.3,4.3H404.253a4.3,4.3,0,0,0,4.283-4.3V58.82a4.3,4.3,0,0,0-4.283-4.26Zm4.109,208.55a4.117,4.117,0,0,1-4.109,4.109H258.918a4.109,4.109,0,0,1-4.109-4.109V58.82a4.117,4.117,0,0,1,4.109-4.109H404.253a4.124,4.124,0,0,1,4.109,4.109Z" transform="translate(-63.072 -54.56)" fill="#e0e0e0"/>
      <path id="Path_532" data-name="Path 532" d="M371.15,93.451h79.667s-4.809-8.716-14.729-6.021c0,0,1.2-14.564-6.616-16.9s-12.042,6.676-12.042,6.676S412.019,60.373,401.8,62.48s-14.428,19.569-14.428,19.569S372.354,76.615,371.15,93.451Z" transform="translate(-91.897 -56.474)" fill="#f5f5f5"/>
      <path id="Path_533" data-name="Path 533" d="M218.11,131.319h79.7s-4.817-8.723-14.737-6.021c0,0,1.2-14.564-6.616-16.9s-12.042,6.683-12.042,6.683S259,98.241,248.78,100.34s-14.436,19.569-14.436,19.569S219.314,114.483,218.11,131.319Z" transform="translate(-54.041 -65.839)" fill="#f5f5f5"/>
      <rect id="Rectangle_331" data-name="Rectangle 331" width="133.617" height="234.644" transform="translate(29.007 11.771)" fill="#f5f5f5"/>
      <rect id="Rectangle_332" data-name="Rectangle 332" width="84.702" height="159.899" transform="translate(55.658 86.704)" fill="#fafafa"/>
      <rect id="Rectangle_333" data-name="Rectangle 333" width="73.247" height="154.819" transform="translate(61.762 91.785)" fill="#e6e6e6"/>
      <path id="Path_534" data-name="Path 534" d="M177.106,68.052H38.62V57.62a4.7,4.7,0,0,1,4.516-3.011H172.372l.06.151,3.394,9.687Z" transform="translate(-9.643 -54.572)" fill="#ebebeb"/>
      <ellipse id="Ellipse_41" data-name="Ellipse 41" cx="6.932" cy="6.3" rx="6.932" ry="6.3" transform="translate(28.758 7.18)" fill="#ebebeb"/>
      <ellipse id="Ellipse_42" data-name="Ellipse 42" cx="6.932" cy="6.3" rx="6.932" ry="6.3" transform="translate(42.63 7.18)" fill="#ebebeb"/>
      <ellipse id="Ellipse_43" data-name="Ellipse 43" cx="6.932" cy="6.3" rx="6.932" ry="6.3" transform="translate(56.501 7.18)" fill="#ebebeb"/>
      <ellipse id="Ellipse_44" data-name="Ellipse 44" cx="6.932" cy="6.3" rx="6.932" ry="6.3" transform="translate(70.372 7.18)" fill="#ebebeb"/>
      <ellipse id="Ellipse_45" data-name="Ellipse 45" cx="6.932" cy="6.3" rx="6.932" ry="6.3" transform="translate(84.243 7.18)" fill="#ebebeb"/>
      <ellipse id="Ellipse_46" data-name="Ellipse 46" cx="6.932" cy="6.3" rx="6.932" ry="6.3" transform="translate(98.115 7.18)" fill="#ebebeb"/>
      <ellipse id="Ellipse_47" data-name="Ellipse 47" cx="6.932" cy="6.3" rx="6.932" ry="6.3" transform="translate(111.978 7.18)" fill="#ebebeb"/>
      <ellipse id="Ellipse_48" data-name="Ellipse 48" cx="6.932" cy="6.3" rx="6.932" ry="6.3" transform="translate(125.849 7.18)" fill="#ebebeb"/>
      <ellipse id="Ellipse_49" data-name="Ellipse 49" cx="6.932" cy="6.3" rx="6.932" ry="6.3" transform="translate(139.721 7.18)" fill="#ebebeb"/>
      <path id="Path_535" data-name="Path 535" d="M218.059,70.4c0,3.477-3.108,6.3-6.939,6.3s-6.939-2.822-6.939-6.3,3.108-6.3,6.939-6.3a7.143,7.143,0,0,1,5.66,2.657Z" transform="translate(-50.596 -56.92)" fill="#ebebeb"/>
      <rect id="Rectangle_334" data-name="Rectangle 334" width="133.617" height="2.198" transform="translate(29.007 32.138)" fill="#fafafa"/>
      <rect id="Rectangle_335" data-name="Rectangle 335" width="103.639" height="4.659" transform="translate(162.631 196.681)" fill="#e0e0e0"/>
      <path id="Path_536" data-name="Path 536" d="M240.017,355.886H224.37V283.263l7.82-6.683,7.827,6.683Z" transform="translate(-55.59 -109.478)" fill="#e6e6e6"/>
      <path id="Path_537" data-name="Path 537" d="M269.8,355.886H254.15V283.263l7.827-6.683,7.82,6.683Z" transform="translate(-62.956 -109.478)" fill="#e6e6e6"/>
      <path id="Path_538" data-name="Path 538" d="M299.587,355.886H283.94V283.263l7.82-6.683,7.828,6.683Z" transform="translate(-70.325 -109.478)" fill="#e6e6e6"/>
      <path id="Path_539" data-name="Path 539" d="M329.367,355.886H313.72V283.263l7.828-6.683,7.82,6.683Z" transform="translate(-77.691 -109.478)" fill="#e6e6e6"/>
      <path id="Path_540" data-name="Path 540" d="M359.15,355.886H343.51V283.263l7.82-6.683,7.82,6.683Z" transform="translate(-85.06 -109.478)" fill="#e6e6e6"/>
    </g>
    <g id="freepik--character-1--inject-65" transform="translate(78.551 78.223)">
      <path id="Path_541" data-name="Path 541" d="M138.3,88.695s-1.453-3.552-10.4-2.5-9.875,12.9-14.345,21.322-9.22,12.509-9.22,12.509-.655,5.133,9.084,8.031,28.826-1.942,28.826-1.942,2.469-22.421-1.2-29.263S138.3,88.695,138.3,88.695Z" transform="translate(-104.328 -86)" fill="#263238"/>
      <path id="Path_542" data-name="Path 542" d="M167.6,339.4l-12.125.753s-5.141-46.724-10.8-80.744a.932.932,0,0,0-.053-.369c-2.318-13.886-4.719-25.59-6.887-31.077,0,0-2.785,43.555-3.613,62.891s-4.689,53.167-4.689,53.167l-11.207,1.663s-1.852-67.347-.753-80.066-3.906-59.835,4.719-71.5h31.2s12.08,66.187,12.953,84.537S167.6,339.4,167.6,339.4Z" transform="translate(-107.466 -112.745)" fill="#263238"/>
      <path id="Path_543" data-name="Path 543" d="M127.695,393.49l-.181,3.613-.421,8.362-6.277.933-.143-9.024-.053-3.47Z" transform="translate(-108.358 -162.06)" fill="#ff8b7b"/>
      <path id="Path_544" data-name="Path 544" d="M178.122,400.923,171.1,402.88s-.166-4.222-.331-8.279c-.105-2.612-.211-5.156-.278-6.458a5.016,5.016,0,0,0-.06-.881L178,386.51v2.378l.053,5.374Z" transform="translate(-120.679 -160.334)" fill="#ff8b7b"/>
      <path id="Path_545" data-name="Path 545" d="M132.58,405.478s1.167-4.674,3.011-4.441S132.58,405.478,132.58,405.478Z" transform="translate(-111.316 -163.925)" fill="none" stroke="#4d4b4b" stroke-miterlimit="10" stroke-width="1"/>
      <path id="Path_546" data-name="Path 546" d="M133.28,406.3s4.388-3.093,5.2-1.505S133.28,406.3,133.28,406.3Z" transform="translate(-111.489 -164.743)" fill="none" stroke="#4d4b4b" stroke-miterlimit="10" stroke-width="1"/>
      <path id="Path_547" data-name="Path 547" d="M184.23,405.945s.978-4.945,2.085-4.945S184.23,405.945,184.23,405.945Z" transform="translate(-124.092 -163.918)" fill="none" stroke="#4d4b4b" stroke-miterlimit="10" stroke-width="1"/>
      <path id="Path_548" data-name="Path 548" d="M183.92,408.253s2.574-5.065,3.921-3.974S183.92,408.253,183.92,408.253Z" transform="translate(-124.015 -164.691)" fill="none" stroke="#4d4b4b" stroke-miterlimit="10" stroke-width="1"/>
      <path id="Path_549" data-name="Path 549" d="M134.445,412.253s-13.382.346-14.353.226-2.047-.173-2.122-1.227c0-.512.459-3.62.534-4.7s-.2-1.648,1.167-1.995,7.978-1.114,8.776-.294,3.522,3.944,5.539,4.305,3.711.218,3.854,1.362S138.028,412.17,134.445,412.253Z" transform="translate(-107.702 -164.634)" fill="#263238"/>
      <path id="Path_550" data-name="Path 550" d="M185.634,412.253s-13.374.346-14.353.226-1.942-.414-2.1-.9.444-3.944.512-5.028-.2-1.648,1.167-1.995,7.978-1.114,8.776-.294,3.522,3.944,5.547,4.305,3.7.218,3.846,1.362S189.217,412.17,185.634,412.253Z" transform="translate(-120.363 -164.634)" fill="#263238"/>
      <path id="Path_551" data-name="Path 551" d="M151.437,267.564c-2.318-13.886-4.719-25.59-6.887-31.077l1.438-7.888S149.713,256.749,151.437,267.564Z" transform="translate(-114.277 -121.273)" opacity="0.3"/>
      <path id="Path_552" data-name="Path 552" d="M127.675,393.49l-.181,3.613c-1.761.068-5.269.2-6.842.271l-.053-3.47Z" transform="translate(-108.353 -162.06)" opacity="0.2"/>
      <path id="Path_553" data-name="Path 553" d="M178.089,394.791l-7.3.346c-.105-2.612-.211-5.156-.278-6.458l7.526.753Z" transform="translate(-120.698 -160.87)" opacity="0.2"/>
      <path id="Path_554" data-name="Path 554" d="M181.642,386.5l-1.121,5.728-13.367,1.039L165.4,386.5Z" transform="translate(-119.434 -160.331)" fill="#4d4b4b"/>
      <path id="Path_555" data-name="Path 555" d="M130.938,388.98l-1.174,5.66-13.954.662.008-6.322Z" transform="translate(-107.168 -160.944)" fill="#4d4b4b"/>
      <path id="Path_556" data-name="Path 556" d="M170.219,160.915c-3.011,1.438-11.29,3.011-11.29,3.011s-5.419-14.007-6.849-21.97a13.322,13.322,0,0,0-11.463-11.139c-3.658-.474-19.1-.316-24.521.8s-6.36,9.069-6.842,13.849-3.5,22.579-.956,27.848,11.463,3.176,11.463,3.176V178.4h31.2l-.753-14.6s2.95,7.752,7.526,8.068,14.963-7.316,14.963-7.316Zm-54.943,8.166s.346-9.092.963-11.711l.941,4.855,1.325,6.857Z" transform="translate(-105.061 -97.024)" fill="#4d4b4b"/>
      <path id="Path_557" data-name="Path 557" d="M144.263,176.7l4.907-5.938,6.887-1.054,1.054,6.119-5.269,1.927a8.836,8.836,0,0,1-7.6,2.529Z" transform="translate(-114.2 -106.707)" fill="#ff8b7b"/>
      <path id="Path_558" data-name="Path 558" d="M190.9,168.491l2.551-4.681,6.224-2.619,2.356,6.375-5.156,2.01s-1.347,2.965-3.424,2.582Z" transform="translate(-125.742 -104.599)" fill="#ff8b7b"/>
      <path id="Path_559" data-name="Path 559" d="M140.107,114.7a13.063,13.063,0,0,0,0,1.626c.075,1.031-.12,2.92,1.9,3.914-1.046,2.258-3.568,7.918-5.1,9.837-2.326-1.9-7.79-9.589-7.79-9.589s3.839-4.162,1.084-12c0,0-3.869-2.83-3.093-4.388.888-1.814,3.409-.835,3.944-.068-.564-.828-3.191-9.912,0-13.254,1.987-2.085,3.974-2.107,7.677-2.258h.309c2.371-.083,4.132,0,4.132,0h0a16.46,16.46,0,0,1,2.115,2.837h0a21.074,21.074,0,0,1,3.011,9.032C149,107.846,147.535,113.89,140.107,114.7Z" transform="translate(-109.939 -86.614)" fill="#ff8b7b"/>
      <path id="Path_560" data-name="Path 560" d="M145.619,110.535s-3.372,1.144-4.6-1.415" transform="translate(-113.404 -91.719)" fill="none" stroke="#263238" stroke-linecap="round" stroke-linejoin="round" stroke-width="0.5"/>
      <path id="Path_561" data-name="Path 561" d="M140.815,96.7a3.011,3.011,0,0,0-2.755,1.611" transform="translate(-112.672 -88.647)" fill="none" stroke="#263238" stroke-linecap="round" stroke-linejoin="round" stroke-width="1"/>
      <path id="Path_562" data-name="Path 562" d="M152.415,95.348a3.01,3.01,0,0,0-2.145-.978" transform="translate(-115.692 -88.071)" fill="none" stroke="#263238" stroke-linecap="round" stroke-linejoin="round" stroke-width="1"/>
      <path id="Path_563" data-name="Path 563" d="M148.782,107.307l-.662-5.637,3.319,4.26S151.116,107.4,148.782,107.307Z" transform="translate(-115.16 -89.876)" fill="#ff5652"/>
      <path id="Path_564" data-name="Path 564" d="M141.758,101.373c.038.572.376,1.016.753.993s.64-.512.595-1.091-.369-1.016-.753-.986S141.713,100.824,141.758,101.373Z" transform="translate(-113.585 -89.535)" fill="#263238"/>
      <path id="Path_565" data-name="Path 565" d="M150.479,100.123c.045.58.376,1.024.753.993s.64-.512.595-1.091-.376-1.016-.753-.986S150.441,99.551,150.479,100.123Z" transform="translate(-115.743 -89.225)" fill="#263238"/>
      <path id="Path_566" data-name="Path 566" d="M128.717,99.623s-3.846-5.156-.67-8.5c1.987-2.085,7.331-3.447,11.026-3.605C138.99,88.393,139.073,96.04,128.717,99.623Z" transform="translate(-109.884 -86.376)" fill="#263238"/>
      <path id="Path_567" data-name="Path 567" d="M149.211,91.276a10.763,10.763,0,0,1-6.307-2.883l-.294-.309a19.742,19.742,0,0,1,4.426.316h0a16.459,16.459,0,0,1,2.115,2.837Z" transform="translate(-113.797 -86.512)" fill="#263238"/>
      <path id="Path_568" data-name="Path 568" d="M143.07,124.562a8.633,8.633,0,0,1-4.17-2.792,11.485,11.485,0,0,0,4.147,1.167A13.067,13.067,0,0,0,143.07,124.562Z" transform="translate(-112.879 -94.848)" opacity="0.2"/>
      <path id="Path_569" data-name="Path 569" d="M120.131,168.744l-.941-4.855V156.92A86.99,86.99,0,0,1,120.131,168.744Z" transform="translate(-108.004 -103.543)" opacity="0.2"/>
    </g>
    <g id="freepik--character-2--inject-65" transform="translate(154.195 68.621)">
      <rect id="Rectangle_336" data-name="Rectangle 336" width="54.95" height="42.291" transform="translate(19.94 55.361) rotate(-3.24)" fill="#4d4b4b"/>
      <path id="Path_791" data-name="Path 791" d="M0,42.291Z" transform="translate(19.94 55.361) rotate(-3.24)" opacity="0.3"/>
      <path id="Path_790" data-name="Path 790" d="M0,0H54.95V42.291H0Z" transform="translate(0 56.494) rotate(-3.24)" fill="#4d4b4b"/>
      <rect id="Rectangle_340" data-name="Rectangle 340" width="11.732" height="3.958" transform="matrix(0.998, -0.06, 0.06, 0.998, 49.938, 57.74)" opacity="0.3"/>
      <rect id="Rectangle_341" data-name="Rectangle 341" width="11.711" height="6.397" transform="translate(3.425 61.584) rotate(-3.24)" fill="#fff" opacity="0.5"/>
      <rect id="Rectangle_342" data-name="Rectangle 342" width="17.973" height="4.99" transform="translate(1.257 78.594) rotate(-3.24)" opacity="0.3"/>
      <path id="Path_570" data-name="Path 570" d="M324.291,96.43l-3.011,3.838a6.518,6.518,0,0,0,2.8,1.106Z" transform="translate(-233.637 -78.978)" fill="#a02724"/>
      <path id="Path_571" data-name="Path 571" d="M390.424,404.594l-8.746-.5-1.776-7.459-.971-4.087-.361-1.505,6.729-.459.482-.038,1.43,4.328Z" transform="translate(-247.808 -151.73)" fill="#b55b52"/>
      <path id="Path_572" data-name="Path 572" d="M324.66,406.536c.166.595-8.121-.467-8.121-.467l-.294-6.962-.226-5.374v-.294h.068l8.415.835V399.1C324.517,402.4,324.562,406.212,324.66,406.536Z" transform="translate(-232.335 -152.445)" fill="#b55b52"/>
      <path id="Path_573" data-name="Path 573" d="M344.271,113.047s-11.816,3.2-10.943.881a11.9,11.9,0,0,0,.519-4.343,10.526,10.526,0,0,0-.12-1.648c-4.275.248-7.15-2.845-8.43-6.653a21.207,21.207,0,0,1,.956-14.978c.158-.376.61-1.972,1.009-2.168L331.9,82s4.516,2.958,6.864,4.794S343,97.166,343,103.8,344.271,113.047,344.271,113.047Z" transform="translate(-234.395 -75.408)" fill="#b55b52"/>
      <path id="Path_574" data-name="Path 574" d="M324.559,94.56a1.024,1.024,0,0,0-.753.941,1,1,0,0,0,.5,1.024Z" transform="translate(-234.259 -78.515)" fill="#263238"/>
      <path id="Path_575" data-name="Path 575" d="M324.81,89.48a2.514,2.514,0,0,1,1.392.384" transform="translate(-234.51 -77.258)" fill="none" stroke="#263238" stroke-linecap="round" stroke-linejoin="round" stroke-width="1"/>
      <path id="Path_576" data-name="Path 576" d="M329.872,98.2s3.432,5.359,8.9,6.586,7.188-.67,7.918-3.763a16.747,16.747,0,0,1,4.057-7.8c1.889-1.949.753-7.24-1.648-11.591,0,0,2.574-2.16-1.573-4.237s-5.675,1.377-9.273-.64,1.2-2.687-2.19,3.605-5.268,1.716-5.773,4.516S327.155,92.528,329.872,98.2Z" transform="translate(-235.462 -73.759)" fill="#263238"/>
      <path id="Path_577" data-name="Path 577" d="M327.1,87.637c-.339-.113-11.222-4.049-11.327-5.833s8.437,1.46,8.761,1.588h0l2.205,3.485Z" transform="translate(-232.273 -75.228)" fill="#4d4b4b"/>
      <path id="Path_578" data-name="Path 578" d="M351.953,89.964c-.105.324-.753,2.469-1.031,2.469l-.911-.053q-1.272-.105-2.529-.294c-.926-.143-1.836-.324-2.732-.534h-.038c-.911-.218-1.806-.459-2.679-.753a57.569,57.569,0,0,1-6.3-2.311h0c-1.159-.5-2.183-.993-3.011-1.415-1.693-.843-2.7-1.438-2.7-1.438l-.151-.248-.617-.971-1.317-2.085-.452-.7V81.58a.308.308,0,0,1,0-.2c.045-.8,1.678-3.011,1.972-3.387a14.2,14.2,0,0,1,4.516-3.929c2.423-1.34,5.156-.753,7.73-.3a12.184,12.184,0,0,1,2.476.8h0l.5.218h0l.1.045c.09.053.188.09.278.135l.166.083a18,18,0,0,1,5.141,3.62C353.752,82.468,352.375,88.737,351.953,89.964Z" transform="translate(-235.167 -73.242)" fill="#407bff"/>
      <path id="Path_579" data-name="Path 579" d="M349.193,126.982s-.542-3.763-1.724-4.516-12.923-.64-14.752.647-1.505,5.494-1.505,5.494Z" transform="translate(-236.088 -85.302)" fill="#4d4b4b"/>
      <path id="Path_580" data-name="Path 580" d="M326.872,97.314s2-2.589,4.147-.986.444,5.4-2.077,6.473c0,0-3.259,1.061-3.68-2.258S326.872,97.314,326.872,97.314Z" transform="translate(-234.607 -78.823)" fill="#b55b52"/>
      <path id="Path_581" data-name="Path 581" d="M314.8,217.53s-4.478,42.848-5.728,62.552,3.342,70.094,3.342,70.094H323.3s1.249-50.058,3.131-65.074,8.129-35.374,8.129-35.374,3.763,32.221,7.526,45.362,15.986,53.287,15.986,53.287l12.539-2.408s-15.053-51.5-15.053-67.459.143-48.169-3.605-60.964Z" transform="translate(-230.563 -108.933)" fill="#4d4b4b"/>
      <path id="Path_583" data-name="Path 583" d="M344.949,271.376c-1.2-8.362-1.949-14.88-1.949-14.88l.753-11.7Z" transform="translate(-239.009 -115.678)" opacity="0.3"/>
      <path id="Path_584" data-name="Path 584" d="M312.01,390.99h13.051l-.64,5.374h-11.9Z" transform="translate(-231.344 -151.839)" fill="#263238"/>
      <path id="Path_585" data-name="Path 585" d="M372.14,388.226l14.112-5.246,1.784,7.632-13.773,3.771Z" transform="translate(-246.217 -149.858)" fill="#263238"/>
      <path id="Path_586" data-name="Path 586" d="M385.417,390.6l-6.367,1.964.971,4.087,7.308-1.761Z" transform="translate(-247.926 -151.743)" opacity="0.2"/>
      <path id="Path_587" data-name="Path 587" d="M324.495,399.14h-8.279l-.226-5.374.053-.286,8.415.835S324.48,396.543,324.495,399.14Z" transform="translate(-232.328 -152.455)" opacity="0.2"/>
      <path id="Path_588" data-name="Path 588" d="M309.681,412.886c.053.143-5.208-2.92-3.763-4.35S309.681,412.886,309.681,412.886Z" transform="translate(-229.774 -156.123)" fill="none" stroke="#4d4b4b" stroke-miterlimit="10" stroke-width="1"/>
      <path id="Path_589" data-name="Path 589" d="M311.458,412.226c-.038.151-2.935-5.2-.963-5.675S311.458,412.226,311.458,412.226Z" transform="translate(-230.799 -155.682)" fill="none" stroke="#4d4b4b" stroke-miterlimit="10" stroke-width="1"/>
      <path id="Path_590" data-name="Path 590" d="M379.863,408.513s-1.724-5.547-3.394-4.636S379.863,408.513,379.863,408.513Z" transform="translate(-247.204 -155.002)" fill="none" stroke="#644536" stroke-miterlimit="10" stroke-width="1"/>
      <path id="Path_591" data-name="Path 591" d="M378.772,409.687s-3.891-4.3-5.028-2.792S378.772,409.687,378.772,409.687Z" transform="translate(-246.579 -155.694)" fill="none" stroke="#644536" stroke-miterlimit="10" stroke-width="1"/>
      <path id="Path_592" data-name="Path 592" d="M387.907,408.53H378.56s-5.4,3.251-7.775,3.552-3.763.444-3.7,2.145,1.505,1.852,6.36,1.776,14.488.519,15.535-.444S389.367,412.782,387.907,408.53Z" transform="translate(-244.967 -156.178)" fill="#263238"/>
      <path id="Path_593" data-name="Path 593" d="M320.761,410.07l-9.032.068s-5.4,3.251-7.767,3.552-3.763.444-3.7,2.145,1.505,1.851,6.367,1.776,13.435.625,14.481-.339S321.574,414.729,320.761,410.07Z" transform="translate(-228.436 -156.559)" fill="#263238"/>
      <path id="Path_594" data-name="Path 594" d="M324.53,83.4c.233,1.2.474,2.115,2.454,4.2-2.514-.933-11.124-4.26-11.214-5.788S322.363,82.579,324.53,83.4Z" transform="translate(-232.273 -75.235)" opacity="0.3"/>
      <path id="Path_595" data-name="Path 595" d="M327.4,84.276a.309.309,0,0,1,0-.2h0v.241Z" transform="translate(-235.148 -75.923)" opacity="0.3"/>
      <path id="Path_596" data-name="Path 596" d="M330.743,89.671l-.233-.09a.5.5,0,0,1,.045-.09Z" transform="translate(-235.92 -77.261)" opacity="0.3"/>
      <path id="Path_597" data-name="Path 597" d="M351.953,89.964c-.105.324-.753,2.469-1.031,2.469l-.911-.053q-1.272-.105-2.529-.294c-.926-.143-1.836-.324-2.732-.534h-.038c-.911-.218-1.806-.459-2.679-.753a57.569,57.569,0,0,1-6.3-2.311h0c-1.159-.5-2.183-.993-3.011-1.415-1.693-.843-2.7-1.438-2.7-1.438l-.151-.248-.617-.971-1.317-2.085-.452-.7V81.58a.308.308,0,0,1,0-.2c.045-.8,1.678-3.011,1.972-3.387a14.2,14.2,0,0,1,4.516-3.929c2.423-1.34,5.156-.753,7.73-.3a12.184,12.184,0,0,1,2.476.8h0l.5.218h0l.1.045c.09.053.188.09.278.135l.166.083a18,18,0,0,1,5.141,3.62C353.752,82.468,352.375,88.737,351.953,89.964Z" transform="translate(-235.167 -73.242)" fill="#4d4b4b"/>
      <path id="Path_598" data-name="Path 598" d="M339.459,115.5a33.3,33.3,0,0,1-2.529,2.371,10.523,10.523,0,0,0-.12-1.648,11.952,11.952,0,0,0,2.649-.723Z" transform="translate(-237.478 -83.695)" opacity="0.2"/>
      <path id="Path_599" data-name="Path 599" d="M314.437,195.677v-38.55l-7.037-2.868s1.347-20.57,11.365-23.814,27.848-4.606,32.755,0c3.1,2.928,3.515,7.624,3.628,11.651.241,8.2-1.9,16.227-2.378,24.386-.376,6.638-.6,13.277-.753,19.922,0,.512-.2,9.273-.211,9.273Z" transform="translate(-230.203 -86.658)" fill="#263238"/>
      <path id="Path_600" data-name="Path 600" d="M308.05,167.477s-5.208,17.205-10.356,18.282-22.73-8.52-22.73-8.52h-7.85l-1.114-6.9s7.308-2.71,12.178.534c0,0,11.372,4.96,15.158,6.4L298.823,164Z" transform="translate(-219.963 -95.692)" fill="#b55b52"/>
    </g>
  </g>
</svg>
