<svg xmlns="http://www.w3.org/2000/svg" xmlns:xlink="http://www.w3.org/1999/xlink" width="366.049" height="249.519" viewBox="0 0 366.049 249.519">
  <defs>
    <clipPath id="clip-path">
      <path id="Path_486" data-name="Path 486" d="M243.919,195.961s5.007,41.3,5.007,43.135-4.587,2.75-4.587,5.04a20.587,20.587,0,0,1-1.145,5.5s-.914.922-.914,1.647,1.606.461,2.981-.222,1.828-3.212,1.828-3.212a40.78,40.78,0,0,0-.684,4.587l-.914.914s-2.75,2.52-.922,2.75,10.318-2.981,10.78-5.04-1.153-11.924-1.153-11.924,6.654-46.536,6.654-50.892a6.11,6.11,0,0,0-3.673-5.764" transform="translate(-242.28 -182.48)" fill="#fff" stroke="#263238" stroke-linecap="round" stroke-linejoin="round" stroke-width="0.835"/>
    </clipPath>
    <clipPath id="clip-path-2">
      <path id="Path_494" data-name="Path 494" d="M127.32,173.22s-3.022,7.131-1.647,8.235,2.19,1.647,2.19,1.647.823,9.594,2.19,11.241,10.145-1.1,10.145-1.1,17.8,17.812,18.372,14.518-1.647-15.646-1.647-17-3.837-4.941-3.837-4.941" transform="translate(-125.314 -173.22)" fill="rgba(0,0,0,0)" stroke="#263238" stroke-linecap="round" stroke-linejoin="round" stroke-width="0.835"/>
    </clipPath>
    <clipPath id="clip-path-3">
      <path id="Path_513" data-name="Path 513" d="M229.943,161.374l1.54.593,21.971,4.019s3.582,1.886,4.842,3.9.124,9.338.124,9.338l-2.3,17.244,3.681,30.914-6.423,4.817.247,3.055c.173.049-.041,4.076-9.569,5.764,0,0-1.976.988-2.553.552-1.458-1.1-.288-1-.288-1l-3.854,2.47a13.876,13.876,0,0,1-.609,5.764c-1,3.294-1.7,3.936-1.7,3.936l1.754,30.642,4.225,6.02,55.174,33.491H397.928V98.5H228.7v62.4Z" transform="translate(-228.7 -98.5)" fill="rgba(0,0,0,0)"/>
    </clipPath>
    <clipPath id="clip-path-4">
      <path id="Path_516" data-name="Path 516" d="M150.223,211.7s-9.627,7.8-9.627,9.882-.692,40.8-.231,41.718,18.611-11.71,18.611-11.71l-1.836-16.733" transform="translate(-140.207 -211.7)" fill="rgba(0,0,0,0)" stroke="#263238" stroke-linecap="round" stroke-linejoin="round" stroke-width="0.835"/>
    </clipPath>
    <clipPath id="clip-path-5">
      <path id="Path_519" data-name="Path 519" d="M170.62,188.15s18.9-17.96,21.188-17.96,40.112,7.56,42.863,8.021,7.337,1.375,7.337,1.375-8.021,10.088-10.771,13.522-4.117,5.5-4.117,5.5L196.173,184.4" transform="translate(-170.62 -170.19)" fill="rgba(0,0,0,0)" stroke="#263238" stroke-linecap="round" stroke-linejoin="round" stroke-width="0.835"/>
    </clipPath>
    <clipPath id="clip-path-6">
      <path id="Path_527" data-name="Path 527" d="M159.62,256.726l27.513-12.838,2.289-8.021,9.4-2.042s1.836-1.836,1.606,0-2.75,2.52-3.665,4.356-.922,5.5-2.067,7.107-5.27,3.442-5.27,3.442-30.947,25.9-33.236,27.274-6.876-11.694-6.876-11.694" transform="translate(-149.31 -233.009)" fill="#fff" stroke="#263238" stroke-linecap="round" stroke-linejoin="round" stroke-width="0.835"/>
    </clipPath>
  </defs>
  <g id="Delivery-bro" transform="translate(-27.739 -98.5)">
    <g id="freepik--background-simple--inject-1--inject-67" transform="translate(41.871 246.045)">
      <path id="Path_451" data-name="Path 451" d="M44.9,358.241H390.19s-8.334-16.659-19.163-22.078-16.659,5.419-29.992-2.083-10.409-24.985-25.4-35.41-30.823,1.252-44.567.42-17.911-19.163-32.94-21.246S223.54,293.1,209.8,298.257s-23.222-3.236-32.9-2.915-7.914,6.242-17.079,10.409-10.829,2.083-28.32,3.747-21.658,19.574-27.908,24.573-14.576-2.915-27.488,0S44.9,358.241,44.9,358.241Z" transform="translate(-44.9 -277.67)" fill="#cecece"/>
    </g>
    <g id="freepik--Plants--inject-1--inject-67" transform="translate(27.739 239.669)">
      <path id="Path_453" data-name="Path 453" d="M393.2,298.3c.651,3.45,8.466,14.691,11.348,21.016-.667-.824-1.441-1.8-2.207-2.693-.6-1.046-1.136-2.215-1.738-3.113-.931-1.392-1.911-2.75-2.973-4.043a33.56,33.56,0,0,0-5.55-5.526,15.762,15.762,0,0,0-8.334-3.467c-.823-.058-5.526-.412-4.43,1.482a2.19,2.19,0,0,0,.782.692c2.89,1.771,6.086,2.717,9.133,4.117,4.562,2.133,10.59,7.815,13.1,10.285l1.276,1.688c-4.488-4.183-11.817-6.588-14.329-5.41-3.1,1.416,3.574,2.866,9.24,4.332a16.042,16.042,0,0,1,6.868,3.45c1.087,1.466,2.314,3.113,3.541,4.8.148.264.3.511.445.758a17.293,17.293,0,0,0-2.932-2.7c-2.9-1.985-10.878-3.187-11.718-.5s4.817,1.458,9.684,2.232a13.061,13.061,0,0,1,6.934,3.681l.321.346c.552.824,1.079,1.54,1.573,2.265,1.161,1.7,2.265,3.294,3.294,4.834a27.711,27.711,0,0,0-5.764-5.624c-4.249-2.915-9.923-3.533-11.99-1.968s7.469,2.981,12.155,4.628a16.939,16.939,0,0,1,6.95,4.941c1.54,2.182,3.063,4.307,4.7,6.53a64.292,64.292,0,0,0-8.358-6.267c-4.8-3.146-9.775-2.718-11.1-.824s2.734,2.018,10.285,3.64a23.28,23.28,0,0,1,10.705,5.435l2.166,2.882a40.768,40.768,0,0,0,2.9,3.417c-1.276-.576-3.162-1.4-5.254-2.3a49.021,49.021,0,0,1-6.761-3.409c-2.47-1.548-5.83-3.187-8.787-1.869a1.647,1.647,0,0,0-.972,2.289,3.137,3.137,0,0,0,1.458,1.351c3.294,1.8,7.354,2.281,10.952,3.08a76.925,76.925,0,0,0,10.022,1.556c.98,1.029,2,2.042,3.014,3l-1.515.28c-1.787.338-10.5-2.075-14.823-2.61s-7.823,2.306-3.129,3.953,16.379-.708,16.379-.708l3.376-.634c4.01,3.78,7.724,6.67,7.724,6.67l1.565-1.054s-3.236-.889-8.671-6.028a14.144,14.144,0,0,1-.049-3.063c.346-5.764,5.1-12.27,1.449-17.845-.881-1.351-2.783-2.092-3.837-.609a5.861,5.861,0,0,0-.478,4.117c.823,4.076,2.1,7.691,1.787,11.941,0,.189,0,3.039.2,4.587-.741-.733-1.507-1.532-2.314-2.413a32.188,32.188,0,0,1-1.6-4.941c-1.046-4.488,0-9.248-.749-13.818-.239-1.4-2.421-4.719-3.492-1.836-.469,1.276.132,3.7.214,5.056.247,3.846.626,7.864,2.141,11.455l-.651-.823a71.094,71.094,0,0,1-3.03-11.01c-1.161-6.184-.963-11.447-2.956-13.094s-1.886,5.237,0,12.476a30.875,30.875,0,0,0,4.159,9.273c-2.125-2.718-4.241-5.509-6.259-8.235a23.008,23.008,0,0,1-3.418-9.816c-.354-5.493-.683-9.981-3.22-12.706s-2.652-.684-.651,5.517c1.375,4.249,3.022,9.964,4.941,13.81-1.573-2.133-3.047-4.159-4.373-6a47.254,47.254,0,0,1-3.689-11.068c-.824-5.4-1.878-8.235-3.294-6.8-.98,1,.823,7.56,3.45,12.9-1.112-1.573-1.943-2.783-2.47-3.5q-.329-.494-.741-1.038a106.729,106.729,0,0,0-4.653-12.8C396.987,299.614,392.5,294.534,393.2,298.3Z" transform="translate(-89.765 -274.71)" fill="#644536"/>
      <path id="Path_455" data-name="Path 455" d="M461.127,277.464c-1.91,2.94-4,16.47-6.275,23.058.115-1.087.2-2.289.255-3.467.288-1.169.708-2.38.9-3.459.28-1.647.5-3.294.634-4.941a33.226,33.226,0,0,0-.214-7.831,15.8,15.8,0,0,0-3.648-8.235c-.519-.585-3.714-4.117-4.225-1.985a2.125,2.125,0,0,0,.091,1.038c.865,3.294,2.528,6.168,3.755,9.305,1.828,4.694,2.273,12.962,2.388,16.47-.066.568-.148,1.285-.239,2.1-.362-6.119-4.035-12.9-6.646-13.8-3.228-1.1.609,4.546,3.706,9.511a16.1,16.1,0,0,1,2.594,7.23c-.222,1.82-.478,3.854-.749,5.921-.074.3-.14.576-.2.865a17.549,17.549,0,0,0-.263-3.986c-.733-3.434-5.682-9.808-8.144-8.441s2.47,4.381,5.476,8.293a13.011,13.011,0,0,1,2.47,7.453v.469c-.14.947-.28,1.861-.42,2.726-.329,2.026-.626,3.936-.914,5.764a28,28,0,0,0-.28-8.037c-1.079-5.04-4.76-9.4-7.337-9.693s3.352,7.3,5.616,11.735a16.824,16.824,0,0,1,1.647,8.35c-.387,2.635-.749,5.229-1.1,7.971a65.451,65.451,0,0,0-1.729-10.31c-1.309-5.583-5.213-8.713-7.5-8.235s.593,3.343,4.941,9.725a23.28,23.28,0,0,1,3.986,11.3c-.14,1.153-.28,2.339-.42,3.574-.156,1.408-.239,2.932-.255,4.48-.535-1.3-1.326-3.2-2.223-5.287a49.368,49.368,0,0,1-2.545-7.131c-.741-2.841-2.026-6.333-5.073-7.411a1.647,1.647,0,0,0-2.281.988,3.163,3.163,0,0,0,.115,1.985c1.12,3.557,3.755,6.72,5.806,9.783a78.1,78.1,0,0,0,6.193,8.037c0,1.425.041,2.857.115,4.249l-1.293-.823c-1.532-.988-6.168-8.745-8.927-12.105s-7.255-3.73-5,.7,12.352,10.78,12.352,10.78l2.882,1.878c.3,5.5,1,10.154,1,10.154l1.861.313s-1.729-2.874-2.125-10.335a13.85,13.85,0,0,1,2.083-2.256c4.216-3.936,12.147-5.369,13.349-11.932.288-1.581-.568-3.426-2.363-3.08-1.285.247-2.47,1.589-3.162,2.635-2.232,3.5-3.788,7.016-6.934,9.882-.14.132-2.092,2.207-3.022,3.459,0-1.038-.041-2.149,0-3.343a32.793,32.793,0,0,1,2.256-4.694c2.339-3.969,6.382-6.687,8.984-10.524.823-1.178,1.5-5.081-1.26-3.73-1.227.6-2.47,2.767-3.294,3.8a36.312,36.312,0,0,0-6.357,9.775c0-.346.066-.692.091-1.038a71.647,71.647,0,0,1,5.4-10.063c3.426-5.279,7.189-8.96,6.884-11.529s-4.941,2.47-8.622,9.058a30.906,30.906,0,0,0-3.376,9.585c.338-3.442.725-6.917,1.12-10.261a22.82,22.82,0,0,1,4.3-9.462c3.525-4.225,6.382-7.7,6.423-11.422s-1.449-2.33-4.274,3.541c-1.935,4.027-4.677,9.305-5.962,13.4.338-2.627.667-5.114.98-7.354a45.638,45.638,0,0,1,4.941-10.557c3.113-4.5,4.315-7.271,2.3-7.2-1.4.049-4.645,6.012-6.39,11.71.28-1.9.511-3.352.659-4.208q.1-.576.173-1.26a108.069,108.069,0,0,0,5.419-12.55C462.963,281.022,463.2,274.269,461.127,277.464Z" transform="translate(-99.324 -269.927)" fill="#644536"/>
      <path id="Path_457" data-name="Path 457" d="M38.313,314.794c.387,2.586,5.9,11.208,7.856,16-.469-.667-1.013-1.375-1.565-2.067-.42-.824-.782-1.688-1.211-2.38-.651-1.062-1.342-2.1-2.092-3.1a24.934,24.934,0,0,0-3.994-4.282,11.751,11.751,0,0,0-6.11-2.825c-.585-.066-4.117-.469-3.352.972a1.482,1.482,0,0,0,.568.535,66.941,66.941,0,0,0,6.695,3.368c3.343,1.68,7.667,6.127,9.478,8.013l.9,1.293c-3.22-3.253-8.622-5.237-10.532-4.455-2.355.972,2.586,2.248,6.769,3.508a11.85,11.85,0,0,1,5.023,2.767c.774,1.12,1.647,2.4,2.47,3.689.1.2.206.387.313.576a12.7,12.7,0,0,0-2.108-2.1c-2.108-1.565-8.029-2.693-8.737-.716s3.557,1.227,7.164,1.943a9.783,9.783,0,0,1,5.073,2.948c.074.1.148.181.231.272.387.593.758,1.178,1.1,1.729.823,1.3,1.589,2.52,2.355,3.7a21.3,21.3,0,0,0-4.117-4.356c-3.088-2.3-7.313-2.923-8.894-1.812s5.484,2.47,8.935,3.8a12.641,12.641,0,0,1,5.048,3.862c1.079,1.647,2.158,3.294,3.294,5.007a48.008,48.008,0,0,0-6.061-4.941c-3.492-2.47-7.214-2.314-8.235-.914s1.985,1.589,7.568,3.014a17.376,17.376,0,0,1,7.815,4.365c.486.716,1,1.449,1.532,2.215a33.274,33.274,0,0,0,2.059,2.627c-.939-.461-2.314-1.136-3.854-1.861a37.057,37.057,0,0,1-4.941-2.742c-1.82-1.227-4.257-2.545-6.506-1.647a1.211,1.211,0,0,0-.823,1.647,2.4,2.4,0,0,0,1.112,1.112c2.388,1.441,5.419,1.911,8.087,2.61a57.546,57.546,0,0,0,7.411,1.449c.708.824,1.441,1.581,2.166,2.322l-1.136.173c-1.351.2-7.774-1.853-10.977-2.388s-5.9,1.5-2.47,2.866,12.237-.058,12.237-.058l2.545-.371c2.882,2.932,5.567,5.2,5.567,5.2l1.194-.741s-2.38-.758-6.291-4.743a10.557,10.557,0,0,1,.058-2.289c.42-4.29,4.117-9.009,1.589-13.275-.618-1.029-2.009-1.647-2.849-.56a4.356,4.356,0,0,0-.469,3.039c.478,3.063,1.342,5.764,1,8.951,0,.148-.082,2.273,0,3.426-.527-.56-1.079-1.178-1.647-1.861a24.837,24.837,0,0,1-1.054-3.747c-.642-3.376.28-6.9-.156-10.327-.14-1.054-1.647-3.59-2.553-1.474-.387.939,0,2.767,0,3.78a26.236,26.236,0,0,0,1.268,8.606c-.156-.206-.313-.412-.461-.626a53.255,53.255,0,0,1-1.911-8.26c-.683-4.645-.387-8.564-1.828-9.882s-1.556,3.862-.379,9.305a23.289,23.289,0,0,0,2.841,7.049c-1.507-2.1-3.006-4.233-4.43-6.308a17.055,17.055,0,0,1-2.265-7.411c-.107-4.117-.231-7.461-2.042-9.569s-1.96-.593-.642,4.117a82.642,82.642,0,0,0,3.294,10.45c-1.1-1.647-2.149-3.2-3.08-4.6a34.586,34.586,0,0,1-2.47-8.367c-.469-4.052-1.161-6.2-2.265-5.163-.758.716.371,5.657,2.207,9.717-.823-1.211-1.375-2.133-1.713-2.685q-.231-.371-.519-.823a81.591,81.591,0,0,0-3.1-9.709C41.13,315.84,37.9,311.936,38.313,314.794Z" transform="translate(-27.739 -277.677)" fill="#644536"/>
      <path id="Path_459" data-name="Path 459" d="M105.228,310.619c-2.2,1.416-7.774,9.989-11.331,13.761.412-.708.823-1.5,1.235-2.281.552-.716,1.211-1.408,1.647-2.083.7-1.038,1.359-2.1,1.96-3.2a24.978,24.978,0,0,0,2.248-5.394,11.661,11.661,0,0,0,.049-6.736c-.173-.56-1.268-3.945-2.265-2.643a1.507,1.507,0,0,0-.255.733c-.42,2.47-.173,4.941-.3,7.486-.189,3.755-2.421,9.52-3.426,11.957-.214.362-.486.824-.823,1.351,1.647-4.274,1.211-10.014-.288-11.43-1.861-1.746-.98,3.294-.4,7.609a12.023,12.023,0,0,1-.453,5.723c-.708,1.161-1.507,2.47-2.322,3.8l-.4.527a12.682,12.682,0,0,0,1.128-2.792c.552-2.561-.823-8.416-2.956-8.235s.354,3.739,1.186,7.321a9.684,9.684,0,0,1-.593,5.839l-.148.321c-.387.6-.758,1.178-1.12,1.721-.823,1.285-1.647,2.47-2.4,3.665a20.9,20.9,0,0,0,2.273-5.55c.823-3.763-.354-7.864-2.018-8.853s0,6,.222,9.709a12.607,12.607,0,0,1-1.441,6.193c-1.071,1.647-2.108,3.294-3.187,5.089a48.414,48.414,0,0,0,1.952-7.56c.823-4.2-.873-7.527-2.586-7.9s-.626,2.471.379,8.136a17.368,17.368,0,0,1-.749,8.918c-.453.741-.906,1.507-1.383,2.306s-1.054,1.919-1.548,2.973c0-1.054.082-2.586.107-4.282a37.948,37.948,0,0,1,.453-5.641c.371-2.158.568-4.941-1.178-6.588a1.2,1.2,0,0,0-1.853,0,2.314,2.314,0,0,0-.527,1.383c-.329,2.775.494,5.764.947,8.449a58.8,58.8,0,0,0,1.754,7.411c-.436.964-.824,1.96-1.227,2.923l-.626-.964c-.733-1.145-1.515-7.848-2.355-10.985s-3.8-4.76-3.623-1.054,5.106,11.134,5.106,11.134l1.392,2.158c-1.482,3.829-2.47,7.214-2.47,7.214l1.161.782s-.288-2.471,1.729-7.683a10.065,10.065,0,0,1,2.158-.98c4.117-1.383,9.882.066,12.748-4.027.683-.988.667-2.47-.659-2.825a4.323,4.323,0,0,0-2.965.824c-2.594,1.7-4.727,3.615-7.749,4.6-.14.049-2.1.865-3.121,1.425.3-.708.634-1.474,1.021-2.273a23.231,23.231,0,0,1,2.973-2.47c2.808-1.985,6.4-2.594,9.347-4.414.9-.552,2.578-3,.288-2.923-1.021,0-2.528,1.128-3.434,1.573a26.245,26.245,0,0,0-7.321,4.7c.124-.222.247-.453.379-.675a53.382,53.382,0,0,1,6.728-5.237c3.953-2.536,7.642-3.887,8.235-5.764s-4.117.173-8.63,3.5a23.059,23.059,0,0,0-5.246,5.493c1.285-2.24,2.619-4.488,3.912-6.637a17.063,17.063,0,0,1,5.847-5.1c3.706-1.8,6.711-3.294,7.881-5.764s-.272-2.026-3.994,1.1a86.192,86.192,0,0,0-8.169,7.288c1.038-1.647,2.026-3.294,2.923-4.7a34.446,34.446,0,0,1,6.588-5.674c3.5-2.1,5.172-3.623,3.772-4.192-.972-.4-5.007,2.668-7.947,6.012l1.738-2.66c.165-.247.338-.519.511-.823a81.129,81.129,0,0,0,7.535-6.827C105.4,313.6,107.633,309.079,105.228,310.619Z" transform="translate(-35.016 -275.545)" fill="#644536"/>
      <path id="Path_461" data-name="Path 461" d="M134.536,310.89c-2.207,1.425-7.782,10-11.339,13.761.412-.7.823-1.491,1.235-2.281.552-.708,1.211-1.408,1.647-2.075.7-1.038,1.359-2.1,1.96-3.2a25.149,25.149,0,0,0,2.248-5.394,11.727,11.727,0,0,0,.058-6.736c-.181-.56-1.276-3.945-2.273-2.652a1.565,1.565,0,0,0-.255.741,66.14,66.14,0,0,0-.3,7.477c-.189,3.763-2.421,9.528-3.426,11.965-.214.362-.486.823-.823,1.351,1.647-4.282,1.219-10.022-.288-11.43-1.861-1.746-.98,3.294-.4,7.609a11.867,11.867,0,0,1-.453,5.715c-.708,1.169-1.507,2.47-2.322,3.8-.14.173-.272.354-.4.527a12.683,12.683,0,0,0,1.046-2.792c.56-2.561-.823-8.416-2.956-8.235s.354,3.739,1.186,7.321a9.643,9.643,0,0,1-.593,5.83l-.148.329c-.387.593-.758,1.178-1.12,1.721-.823,1.276-1.647,2.47-2.4,3.665a20.842,20.842,0,0,0,2.273-5.559c.824-3.755-.354-7.856-2.018-8.844s.041,6,.222,9.709a12.608,12.608,0,0,1-1.441,6.193c-1.071,1.647-2.108,3.294-3.187,5.089a48.661,48.661,0,0,0,1.985-7.551c.823-4.2-.873-7.527-2.586-7.9s-.626,2.47.387,8.136a17.458,17.458,0,0,1-.758,8.918c-.453.741-.906,1.507-1.383,2.306s-1.054,1.919-1.548,2.965c0-1.046.082-2.578.107-4.282a37.921,37.921,0,0,1,.453-5.633c.371-2.158.568-4.941-1.178-6.588a1.2,1.2,0,0,0-1.853,0,2.314,2.314,0,0,0-.527,1.383c-.329,2.767.494,5.764.947,8.449a58.2,58.2,0,0,0,1.754,7.362c-.436.972-.823,1.96-1.227,2.932l-.626-.972c-.733-1.145-1.515-7.84-2.355-10.977s-3.8-4.76-3.623-1.054,5.106,11.125,5.106,11.125l1.392,2.158c-1.482,3.837-2.47,7.222-2.47,7.222l1.161.782s-.288-2.47,1.729-7.683a10.375,10.375,0,0,1,2.108-.906c4.117-1.383,9.882.074,12.748-4.019.684-1,.667-2.512-.659-2.825a4.282,4.282,0,0,0-2.965.823c-2.594,1.7-4.727,3.615-7.749,4.6-.14.041-2.1.865-3.121,1.425.3-.716.634-1.474,1.021-2.281a23.882,23.882,0,0,1,2.973-2.47c2.816-1.985,6.4-2.594,9.347-4.414.906-.552,2.578-3,.288-2.932-1.021,0-2.528,1.136-3.434,1.573a26.459,26.459,0,0,0-7.321,4.71l.379-.684a53.642,53.642,0,0,1,6.761-5.2c3.953-2.545,7.642-3.887,8.235-5.764s-4.117.173-8.63,3.5a23.058,23.058,0,0,0-5.246,5.493c1.285-2.24,2.619-4.488,3.912-6.646a17.145,17.145,0,0,1,5.822-5.122c3.706-1.8,6.711-3.294,7.881-5.806s-.272-2.034-3.994,1.1a85.068,85.068,0,0,0-8.169,7.288c1.038-1.688,2.026-3.294,2.923-4.71a34.751,34.751,0,0,1,6.588-5.666c3.5-2.108,5.172-3.623,3.772-4.192-.972-.4-5.007,2.668-7.947,6.012.823-1.211,1.383-2.125,1.738-2.66.165-.247.338-.519.511-.823a81.578,81.578,0,0,0,7.543-6.819C134.693,313.879,136.924,309.358,134.536,310.89Z" transform="translate(-40.179 -275.593)" fill="#644536"/>
    </g>
    <g id="freepik--Clouds--inject-1--inject-67" transform="translate(28.728 98.565)">
      <path id="Path_463" data-name="Path 463" d="M435.356,121.359S432.2,112.3,423.127,111.9s-7.494,8.284-13.8,10.648-8.68-4.34-14.205-2.759-1.968,5.913-6.7,7.494-4.34-2.759-11.438.824-8.68,4.735-10.261,5.13-15.778,2.759-15.778,2.759h98.226s2.767-8.68-2.759-12.229S441.277,124.521,435.356,121.359Z" transform="translate(-85.775 -100.927)" fill="#cecece"/>
      <path id="Path_465" data-name="Path 465" d="M223.3,104.352s-1.919-5.5-7.411-5.764-4.537,5.015-8.367,6.456-5.262-2.635-8.614-1.647-1.194,3.59-4.06,4.546-2.635-1.647-6.942.478-5.254,2.874-6.217,3.113-9.561,1.647-9.561,1.647h59.547s1.647-5.262-1.647-7.411S226.884,106.263,223.3,104.352Z" transform="translate(-54.214 -98.578)" fill="#cecece"/>
      <path id="Path_467" data-name="Path 467" d="M97.858,221.342s-2.578-7.411-9.981-7.724-6.127,6.761-11.274,8.7-7.09-3.549-11.595-2.256-1.647,4.826-5.476,6.119-3.541-2.256-9.338.642-7.082,3.862-8.375,4.192-12.879,2.248-12.879,2.248h80.192s2.248-7.082-2.256-9.981S102.684,223.936,97.858,221.342Z" transform="translate(-28.94 -118.882)" fill="#cecece"/>
    </g>
    <g id="freepik--Shadow--inject-1--inject-67" transform="translate(105.56 331.515)">
      <ellipse id="Ellipse_35" data-name="Ellipse 35" cx="87.34" cy="6.193" rx="87.34" ry="6.193" transform="translate(0 4.117)" fill="#644536"/>
      <ellipse id="Ellipse_36" data-name="Ellipse 36" cx="49.517" cy="3.096" rx="49.517" ry="3.096" transform="translate(119.662)" fill="#644536"/>
      <g id="Group_166" data-name="Group 166" opacity="0.6">
        <ellipse id="Ellipse_37" data-name="Ellipse 37" cx="87.34" cy="6.193" rx="87.34" ry="6.193" transform="translate(0 4.117)" fill="#644536"/>
        <ellipse id="Ellipse_38" data-name="Ellipse 38" cx="49.517" cy="3.096" rx="49.517" ry="3.096" transform="translate(119.662)" fill="#644536"/>
      </g>
    </g>
    <g id="freepik--Character--inject-1--inject-67" transform="translate(90.902 98.5)">
      <line id="Line_47" data-name="Line 47" y1="11.002" x2="15.358" transform="translate(101.364 139.985)" fill="none" stroke="#263238" stroke-linecap="round" stroke-linejoin="round" stroke-width="0.835"/>
      <path id="Path_469" data-name="Path 469" d="M285.359,374.118l-.865,9.758s-4.373,1.919-4.365,2.561.823,1.523,4.389,1.523,4.727-1.351,4.727-2.363,7.593-9.454,7.593-9.454a3.121,3.121,0,0,0-.5-3.039c-1.186-1.351-5.237-1.515-5.237-1.515Z" transform="translate(-135.451 -146.702)" fill="#4d4b4b"/>
      <path id="Path_470" data-name="Path 470" d="M280.14,387.558s5.937-.387,7.527-1.293,7.247-9.52,7.7-10.2a3.879,3.879,0,0,0,.453-1.812" transform="translate(-135.452 -147.172)" fill="rgba(0,0,0,0)" stroke="#263238" stroke-linecap="round" stroke-linejoin="round" stroke-width="0.418"/>
      <path id="Path_472" data-name="Path 472" d="M169.381,384.29,155.2,391.216s-1.853,1.351,1.861,1.351,23.288.165,23.288.165,2.2.511,2.7-.5c.823-1.647,1.186-2.7.675-3.212S169.381,384.29,169.381,384.29Z" transform="translate(-113.318 -148.944)" fill="#4d4b4b"/>
      <path id="Path_473" data-name="Path 473" d="M156.92,392.41h25.158" transform="translate(-113.703 -150.377)" fill="rgba(0,0,0,0)" stroke="#263238" stroke-linecap="round" stroke-linejoin="round" stroke-width="0.418"/>
      <path id="Path_475" data-name="Path 475" d="M279.6,356.775l-47.672-34.842-1.647-35.073a23,23,0,0,1-5.88,3.763c-2.948,1.128-20.027,9.758-20.027,9.758s7.568,26.821,8.943,29.119,59.143,31.169,59.143,31.169Z" transform="translate(-122.078 -131.747)" fill="#263238"/>
      <path id="Path_476" data-name="Path 476" d="M179.021,370.076s-1.836-.461-3.9-.922-11.463-4.117-11.463-4.117a8.045,8.045,0,0,1-.231-2.289,3.294,3.294,0,0,1,1.375-2.52s-35.764-47.68-36.678-49.055-.231-3.673,5.962-8.482S180.8,273.151,180.8,273.151c-1.556-1.845,1.375-2.981,1.375-2.981l3.673,1.145,24.071,8.482,9.627-6.415s1.606,5.954-4.356,10.541-60.469,28.822-60.469,28.822l-.906.058,24.524,53.576S179.985,369.31,179.021,370.076Z" transform="translate(-108.563 -128.801)" fill="#263238"/>
      <path id="Path_477" data-name="Path 477" d="M153.07,314.152l4.529,5.666-1.812-7.477" transform="translate(-113.024 -136.244)" fill="rgba(0,0,0,0)" stroke="#fff" stroke-linecap="round" stroke-linejoin="round" stroke-width="0.835"/>
      <path id="Path_478" data-name="Path 478" d="M207.28,303.81s9.289,14.5,12.69,17.45" transform="translate(-122.592 -134.739)" fill="rgba(0,0,0,0)" stroke="#fff" stroke-linecap="round" stroke-linejoin="round" stroke-width="0.835"/>
      <path id="Path_479" data-name="Path 479" d="M208.93,303.26a68,68,0,0,0,8.153,6.119" transform="translate(-122.883 -134.642)" fill="rgba(0,0,0,0)" stroke="#fff" stroke-linecap="round" stroke-linejoin="round" stroke-width="0.835"/>
      <path id="Path_480" data-name="Path 480" d="M221.816,210.03,189.65,231.951l7.033,28.987,23.873,8,31.853-22.7-3.846-29.16Z" transform="translate(-119.48 -118.186)" fill="rgba(242,117,55,0.91)"/>
      <line id="Line_48" data-name="Line 48" x2="2.042" y2="9.058" transform="translate(70.343 113.765)" fill="none" stroke="#263238" stroke-linecap="round" stroke-linejoin="round" stroke-width="0.835"/>
      <path id="Path_481" data-name="Path 481" d="M194.4,255.68l3.212,13.069,24.071,8.482L218.7,255.68" transform="translate(-120.319 -126.243)" fill="rgba(0,0,0,0)" stroke="#263238" stroke-linecap="round" stroke-linejoin="round" stroke-width="0.835"/>
      <line id="Line_49" data-name="Line 49" x1="0.914" y1="5.501" transform="translate(97.238 122.107)" fill="none" stroke="#263238" stroke-linecap="round" stroke-linejoin="round" stroke-width="0.835"/>
      <path id="Path_482" data-name="Path 482" d="M258.15,253.262l6.415-4.817-3.212-27.274" transform="translate(-131.571 -120.152)" fill="rgba(0,0,0,0)" stroke="#263238" stroke-linecap="round" stroke-linejoin="round" stroke-width="0.835"/>
      <line id="Line_50" data-name="Line 50" y1="13.069" x2="17.425" transform="translate(100.441 107.433)" fill="none" stroke="#263238" stroke-linecap="round" stroke-linejoin="round" stroke-width="0.835"/>
      <path id="Path_483" data-name="Path 483" d="M236.583,213.925l-14.444-3.9L190.5,231.581" transform="translate(-119.63 -118.186)" fill="rgba(0,0,0,0)" stroke="#263238" stroke-linecap="round" stroke-linejoin="round" stroke-width="0.835"/>
      <line id="Line_51" data-name="Line 51" x2="4.817" y2="1.375" transform="translate(71.1 114.309)" fill="none" stroke="#263238" stroke-linecap="round" stroke-linejoin="round" stroke-width="0.835"/>
      <line id="Line_52" data-name="Line 52" x2="13.069" y2="3.665" transform="translate(84.169 117.521)" fill="none" stroke="#263238" stroke-linecap="round" stroke-linejoin="round" stroke-width="0.835"/>
      <line id="Line_53" data-name="Line 53" x1="19.714" y2="15.128" transform="translate(94.94 95.286)" fill="none" stroke="#263238" stroke-linecap="round" stroke-linejoin="round" stroke-width="0.418"/>
      <line id="Line_54" data-name="Line 54" x1="7.107" y2="5.501" transform="translate(86.228 111.789)" fill="none" stroke="#263238" stroke-linecap="round" stroke-linejoin="round" stroke-width="0.418"/>
      <path id="Path_484" data-name="Path 484" d="M243.919,195.961s5.007,41.3,5.007,43.135-4.587,2.75-4.587,5.04a20.587,20.587,0,0,1-1.145,5.5s-.914.922-.914,1.647,1.606.461,2.981-.222,1.828-3.212,1.828-3.212a40.78,40.78,0,0,0-.684,4.587l-.914.914s-2.75,2.52-.922,2.75,10.318-2.981,10.78-5.04-1.153-11.924-1.153-11.924,6.654-46.536,6.654-50.892a6.11,6.11,0,0,0-3.673-5.764" transform="translate(-128.77 -113.323)" fill="#fff"/>
      <g id="Group_167" data-name="Group 167" transform="translate(113.51 69.157)" clip-path="url(#clip-path)">
        <path id="Path_485" data-name="Path 485" d="M262.188,194.024c-.964-3.665-2.009-10.318-2.009-10.318l-4.364-1.326-5.764,6.926,4.554-2.8v54.952c0,2.8-3.5,13.645-3.5,13.645s7.239-1.523,6.069-8.111-2.569-5.534-.469-18.833S263.185,197.713,262.188,194.024Z" transform="translate(-243.651 -182.462)" fill="#cecece" opacity="0.3"/>
      </g>
      <path id="Path_487" data-name="Path 487" d="M243.919,195.961s5.007,41.3,5.007,43.135-4.587,2.75-4.587,5.04a20.587,20.587,0,0,1-1.145,5.5s-.914.922-.914,1.647,1.606.461,2.981-.222,1.828-3.212,1.828-3.212a40.78,40.78,0,0,0-.684,4.587l-.914.914s-2.75,2.52-.922,2.75,10.318-2.981,10.78-5.04-1.153-11.924-1.153-11.924,6.654-46.536,6.654-50.892a6.11,6.11,0,0,0-3.673-5.764" transform="translate(-128.77 -113.323)" fill="rgba(0,0,0,0)" stroke="#263238" stroke-linecap="round" stroke-linejoin="round" stroke-width="0.835"/>
      <path id="Path_488" data-name="Path 488" d="M250.612,265.29a4.579,4.579,0,0,1-.231,2.94,11.792,11.792,0,0,1-1.581,2.042" transform="translate(-129.921 -127.94)" fill="rgba(0,0,0,0)" stroke="#263238" stroke-linecap="round" stroke-linejoin="round" stroke-width="0.418"/>
      <path id="Path_489" data-name="Path 489" d="M254.184,265.29a13.811,13.811,0,0,1-.683,2.718" transform="translate(-130.75 -127.94)" fill="rgba(0,0,0,0)" stroke="#263238" stroke-linecap="round" stroke-linejoin="round" stroke-width="0.418"/>
      <path id="Path_490" data-name="Path 490" d="M256.663,264.46a14.335,14.335,0,0,1-.684,2.717" transform="translate(-131.188 -127.793)" fill="rgba(0,0,0,0)" stroke="#263238" stroke-linecap="round" stroke-linejoin="round" stroke-width="0.418"/>
      <path id="Path_491" data-name="Path 491" d="M155.866,158.3c-.264-2.372-5.007-6.851-11.595-8.169s-13.711-1.318-16.346.823c-.988.782-1.647,2.6-2.075,4.562a12.961,12.961,0,0,1,2.4-3.854c4.85-4.043,6.2-1.647,7.008,1.886s-.272,13.176-.272,13.176-11.051,3.236-9.437-2.429a14.311,14.311,0,0,1-.494-2.47v.675l-.527,3.426-4.48.823-15.564-.494s7.922,4.941,12.4,4.941a13.118,13.118,0,0,0,7.889-3.055l28.822,2.2S156.129,160.667,155.866,158.3Z" transform="translate(-104.447 -107.453)" fill="#644536"/>
      <path id="Path_495" data-name="Path 495" d="M127.32,173.22s-3.022,7.131-1.647,8.235,2.19,1.647,2.19,1.647.823,9.594,2.19,11.241,10.145-1.1,10.145-1.1,17.8,17.812,18.372,14.518-1.647-15.646-1.647-17-3.837-4.941-3.837-4.941" transform="translate(-109.124 -111.689)" fill="rgba(0,0,0,0)" stroke="#263238" stroke-linecap="round" stroke-linejoin="round" stroke-width="0.835"/>
      <path id="Path_496" data-name="Path 496" d="M147.06,173.55s.544,2.47,2.19,2.742,3.014-2.47,3.014-2.47Z" transform="translate(-111.963 -111.747)" fill="#263238"/>
      <path id="Path_497" data-name="Path 497" d="M162.06,174.759s1.647,4.941-.28,7.675-2.734,2.742-2.734,2.742c-1.647,2.742-6.036-3.294-6.036-3.294s3.294-.148,4.117-2.339-.329-5.394-.329-5.394Z" transform="translate(-113.013 -111.853)" fill="#263238"/>
      <path id="Path_498" data-name="Path 498" d="M156.764,174.89s.823,3.837,0,5.764-4.117,1.367-4.117,1.367L151,186.139" transform="translate(-112.658 -111.983)" fill="rgba(0,0,0,0)" stroke="#263238" stroke-linecap="round" stroke-linejoin="round" stroke-width="0.835"/>
      <path id="Path_499" data-name="Path 499" d="M130.78,186.508s3.179.684,5.213-2.948" transform="translate(-109.089 -113.514)" fill="rgba(0,0,0,0)" stroke="#263238" stroke-linecap="round" stroke-linejoin="round" stroke-width="0.626"/>
      <rect id="Rectangle_315" data-name="Rectangle 315" width="7.181" height="11.01" transform="matrix(0.938, -0.346, 0.346, 0.938, 71.392, 93.312)" fill="#263238"/>
      <rect id="Rectangle_316" data-name="Rectangle 316" width="3.434" height="5.106" transform="matrix(0.938, -0.346, 0.346, 0.938, 73.729, 94.328)" fill="#fff"/>
      <rect id="Rectangle_317" data-name="Rectangle 317" width="1.515" height="3.352" transform="matrix(0.938, -0.346, 0.346, 0.938, 73.154, 89.778)" stroke-width="0.418" stroke="#263238" stroke-linecap="round" stroke-linejoin="round" fill="#fff"/>
      <line id="Line_55" data-name="Line 55" x2="6.102" y2="6.959" transform="translate(67.518 134.402)" fill="none" stroke="#263238" stroke-linecap="round" stroke-linejoin="round" stroke-width="0.835"/>
      <g id="Group_169" data-name="Group 169" transform="translate(102.327)" clip-path="url(#clip-path-3)">
        <path id="Path_500" data-name="Path 500" d="M260.52,156.172l-6.053,3.492-3.417-5.97,6.044-3.483Z" transform="translate(-232.645 -107.627)" fill="rgba(0,0,0,0)" stroke="#263238" stroke-linecap="round" stroke-linejoin="round" stroke-width="0.835"/>
        <path id="Path_501" data-name="Path 501" d="M256.812,146.948l-9.528,5.5-5.674-10.508,9.528-5.5Z" transform="translate(-230.979 -105.197)" fill="rgba(0,0,0,0)" stroke="#263238" stroke-linecap="round" stroke-linejoin="round" stroke-width="0.835"/>
        <circle id="Ellipse_39" data-name="Ellipse 39" cx="73.258" cy="73.258" r="73.258" transform="translate(-37.836 123.459) rotate(-45)" fill="#fff"/>
        <path id="Path_502" data-name="Path 502" d="M291.209,144.2a84.693,84.693,0,1,0,.008,0Zm0,157.822A73.291,73.291,0,1,1,364.5,228.732,73.291,73.291,0,0,1,291.209,302.022Z" transform="translate(-224.803 -106.566)" fill="#263238" stroke="#263238" stroke-linecap="round" stroke-linejoin="round" stroke-width="0.835"/>
        <path id="Path_503" data-name="Path 503" d="M366.229,166.2A82.119,82.119,0,0,0,337.67,151.12" transform="translate(-247.934 -107.788)" fill="rgba(0,0,0,0)" stroke="#fff" stroke-linecap="round" stroke-linejoin="round" stroke-width="1.67"/>
        <path id="Path_504" data-name="Path 504" d="M326.258,148.561a83.632,83.632,0,0,0-9.058-1.211" transform="translate(-244.321 -107.122)" fill="rgba(0,0,0,0)" stroke="#fff" stroke-linecap="round" stroke-linejoin="round" stroke-width="1.67"/>
        <path id="Path_505" data-name="Path 505" d="M383.887,281.947a76.511,76.511,0,0,0-1.647-92.577" transform="translate(-255.801 -114.539)" fill="rgba(0,0,0,0)" stroke="#fff" stroke-linecap="round" stroke-linejoin="round" stroke-width="0.835"/>
        <path id="Path_506" data-name="Path 506" d="M371.26,314.606a75.163,75.163,0,0,0,6.769-6.876" transform="translate(-253.863 -135.431)" fill="rgba(0,0,0,0)" stroke="#fff" stroke-linecap="round" stroke-linejoin="round" stroke-width="0.835"/>
        <path id="Path_507" data-name="Path 507" d="M271.59,329.544a76.585,76.585,0,0,0,79.055-10.294" transform="translate(-236.27 -137.464)" fill="rgba(0,0,0,0)" stroke="#fff" stroke-linecap="round" stroke-linejoin="round" stroke-width="0.835"/>
        <path id="Path_508" data-name="Path 508" d="M258.34,324.5a75.819,75.819,0,0,0,7.09,4.117" transform="translate(-233.932 -138.391)" fill="rgba(0,0,0,0)" stroke="#fff" stroke-linecap="round" stroke-linejoin="round" stroke-width="0.835"/>
        <path id="Path_509" data-name="Path 509" d="M248.38,316.94a76.2,76.2,0,0,0,6.028,4.735" transform="translate(-232.174 -137.056)" fill="rgba(0,0,0,0)" stroke="#fff" stroke-linecap="round" stroke-linejoin="round" stroke-width="0.835"/>
        <path id="Path_510" data-name="Path 510" d="M271.8,157.63a76.486,76.486,0,0,0-31.079,129.362" transform="translate(-226.543 -108.937)" fill="rgba(0,0,0,0)" stroke="#fff" stroke-linecap="round" stroke-linejoin="round" stroke-width="0.835"/>
        <path id="Path_511" data-name="Path 511" d="M360.127,176.429A76.585,76.585,0,0,0,290.74,155.57" transform="translate(-239.651 -108.302)" fill="rgba(0,0,0,0)" stroke="#fff" stroke-linecap="round" stroke-linejoin="round" stroke-width="0.835"/>
        <path id="Path_789" data-name="Path 789" d="M0,0H22V5.962H0Z" transform="translate(55.363 149.283)" fill="#644536"/>
        <path id="Path_512" data-name="Path 512" d="M314.164,236.97a6.135,6.135,0,0,0-5.039-6.036l-.651-40.244h-.914l-.642,40.244a6.135,6.135,0,0,0-.189,12.039l-.231,14.279h3.047l-.231-14.279a6.151,6.151,0,0,0,4.85-6Zm-6.143,3.294a3.294,3.294,0,1,1,3.294-3.294A3.294,3.294,0,0,1,308.021,240.264Z" transform="translate(-241.615 -114.772)" fill="#263238"/>
        <circle id="Ellipse_40" data-name="Ellipse 40" cx="3.385" cy="3.385" r="3.385" transform="translate(63.022 118.813)" fill="#644536"/>
        <line id="Line_56" data-name="Line 56" y2="12.196" transform="translate(66.406 53.049)" fill="none" stroke="#263238" stroke-linecap="round" stroke-linejoin="round" stroke-width="3.34"/>
        <line id="Line_57" data-name="Line 57" y2="12.196" transform="translate(66.406 179.571)" fill="none" stroke="#263238" stroke-linecap="round" stroke-linejoin="round" stroke-width="3.34"/>
        <line id="Line_58" data-name="Line 58" x2="6.094" y2="10.557" transform="translate(31.729 62.347)" fill="none" stroke="#263238" stroke-linecap="round" stroke-linejoin="round" stroke-width="3.34"/>
        <line id="Line_59" data-name="Line 59" x2="6.094" y2="10.565" transform="translate(94.99 171.912)" fill="none" stroke="#263238" stroke-linecap="round" stroke-linejoin="round" stroke-width="3.34"/>
        <line id="Line_60" data-name="Line 60" x2="10.557" y2="6.102" transform="translate(6.341 87.727)" fill="none" stroke="#263238" stroke-linecap="round" stroke-linejoin="round" stroke-width="3.34"/>
        <line id="Line_61" data-name="Line 61" x2="10.565" y2="6.102" transform="translate(115.907 150.987)" fill="none" stroke="#263238" stroke-linecap="round" stroke-linejoin="round" stroke-width="3.34"/>
        <line id="Line_62" data-name="Line 62" x1="12.196" transform="translate(123.565 122.412)" fill="none" stroke="#263238" stroke-linecap="round" stroke-linejoin="round" stroke-width="3.34"/>
        <line id="Line_63" data-name="Line 63" x1="12.196" transform="translate(-2.956 122.412)" fill="none" stroke="#263238" stroke-linecap="round" stroke-linejoin="round" stroke-width="3.34"/>
        <line id="Line_64" data-name="Line 64" x1="12.196" transform="translate(123.565 122.412)" fill="none" stroke="#263238" stroke-linecap="round" stroke-linejoin="round" stroke-width="3.34"/>
        <line id="Line_65" data-name="Line 65" x1="12.196" transform="translate(-2.956 122.412)" fill="none" stroke="#263238" stroke-linecap="round" stroke-linejoin="round" stroke-width="3.34"/>
        <line id="Line_66" data-name="Line 66" x1="10.565" y2="6.102" transform="translate(115.907 87.727)" fill="none" stroke="#263238" stroke-linecap="round" stroke-linejoin="round" stroke-width="3.34"/>
        <line id="Line_67" data-name="Line 67" x1="10.557" y2="6.102" transform="translate(6.341 150.987)" fill="none" stroke="#263238" stroke-linecap="round" stroke-linejoin="round" stroke-width="3.34"/>
        <line id="Line_68" data-name="Line 68" x1="6.094" y2="10.557" transform="translate(94.99 62.347)" fill="none" stroke="#263238" stroke-linecap="round" stroke-linejoin="round" stroke-width="3.34"/>
        <line id="Line_69" data-name="Line 69" x1="6.094" y2="10.565" transform="translate(31.729 171.912)" fill="none" stroke="#263238" stroke-linecap="round" stroke-linejoin="round" stroke-width="3.34"/>
        <rect id="Rectangle_319" data-name="Rectangle 319" width="6.983" height="6.176" transform="translate(62.915 34.974)" stroke-width="0.835" stroke="#263238" stroke-linecap="round" stroke-linejoin="round" fill="rgba(0,0,0,0)"/>
        <rect id="Rectangle_320" data-name="Rectangle 320" width="11.002" height="16.149" transform="translate(60.906 18.471)" stroke-width="0.835" stroke="#263238" stroke-linecap="round" stroke-linejoin="round" fill="rgba(0,0,0,0)"/>
        <rect id="Rectangle_321" data-name="Rectangle 321" width="15.926" height="11.002" transform="translate(58.27 7.107)" fill="#644536"/>
        <line id="Line_70" data-name="Line 70" y1="6.596" transform="translate(60.214 7.354)" fill="none" stroke="#263238" stroke-linecap="round" stroke-linejoin="round" stroke-width="0.835"/>
        <line id="Line_71" data-name="Line 71" y1="2.841" transform="translate(60.214 15.473)" fill="none" stroke="#263238" stroke-linecap="round" stroke-linejoin="round" stroke-width="0.835"/>
        <line id="Line_72" data-name="Line 72" y1="10.961" transform="translate(62.24 7.354)" fill="none" stroke="#263238" stroke-linecap="round" stroke-linejoin="round" stroke-width="0.835"/>
        <line id="Line_73" data-name="Line 73" y1="2.742" transform="translate(64.265 7.354)" fill="none" stroke="#263238" stroke-linecap="round" stroke-linejoin="round" stroke-width="0.835"/>
        <line id="Line_74" data-name="Line 74" y1="6.901" transform="translate(64.265 11.414)" fill="none" stroke="#263238" stroke-linecap="round" stroke-linejoin="round" stroke-width="0.835"/>
        <line id="Line_75" data-name="Line 75" y1="10.961" transform="translate(67.617 7.354)" fill="none" stroke="#263238" stroke-linecap="round" stroke-linejoin="round" stroke-width="0.835"/>
      </g>
      <path id="Path_514" data-name="Path 514" d="M168.13,212.74l5.921.412-.2-2.248S168.542,210.492,168.13,212.74Z" transform="translate(-115.682 -118.335)" fill="#92e3a9" opacity="0.3"/>
      <g id="Group_170" data-name="Group 170" transform="translate(29.454 93.219)" clip-path="url(#clip-path-4)">
        <path id="Path_515" data-name="Path 515" d="M146.931,258.5l12.089-8.013-15.44,5.888s-1.4-31.5-.346-33.944,7.7-7,7.7-7-.4-2.536,1.746-3.5a6.506,6.506,0,0,1,4.554,0l1.523.576a50.236,50.236,0,0,1-8.943-7.057h-.1l1.054,1.013-.461,4.117-4.628,3.78c-1.046,1.054-5,6.077-5,6.077l-.231,41.718,6.283-4.043Z" transform="translate(-140.25 -210.597)" fill="#cecece" opacity="0.3"/>
      </g>
      <path id="Path_517" data-name="Path 517" d="M150.223,211.7s-9.627,7.8-9.627,9.882-.692,40.8-.231,41.718,18.611-11.71,18.611-11.71l-1.836-16.733" transform="translate(-110.753 -118.481)" fill="rgba(0,0,0,0)" stroke="#263238" stroke-linecap="round" stroke-linejoin="round" stroke-width="0.835"/>
      <line id="Line_76" data-name="Line 76" x2="19.484" y2="15.589" transform="translate(41.306 112.25)" fill="none" stroke="#263238" stroke-linecap="round" stroke-linejoin="round" stroke-width="0.835"/>
      <g id="Group_171" data-name="Group 171" transform="translate(54.499 59.036)" clip-path="url(#clip-path-5)">
        <path id="Path_518" data-name="Path 518" d="M244.258,180.228l-11.735-3.607-38.251-6.431-9.693,10.631s8.4-5.246,10.845-5.246,39.338,10.491,42.822,11.471Z" transform="translate(-173.084 -170.19)" fill="#cecece" opacity="0.3"/>
      </g>
      <path id="Path_520" data-name="Path 520" d="M170.62,188.15s18.9-17.96,21.188-17.96,40.112,7.56,42.863,8.021,7.337,1.375,7.337,1.375-8.021,10.088-10.771,13.522-4.117,5.5-4.117,5.5L196.173,184.4" transform="translate(-115.121 -111.154)" fill="rgba(0,0,0,0)" stroke="#263238" stroke-linecap="round" stroke-linejoin="round" stroke-width="0.835"/>
      <line id="Line_77" data-name="Line 77" x2="7.798" y2="20.628" transform="translate(85.314 76.717)" fill="none" stroke="#263238" stroke-linecap="round" stroke-linejoin="round" stroke-width="0.835"/>
      <path id="Path_521" data-name="Path 521" d="M176.781,227.177l-1.836,1.836L166.01,217.55" transform="translate(-115.308 -119.513)" fill="rgba(0,0,0,0)" stroke="#263238" stroke-linecap="round" stroke-linejoin="round" stroke-width="0.835"/>
      <path id="Path_522" data-name="Path 522" d="M197.37,192.309l9.067-1.589-7.708,5.435" transform="translate(-120.843 -114.778)" fill="rgba(0,0,0,0)" stroke="#263238" stroke-linecap="round" stroke-linejoin="round" stroke-width="0.418"/>
      <line id="Line_78" data-name="Line 78" x1="11.512" y1="1.688" transform="translate(34.834 114.688)" fill="none" stroke="#263238" stroke-linecap="round" stroke-linejoin="round" stroke-width="0.418"/>
      <path id="Path_523" data-name="Path 523" d="M152.783,206.69a9.421,9.421,0,0,0-.231,6.423c1.145,3.434,5.04,9.4,5.04,9.4l5.04-7.107" transform="translate(-112.852 -117.596)" fill="rgba(0,0,0,0)" stroke="#263238" stroke-linecap="round" stroke-linejoin="round" stroke-width="0.835"/>
      <path id="Path_524" data-name="Path 524" d="M166.25,209.857s2.528-2.289,4.817-2.289h3.9s-.684-8.943-3.9-13.761-7.568-2.289-7.568-2.289" transform="translate(-114.865 -114.801)" fill="rgba(0,0,0,0)" stroke="#263238" stroke-linecap="round" stroke-linejoin="round" stroke-width="0.835"/>
      <path id="Path_525" data-name="Path 525" d="M159.62,256.726l27.513-12.838,2.289-8.021,9.4-2.042s1.836-1.836,1.606,0-2.75,2.52-3.665,4.356-.922,5.5-2.067,7.107-5.27,3.442-5.27,3.442-30.947,25.9-33.236,27.274-6.876-11.694-6.876-11.694" transform="translate(-112.36 -122.242)" fill="#fff"/>
      <g id="Group_172" data-name="Group 172" transform="translate(36.95 110.767)" clip-path="url(#clip-path-6)">
        <path id="Path_526" data-name="Path 526" d="M148.32,267.842c1.062,1.7,5.4,8.762,5.707,11.529.354,3.154,3.154,0,3.154,0l25.2-20.991s-24.853,15.737-26.912,15.037-2.47-5.946-2.47-5.946l7.411-7.642Z" transform="translate(-149.135 -237.487)" fill="#cecece" opacity="0.3"/>
      </g>
      <path id="Path_528" data-name="Path 528" d="M159.62,256.726l27.513-12.838,2.289-8.021,9.4-2.042s1.836-1.836,1.606,0-2.75,2.52-3.665,4.356-.922,5.5-2.067,7.107-5.27,3.442-5.27,3.442-30.947,25.9-33.236,27.274-6.876-11.694-6.876-11.694" transform="translate(-112.36 -122.242)" fill="rgba(0,0,0,0)" stroke="#263238" stroke-linecap="round" stroke-linejoin="round" stroke-width="0.835"/>
      <path id="Path_529" data-name="Path 529" d="M208.558,234s-4.488,2.676-4.035,3.582" transform="translate(-122.1 -122.417)" fill="rgba(0,0,0,0)" stroke="#263238" stroke-linecap="round" stroke-linejoin="round" stroke-width="0.418"/>
      <line id="Line_79" data-name="Line 79" x1="3.401" y2="1.812" transform="translate(79.475 112.423)" fill="none" stroke="#263238" stroke-linecap="round" stroke-linejoin="round" stroke-width="0.418"/>
    </g>
  </g>
</svg>
