<svg width="303" height="86" viewBox="0 0 303 86" fill="none" xmlns="http://www.w3.org/2000/svg">
<g clip-path="url(#clip0_79:285)">
<path d="M0 3.365L0.0209999 6.75102L3.121 3.53102C4.821 1.76502 6.221 0.249 6.237 0.145C5.20359 -0.00190628 4.15858 -0.0504461 3.116 1.14385e-05H0V3.365Z" fill="white"/>
<path d="M47.882 1.86996C48.5047 2.53655 49.1709 3.16124 49.876 3.73996C49.976 3.73996 50.291 2.95097 51.268 0.249969C51.33 0.0629695 50.728 0.000976562 48.692 0.000976562H46.012L47.882 1.86996Z" fill="white"/>
<path d="M57.873 4.819C56.897 7.478 56.087 9.763 56.087 9.867C56.325 10.3027 56.6421 10.6903 57.022 11.01L57.957 11.945L63.94 5.96201L69.901 0H59.66L57.873 4.819Z" fill="white"/>
<path d="M70.981 8.47601L62.734 16.722L63.752 17.74L64.77 18.74L71.916 16.102C75.821 14.648 79.103 13.381 79.207 13.318C79.29 13.235 79.332 10.244 79.307 6.69101L79.248 0.208008L70.981 8.47601Z" fill="white"/>
<path d="M29.394 7.41593C27.694 7.56093 23.723 8.14294 22.227 8.43394C16.037 9.70094 11.28 15.2479 11.197 21.2919C11.1344 22.9987 11.2737 24.7069 11.612 26.381C12.0443 25.9384 12.4452 25.4662 12.812 24.9679C15.762 21.1679 18.649 18.9229 23.759 16.4299C30.531 13.1299 36.701 11.735 41.291 12.462C45.0871 13.1121 48.5309 15.0841 51.013 18.0289C52.6262 20.3764 53.8926 22.9441 54.773 25.653C55.0843 27.0848 55.203 28.5517 55.126 30.015C55.126 32.757 55.084 33.027 54.482 34.627C52.654 39.446 48.541 43.327 41.894 46.527C38.4019 48.3742 34.5412 49.4176 30.594 49.5809C29.306 49.6429 28.247 49.726 28.247 49.747C28.247 49.976 30.532 55.273 31.114 56.394C32.1868 58.3611 33.783 59.993 35.726 61.109C38.883 62.609 42.726 62.3089 47.733 60.2369C50.5593 59.0223 53.2188 57.4516 55.647 55.5629C59.241 52.6549 61.858 48.043 61.9 44.553L61.921 43.7219L63.458 45.3219C64.6445 46.4903 65.5779 47.8903 66.2 49.4349L67.4 51.9689L67.753 49.518C68.2695 46.4722 68.4022 43.3737 68.148 40.295C66.756 25.695 59.07 14.765 46.627 9.69495C42.3481 7.99515 37.7685 7.18237 33.166 7.30595C31.554 7.33295 29.851 7.37393 29.394 7.41593Z" fill="white"/>
<path d="M4.632 17.2829L0 21.9149V37.8709C0 48.2989 0.0620002 53.8039 0.208 53.8039C0.437 53.8039 9.12 50.5629 9.265 50.4389C9.307 50.3769 9.327 41.8599 9.307 31.5149L9.244 12.6709L4.632 17.2829Z" fill="white"/>
<path d="M32.301 22.1021C27.689 23.1611 23.801 25.7171 22.517 28.5211C21.977 29.6841 21.917 30.0211 21.917 32.0941C21.8487 33.3948 22.0181 34.6971 22.417 35.9371C23.1178 38.053 23.9717 40.1152 24.972 42.1071C25.844 43.2071 35.172 40.1961 38.952 37.5991C42.052 35.4591 43.501 32.5301 42.961 29.4991C42.668 28.0504 42.07 26.6807 41.2069 25.4808C40.3438 24.281 39.2353 23.2786 37.955 22.5401C36.1592 21.8203 34.1862 21.6674 32.301 22.1021V22.1021Z" fill="white"/>
<path d="M74.7 53.615C72.311 54.508 70.317 55.298 70.255 55.339C70.213 55.401 70.172 59.12 70.193 63.586L70.235 71.75L63.214 78.771L56.193 85.792H66.164L72.77 79.186L79.355 72.601V62.253C79.355 56.582 79.293 51.929 79.21 51.953C79.104 51.973 77.091 52.701 74.7 53.615Z" fill="white"/>
<path d="M4.528 61.3631L0 63.0461V75.7181L4.674 71.0441L9.348 66.3701V63.0051C9.39854 61.8813 9.34901 60.7552 9.2 59.6401C9.1 59.6601 7 60.4291 4.528 61.3631Z" fill="white"/>
<path d="M18.176 61.9241C17.781 62.3391 17.802 62.4021 18.238 65.1441C18.4492 66.5255 18.7475 67.8922 19.131 69.2361C19.8696 71.2322 21.0347 73.0433 22.545 74.5429C24.0554 76.0426 25.8746 77.1947 27.876 77.9191C28.8548 78.2111 29.8548 78.4264 30.867 78.5631C32.3434 78.7619 33.844 78.6842 35.292 78.3341C45.554 76.6341 51.931 73.7641 57.623 68.3421C59.368 66.6591 59.742 66.0571 59.409 65.4341C58.973 64.6241 58.433 64.5411 57.477 65.0811C55.1967 66.495 52.8071 67.7246 50.331 68.7581C45.8589 70.7468 41.0362 71.8271 36.143 71.9361C29.163 71.9151 24.199 69.2981 21.062 63.9591C19.774 61.7361 19.562 61.4871 19.026 61.4871C18.6964 61.5159 18.3912 61.6728 18.176 61.9241V61.9241Z" fill="white"/>
<path d="M76.32 82.386C74.72 84.048 73.349 85.543 73.266 85.71C73.121 85.959 73.619 86.001 76.237 86.001H79.353V82.677C79.353 80.849 79.311 79.353 79.27 79.353C79.229 79.353 77.898 80.724 76.32 82.386Z" fill="white"/>
</g>
<path d="M253.224 40.9515L250.232 38.7755H258.12V41.7675C262.472 35.2398 280.424 35.7834 280.424 45.5755V66.5195L282.6 68.9675H272.264L274.984 66.5195V45.5755C273.243 34.4779 263.016 38.4129 258.12 41.7675V66.5195L260.568 68.9675H250.232L253.224 66.5195V40.9515Z" fill="white"/>
<path d="M287.496 28.9839L285.32 26.8079H293.208V37.9599H299.192V39.5919H293.208V63.5279C294.024 66.3385 297.125 70.8718 303 66.5195C295.819 74.3529 289.672 67.245 287.496 62.7119V39.5919H283.416V37.9599H287.496V28.9839Z" fill="white"/>
<path d="M238.264 68.9675L237.448 67.0639V47.4799C234.456 33.0639 226.296 39.3199 221.128 41.7675C233.096 32.1929 240.44 40.1356 242.616 45.3039V67.0639L245.608 68.9675H238.264Z" fill="white"/>
<path d="M236.772 49.0141C236.915 49.1389 237.05 49.2625 237.176 49.3839C237.108 49.3839 236.972 49.2441 236.772 49.0141C233.906 46.5275 227.538 43.5822 221.944 49.3839C220.584 51.2879 219.496 52.3759 219.224 56.7279C218.952 61.0799 224.12 75.2239 237.176 65.9759C237.176 67.0639 234.728 68.6959 232.824 69.5119C230.92 70.3279 222.488 71.6879 217.864 65.9759C213.24 60.2639 214.6 57.5439 214.328 56.7279C214.056 55.9119 217.048 45.8479 224.12 45.3039C231.192 44.7599 232.008 45.0319 233.368 45.8479C234.999 46.8267 236.172 48.3253 236.772 49.0141Z" fill="white"/>
<path d="M165.151 36.178C172.984 36.178 174.399 45.6073 174.127 50.322H178.479C178.479 43.794 176.704 41.074 175.759 39.986C166.783 29.65 156.719 37.266 154.543 39.442C153.455 40.53 151.279 44.61 151.007 45.426C150.735 46.242 149.919 50.866 150.191 54.402C150.463 57.938 152.367 60.93 153.455 62.562C154.543 64.194 157.535 66.37 159.711 67.458C161.887 68.546 165.695 68.274 167.055 68.002C168.415 67.73 169.775 67.73 175.759 64.194C158.568 72.898 155.177 58.5726 155.631 50.322C155.54 45.6073 157.317 36.178 165.151 36.178Z" fill="white"/>
<path d="M155.576 50.4722H178.424" stroke="white" stroke-width="2"/>
<path d="M99 68.696L101.448 66.792V25.448L101.123 25.1232L99 23H129.464V29.256L126.472 23.816H106.616V44.76H121.304L123.48 42.584V48.568L121.304 46.392H106.616V67.88H127.832L131.096 61.352V68.696H99Z" fill="white"/>
<path d="M142.792 23H135.176L137.896 25.448V66.792L135.992 68.968H145.24L142.792 66.792V23Z" fill="white"/>
<path d="M207.425 31.3171L183.217 58.7891C183.217 58.9704 185.502 59.3874 194.641 59.605C206.065 59.877 205.521 64.229 204.705 70.213C203.889 76.197 196.001 77.557 192.193 77.557C188.385 78.101 185.393 74.565 184.033 73.205C182.945 72.117 182.492 70.0317 182.401 69.125C182.311 69.669 182.456 70.9746 182.673 71.845C182.945 72.933 193.009 85.173 206.065 75.109C217.209 66.5191 204.433 57.973 197.905 57.973H185.393C191.74 50.7197 205.141 35.5602 207.969 32.949C211.505 29.685 213.137 33.4931 214.225 33.4931C214.225 26.9651 209.692 29.3224 207.425 31.3171Z" fill="white"/>
<path fill-rule="evenodd" clip-rule="evenodd" d="M194.978 31.1809C190.991 31.1809 182.487 34.7916 182.487 42.6879C182.487 52.5583 189.834 55.3001 194.588 55.8485C199.342 56.3968 208.417 52.2842 207.985 42.6879C207.553 33.0917 198.964 31.1809 194.978 31.1809ZM194.978 31.9783C192.586 31.9783 187.536 35.2206 187.536 42.8745C187.536 52.4419 192.054 55.0995 194.978 55.631C197.901 56.1625 203.482 52.1761 203.216 42.8745C202.951 33.5728 197.37 31.9783 194.978 31.9783Z" fill="white"/>
<defs>
<clipPath id="clip0_79:285">
<rect width="79.353" height="86" fill="white"/>
</clipPath>
</defs>
</svg>
