<svg xmlns="http://www.w3.org/2000/svg" width="79.353" height="86" viewBox="0 0 79.353 86">
  <g id="image0_1_" data-name="image0 (1)" transform="translate(-25 436)">
    <path id="Path_426" data-name="Path 426" d="M25-432.635l.021,3.386,3.1-3.22c1.7-1.766,3.1-3.282,3.116-3.386A16.506,16.506,0,0,0,28.116-436H25Z" fill="#fff"/>
    <path id="Path_427" data-name="Path 427" d="M248.37-434.13a20.7,20.7,0,0,0,1.994,1.87c.1,0,.415-.789,1.392-3.49.062-.187-.54-.249-2.576-.249H246.5Z" transform="translate(-175.488)" fill="#fff"/>
    <path id="Path_428" data-name="Path 428" d="M296.786-431.181c-.976,2.659-1.786,4.944-1.786,5.048a4,4,0,0,0,.935,1.143l.935.935,5.983-5.983L308.814-436H298.573Z" transform="translate(-213.913)" fill="#fff"/>
    <path id="Path_429" data-name="Path 429" d="M335.247-426.732,327-418.486l1.018,1.018,1.018,1,7.146-2.638c3.905-1.454,7.187-2.721,7.291-2.784.083-.083.125-3.074.1-6.627L343.514-435Z" transform="translate(-239.266 -0.792)" fill="#fff"/>
    <path id="Path_430" data-name="Path 430" d="M97.081-400.709c-1.7.145-5.671.727-7.167,1.018-6.19,1.267-10.947,6.814-11.03,12.858a21.681,21.681,0,0,0,.415,5.089,13.341,13.341,0,0,0,1.2-1.413c2.95-3.8,5.837-6.045,10.947-8.538,6.772-3.3,12.942-4.695,17.532-3.968a16.317,16.317,0,0,1,9.722,5.567,29.632,29.632,0,0,1,3.76,7.624,16.458,16.458,0,0,1,.353,4.362c0,2.742-.042,3.012-.644,4.612-1.828,4.819-5.941,8.7-12.588,11.9a26.511,26.511,0,0,1-11.3,3.054c-1.288.062-2.347.145-2.347.166,0,.229,2.285,5.526,2.867,6.647a12.141,12.141,0,0,0,4.612,4.715c3.157,1.5,7,1.2,12.007-.872a36.118,36.118,0,0,0,7.914-4.674c3.594-2.908,6.211-7.52,6.253-11.01l.021-.831,1.537,1.6a12.135,12.135,0,0,1,2.742,4.113l1.2,2.534.353-2.451a36.968,36.968,0,0,0,.395-9.223c-1.392-14.6-9.078-25.53-21.521-30.6a33.99,33.99,0,0,0-13.461-2.389C99.241-400.792,97.538-400.751,97.081-400.709Z" transform="translate(-42.687 -27.875)" fill="#fff"/>
    <path id="Path_431" data-name="Path 431" d="M29.632-370.388,25-365.756V-349.8c0,10.428.062,15.933.208,15.933.229,0,8.912-3.241,9.057-3.365.042-.062.062-8.579.042-18.924L34.244-375Z" transform="translate(0 -48.329)" fill="#fff"/>
    <path id="Path_432" data-name="Path 432" d="M140.886-330.495c-4.612,1.059-8.5,3.615-9.784,6.419-.54,1.163-.6,1.5-.6,3.573a10.714,10.714,0,0,0,.5,3.843,45.927,45.927,0,0,0,2.555,6.17c.872,1.1,10.2-1.911,13.98-4.508,3.1-2.14,4.549-5.069,4.009-8.1a10.418,10.418,0,0,0-5.006-6.959A9.475,9.475,0,0,0,140.886-330.495Z" transform="translate(-83.585 -83.403)" fill="#fff"/>
    <path id="Path_433" data-name="Path 433" d="M314.009-184.238c-2.389.893-4.383,1.683-4.445,1.724-.042.062-.083,3.781-.062,8.247l.042,8.164-7.021,7.021-7.021,7.021h9.971l6.606-6.606,6.585-6.585V-175.6c0-5.671-.062-10.324-.145-10.3C318.413-185.88,316.4-185.152,314.009-184.238Z" transform="translate(-214.309 -198.147)" fill="#fff"/>
    <path id="Path_434" data-name="Path 434" d="M29.528-147.177,25-145.494v12.672l4.674-4.674,4.674-4.674v-3.365A18.971,18.971,0,0,0,34.2-148.9C34.1-148.88,32-148.111,29.528-147.177Z" transform="translate(0 -227.46)" fill="#fff"/>
    <path id="Path_435" data-name="Path 435" d="M111.427-139.564c-.395.415-.374.478.062,3.22a33.2,33.2,0,0,0,.893,4.092,14.635,14.635,0,0,0,8.745,8.683,19.664,19.664,0,0,0,2.991.644,12.009,12.009,0,0,0,4.425-.229c10.262-1.7,16.639-4.57,22.331-9.992,1.745-1.683,2.119-2.285,1.786-2.908-.436-.81-.976-.893-1.932-.353a50.393,50.393,0,0,1-7.146,3.677,36.942,36.942,0,0,1-14.188,3.178c-6.98-.021-11.944-2.638-15.081-7.977-1.288-2.223-1.5-2.472-2.036-2.472A1.264,1.264,0,0,0,111.427-139.564Z" transform="translate(-68.251 -234.512)" fill="#fff"/>
    <path id="Path_436" data-name="Path 436" d="M380.667-50.967c-1.6,1.662-2.971,3.157-3.054,3.324-.145.249.353.291,2.971.291H383.7v-3.324c0-1.828-.042-3.324-.083-3.324S382.245-52.629,380.667-50.967Z" transform="translate(-279.347 -302.647)" fill="#fff"/>
  </g>
</svg>
