<svg width="406" height="106" viewBox="0 0 406 106" fill="none" xmlns="http://www.w3.org/2000/svg">
<g clip-path="url(#clip0_39:81)">
<path d="M0 3.365L0.0209999 6.75102L3.121 3.53102C4.821 1.76502 6.221 0.249 6.237 0.145C5.20359 -0.00190628 4.15858 -0.0504461 3.116 1.14385e-05H0V3.365Z" fill="#A7A8AC"/>
<path d="M47.882 1.86996C48.5047 2.53655 49.1709 3.16124 49.876 3.73996C49.976 3.73996 50.291 2.95097 51.268 0.249969C51.33 0.0629695 50.728 0.000976562 48.692 0.000976562H46.012L47.882 1.86996Z" fill="#A7A8AC"/>
<path d="M57.873 4.819C56.897 7.478 56.087 9.763 56.087 9.867C56.325 10.3027 56.6421 10.6903 57.022 11.01L57.957 11.945L63.94 5.96201L69.901 0H59.66L57.873 4.819Z" fill="#A7A8AC"/>
<path d="M70.981 8.47601L62.734 16.722L63.752 17.74L64.77 18.74L71.916 16.102C75.821 14.648 79.103 13.381 79.207 13.318C79.29 13.235 79.332 10.244 79.307 6.69101L79.248 0.208008L70.981 8.47601Z" fill="#A7A8AC"/>
<path d="M29.394 7.41593C27.694 7.56093 23.723 8.14294 22.227 8.43394C16.037 9.70094 11.28 15.2479 11.197 21.2919C11.1344 22.9987 11.2737 24.7069 11.612 26.381C12.0443 25.9384 12.4452 25.4662 12.812 24.9679C15.762 21.1679 18.649 18.9229 23.759 16.4299C30.531 13.1299 36.701 11.735 41.291 12.462C45.0871 13.1121 48.5309 15.0841 51.013 18.0289C52.6262 20.3764 53.8926 22.9441 54.773 25.653C55.0843 27.0848 55.203 28.5517 55.126 30.015C55.126 32.757 55.084 33.027 54.482 34.627C52.654 39.446 48.541 43.327 41.894 46.527C38.4019 48.3742 34.5412 49.4176 30.594 49.5809C29.306 49.6429 28.247 49.726 28.247 49.747C28.247 49.976 30.532 55.273 31.114 56.394C32.1868 58.3611 33.783 59.993 35.726 61.109C38.883 62.609 42.726 62.3089 47.733 60.2369C50.5593 59.0223 53.2188 57.4516 55.647 55.5629C59.241 52.6549 61.858 48.043 61.9 44.553L61.921 43.7219L63.458 45.3219C64.6445 46.4903 65.5779 47.8903 66.2 49.4349L67.4 51.9689L67.753 49.518C68.2695 46.4722 68.4022 43.3737 68.148 40.295C66.756 25.695 59.07 14.765 46.627 9.69495C42.3481 7.99515 37.7685 7.18237 33.166 7.30595C31.554 7.33295 29.851 7.37393 29.394 7.41593Z" fill="black"/>
<path d="M4.632 17.2829L0 21.9149V37.8709C0 48.2989 0.0620002 53.8039 0.208 53.8039C0.437 53.8039 9.12 50.5629 9.265 50.4389C9.307 50.3769 9.327 41.8599 9.307 31.5149L9.244 12.6709L4.632 17.2829Z" fill="#A7A8AC"/>
<path d="M32.301 22.1021C27.689 23.1611 23.801 25.7171 22.517 28.5211C21.977 29.6841 21.917 30.0211 21.917 32.0941C21.8487 33.3948 22.0181 34.6971 22.417 35.9371C23.1178 38.053 23.9717 40.1152 24.972 42.1071C25.844 43.2071 35.172 40.1961 38.952 37.5991C42.052 35.4591 43.501 32.5301 42.961 29.4991C42.668 28.0504 42.07 26.6807 41.2069 25.4808C40.3438 24.281 39.2353 23.2786 37.955 22.5401C36.1592 21.8203 34.1862 21.6674 32.301 22.1021V22.1021Z" fill="black"/>
<path d="M74.7 53.615C72.311 54.508 70.317 55.298 70.255 55.339C70.213 55.401 70.172 59.12 70.193 63.586L70.235 71.75L63.214 78.771L56.193 85.792H66.164L72.77 79.186L79.355 72.601V62.253C79.355 56.582 79.293 51.929 79.21 51.953C79.104 51.973 77.091 52.701 74.7 53.615Z" fill="#A7A8AC"/>
<path d="M4.528 61.3631L0 63.0461V75.7181L4.674 71.0441L9.348 66.3701V63.0051C9.39854 61.8813 9.34901 60.7552 9.2 59.6401C9.1 59.6601 7 60.4291 4.528 61.3631Z" fill="#A7A8AC"/>
<path d="M18.176 61.9241C17.781 62.3391 17.802 62.4021 18.238 65.1441C18.4492 66.5255 18.7475 67.8922 19.131 69.2361C19.8696 71.2322 21.0347 73.0433 22.545 74.5429C24.0554 76.0426 25.8746 77.1947 27.876 77.9191C28.8548 78.2111 29.8548 78.4264 30.867 78.5631C32.3434 78.7619 33.844 78.6842 35.292 78.3341C45.554 76.6341 51.931 73.7641 57.623 68.3421C59.368 66.6591 59.742 66.0571 59.409 65.4341C58.973 64.6241 58.433 64.5411 57.477 65.0811C55.1967 66.495 52.8071 67.7246 50.331 68.7581C45.8589 70.7468 41.0362 71.8271 36.143 71.9361C29.163 71.9151 24.199 69.2981 21.062 63.9591C19.774 61.7361 19.562 61.4871 19.026 61.4871C18.6964 61.5159 18.3912 61.6728 18.176 61.9241V61.9241Z" fill="black"/>
<path d="M76.32 82.386C74.72 84.048 73.349 85.543 73.266 85.71C73.121 85.959 73.619 86.001 76.237 86.001H79.353V82.677C79.353 80.849 79.311 79.353 79.27 79.353C79.229 79.353 77.898 80.724 76.32 82.386Z" fill="#A7A8AC"/>
</g>
<path d="M329.872 36.4555L325.296 33.1275H337.36V37.7035C344.016 27.7199 371.472 28.5513 371.472 43.5275V75.5595L374.8 79.3035H358.992L363.152 75.5595V43.5275C360.49 26.5547 344.848 32.5728 337.36 37.7035V75.5595L341.104 79.3035H325.296L329.872 75.5595V36.4555Z" fill="black"/>
<path d="M382.288 18.152L378.96 14.824H391.024V31.88H400.176V34.376H391.024V70.984C392.272 75.2826 397.014 82.2159 406 75.5595C395.018 87.5398 385.616 76.669 382.288 69.736V34.376H376.048V31.88H382.288V18.152Z" fill="black"/>
<path d="M306.992 79.3035L305.744 76.392V46.44C301.168 24.392 288.688 33.96 280.784 37.7035C299.088 23.0599 310.32 35.2076 313.648 43.112V76.392L318.224 79.3035H306.992Z" fill="black"/>
<path d="M304.709 48.7865C304.929 48.9773 305.136 49.1664 305.328 49.352C305.224 49.352 305.015 49.1383 304.709 48.7865C300.326 44.9835 290.588 40.4789 282.032 49.352C279.952 52.264 278.288 53.928 277.872 60.584C277.456 67.24 285.36 88.872 305.328 74.728C305.328 76.392 301.584 78.888 298.672 80.136C295.76 81.384 282.864 83.464 275.792 74.728C268.72 65.992 270.8 61.832 270.384 60.584C269.968 59.336 274.544 43.944 285.36 43.112C296.176 42.28 297.424 42.696 299.504 43.944C301.999 45.441 303.793 47.7329 304.709 48.7865Z" fill="black"/>
<path d="M195.172 29.1548C207.153 29.1548 209.316 43.5761 208.9 50.7868H215.556C215.556 40.8028 212.841 36.6429 211.396 34.9789C197.668 19.1709 182.276 30.8188 178.948 34.1468C177.284 35.8108 173.956 42.0508 173.54 43.2988C173.124 44.5468 171.876 51.6188 172.292 57.0268C172.708 62.4348 175.62 67.0108 177.284 69.5068C178.948 72.0028 183.524 75.3308 186.852 76.9948C190.18 78.6588 196.004 78.2428 198.084 77.8268C200.164 77.4108 202.244 77.4108 211.396 72.0028C185.105 85.3148 179.918 63.4054 180.612 50.7868C180.473 43.5761 183.191 29.1548 195.172 29.1548Z" fill="black"/>
<path d="M180.528 51.0161H215.472" stroke="black" stroke-width="2"/>
<path d="M94 78.888L97.744 75.976V12.744L97.2473 12.2473L94 9H140.592V18.568L136.016 10.248H105.648V42.28H128.112L131.44 38.952V48.104L128.112 44.776H105.648V77.64H138.096L143.088 67.656V78.888H94Z" fill="black"/>
<path d="M160.976 9H149.328L153.488 12.744V75.976L150.576 79.304H164.72L160.976 75.976V9Z" fill="black"/>
<path d="M257.648 51.0161C257.648 60.1826 251.415 66.9841 242.928 66.9841C238.584 66.9841 235.221 65.261 232.887 62.5343C230.504 59.7501 229.04 55.7235 229.04 51.0161C229.04 46.3087 230.504 42.2821 232.887 39.4979C235.221 36.7712 238.584 35.0481 242.928 35.0481C251.415 35.0481 257.648 41.8496 257.648 51.0161Z" stroke="black" stroke-width="8"/>
<path d="M261.232 32.7121L224.208 74.7281C224.208 75.0054 227.702 75.6432 241.68 75.976C259.152 76.392 258.32 83.048 257.072 92.2C255.824 101.352 243.76 103.432 237.936 103.432C232.112 104.264 227.536 98.856 225.456 96.776C223.792 95.112 223.099 91.9226 222.96 90.536C222.821 91.368 223.043 93.3648 223.376 94.696C223.792 96.36 239.184 115.08 259.152 99.688C276.195 86.5504 256.656 73.48 246.672 73.48H227.536C237.243 62.3866 257.738 39.2016 262.064 35.208C267.472 30.216 269.968 36.0401 271.632 36.0401C271.632 26.0561 264.699 29.6614 261.232 32.7121Z" fill="black"/>
<defs>
<clipPath id="clip0_39:81">
<rect width="79.353" height="86" fill="white"/>
</clipPath>
</defs>
</svg>
