<svg width="849" height="846" viewBox="0 0 849 846" fill="none" xmlns="http://www.w3.org/2000/svg">
<g opacity="0.3">
<path opacity="0.3" d="M261.349 592.259C261.371 592.912 261.135 593.547 260.694 594.028C260.252 594.509 259.639 594.797 258.987 594.83C258.35 594.766 257.759 594.468 257.33 593.993C256.9 593.518 256.662 592.9 256.662 592.259C256.662 591.619 256.9 591.001 257.33 590.526C257.759 590.051 258.35 589.753 258.987 589.688C259.639 589.724 260.25 590.013 260.691 590.493C261.133 590.974 261.369 591.607 261.349 592.259Z" fill="#777474"/>
<g opacity="0.7">
<path opacity="0.7" d="M84.4495 391.831L420.285 8.83057" stroke="#777474" stroke-width="2" stroke-miterlimit="10" stroke-linecap="round" stroke-linejoin="round" stroke-dasharray="0.3 0.3"/>
<path opacity="0.7" d="M87.1594 423.077L444.096 15.3416" stroke="#777474" stroke-width="2" stroke-miterlimit="10" stroke-linecap="round" stroke-linejoin="round" stroke-dasharray="0.3 0.3"/>
<path opacity="0.7" d="M97.9224 444.821L464.964 25.2546" stroke="#777474" stroke-width="2" stroke-miterlimit="10" stroke-linecap="round" stroke-linejoin="round" stroke-dasharray="0.3 0.3"/>
<path opacity="0.7" d="M113.1 461.442L488.351 32.2637" stroke="#777474" stroke-width="2" stroke-miterlimit="10" stroke-linecap="round" stroke-linejoin="round" stroke-dasharray="0.3 0.3"/>
<path opacity="0.7" d="M124.908 481.981L511.929 39.0215" stroke="#777474" stroke-width="2" stroke-miterlimit="10" stroke-linecap="round" stroke-linejoin="round" stroke-dasharray="0.3 0.3"/>
<path opacity="0.7" d="M138.808 500.084L536.979 44.0945" stroke="#777474" stroke-width="2" stroke-miterlimit="10" stroke-linecap="round" stroke-linejoin="round" stroke-dasharray="0.3 0.3"/>
<path opacity="0.7" d="M152.593 518.329L556.106 56.0286" stroke="#777474" stroke-width="2" stroke-miterlimit="10" stroke-linecap="round" stroke-linejoin="round" stroke-dasharray="0.3 0.3"/>
<path opacity="0.7" d="M166.413 536.535L579.568 62.9526" stroke="#777474" stroke-width="2" stroke-miterlimit="10" stroke-linecap="round" stroke-linejoin="round" stroke-dasharray="0.3 0.3"/>
<path opacity="0.7" d="M180.624 554.24L598.618 75.0005" stroke="#777474" stroke-width="2" stroke-miterlimit="10" stroke-linecap="round" stroke-linejoin="round" stroke-dasharray="0.3 0.3"/>
<path opacity="0.7" d="M219.958 580.09L641.245 96.9604" stroke="#777474" stroke-width="2" stroke-miterlimit="10" stroke-linecap="round" stroke-linejoin="round" stroke-dasharray="0.3 0.3"/>
<path opacity="0.7" d="M207.493 591.587L632.418 104.187" stroke="#777474" stroke-width="2" stroke-miterlimit="10" stroke-linecap="round" stroke-linejoin="round" stroke-dasharray="0.3 0.3"/>
<path opacity="0.7" d="M222.594 608.243L650.074 117.905" stroke="#777474" stroke-width="2" stroke-miterlimit="10" stroke-linecap="round" stroke-linejoin="round" stroke-dasharray="0.3 0.3"/>
<path opacity="0.7" d="M235.37 627.683L647.712 155.035" stroke="#777474" stroke-width="2" stroke-miterlimit="10" stroke-linecap="round" stroke-linejoin="round" stroke-dasharray="0.3 0.3"/>
</g>
<g opacity="0.7">
<g opacity="0.7">
<path opacity="0.7" d="M282.024 611.445L617.86 228.445" stroke="#777474" stroke-width="2" stroke-miterlimit="10" stroke-linecap="round" stroke-linejoin="round" stroke-dasharray="0.3 0.3"/>
<path opacity="0.7" d="M285.083 640.333L642.021 232.604" stroke="#777474" stroke-width="2" stroke-miterlimit="10" stroke-linecap="round" stroke-linejoin="round" stroke-dasharray="0.3 0.3"/>
<path opacity="0.7" d="M295.885 662.077L662.927 242.514" stroke="#777474" stroke-width="2" stroke-miterlimit="10" stroke-linecap="round" stroke-linejoin="round" stroke-dasharray="0.3 0.3"/>
<path opacity="0.7" d="M311.023 678.698L686.275 249.506" stroke="#777474" stroke-width="2" stroke-miterlimit="10" stroke-linecap="round" stroke-linejoin="round" stroke-dasharray="0.3 0.3"/>
<path opacity="0.7" d="M322.872 699.226L709.854 256.265" stroke="#777474" stroke-width="2" stroke-miterlimit="10" stroke-linecap="round" stroke-linejoin="round" stroke-dasharray="0.3 0.3"/>
<path opacity="0.7" d="M336.771 717.35L734.905 261.338" stroke="#777474" stroke-width="2" stroke-miterlimit="10" stroke-linecap="round" stroke-linejoin="round" stroke-dasharray="0.3 0.3"/>
<path opacity="0.7" d="M350.515 735.589L754.068 273.289" stroke="#777474" stroke-width="2" stroke-miterlimit="10" stroke-linecap="round" stroke-linejoin="round" stroke-dasharray="0.3 0.3"/>
<path opacity="0.7" d="M364.338 753.795L777.493 280.212" stroke="#777474" stroke-width="2" stroke-miterlimit="10" stroke-linecap="round" stroke-linejoin="round" stroke-dasharray="0.3 0.3"/>
<path opacity="0.7" d="M378.585 771.5L796.579 292.26" stroke="#777474" stroke-width="2" stroke-miterlimit="10" stroke-linecap="round" stroke-linejoin="round" stroke-dasharray="0.3 0.3"/>
<path opacity="0.7" d="M391.13 791.156L812.454 308.031" stroke="#777474" stroke-width="2" stroke-miterlimit="10" stroke-linecap="round" stroke-linejoin="round" stroke-dasharray="0.3 0.3"/>
<path opacity="0.7" d="M405.417 808.847L830.38 321.447" stroke="#777474" stroke-width="2" stroke-miterlimit="10" stroke-linecap="round" stroke-linejoin="round" stroke-dasharray="0.3 0.3"/>
<path opacity="0.7" d="M420.555 825.484L847.997 335.165" stroke="#777474" stroke-width="2" stroke-miterlimit="10" stroke-linecap="round" stroke-linejoin="round" stroke-dasharray="0.3 0.3"/>
<path opacity="0.7" d="M433.294 844.943L845.675 372.295" stroke="#777474" stroke-width="2" stroke-miterlimit="10" stroke-linecap="round" stroke-linejoin="round" stroke-dasharray="0.3 0.3"/>
</g>
</g>
<path opacity="0.3" d="M406.463 572.797C406.463 578.388 402.32 582.926 397.249 582.926C392.138 582.926 387.995 578.388 387.995 572.797C387.995 567.206 392.138 562.669 397.249 562.669C402.32 562.668 406.463 567.19 406.463 572.797Z" stroke="#777474" stroke-miterlimit="10"/>
<path opacity="0.3" d="M517.349 137.763L530.9 120.024" stroke="#777474" stroke-miterlimit="10"/>
<path opacity="0.3" d="M521.531 141.586L542.826 113.737" stroke="#777474" stroke-miterlimit="10"/>
<path opacity="0.3" d="M517.349 156.321L539.229 127.685" stroke="#777474" stroke-miterlimit="10"/>
<path opacity="0.3" d="M103.613 344.29L117.164 326.55" stroke="#777474" stroke-miterlimit="10"/>
<path opacity="0.3" d="M107.756 348.13L129.051 320.261" stroke="#777474" stroke-miterlimit="10"/>
<path opacity="0.3" d="M103.613 362.846L125.489 334.211" stroke="#777474" stroke-miterlimit="10"/>
<path opacity="0.3" d="M555.718 443.571L573.025 420.906" stroke="#777474" stroke-miterlimit="10"/>
<path opacity="0.3" d="M561.023 448.456L588.241 412.863" stroke="#777474" stroke-miterlimit="10"/>
<path opacity="0.3" d="M555.718 467.264L583.673 430.699" stroke="#777474" stroke-miterlimit="10"/>
<g opacity="0.5">
<path opacity="0.5" d="M527.648 47.9666L507.36 72.8156" stroke="#777474" stroke-miterlimit="10"/>
<path opacity="0.5" d="M533.495 53.7075L501.595 92.7405" stroke="#777474" stroke-miterlimit="10"/>
<path opacity="0.5" d="M551.807 44.1956L519.014 84.2956" stroke="#777474" stroke-miterlimit="10"/>
</g>
<path opacity="0.3" d="M95.5615 432.787L121.308 399.06" stroke="#777474" stroke-miterlimit="10"/>
<path opacity="0.3" d="M103.458 440.062L143.958 387.096" stroke="#777474" stroke-miterlimit="10"/>
<path opacity="0.3" d="M95.5615 468.066L137.144 413.629" stroke="#777474" stroke-miterlimit="10"/>
<path opacity="0.3" d="M143.916 359.645C145.039 359.757 146.169 359.525 147.158 358.982C148.146 358.438 148.947 357.608 149.455 356.601C149.963 355.593 150.153 354.456 150.002 353.338C149.85 352.22 149.364 351.174 148.606 350.338C147.849 349.502 146.856 348.915 145.758 348.654C144.66 348.393 143.509 348.471 142.457 348.877C141.404 349.283 140.499 349.999 139.861 350.929C139.223 351.859 138.882 352.961 138.882 354.089C138.817 355.493 139.309 356.865 140.253 357.906C141.196 358.947 142.513 359.573 143.916 359.645V359.645Z" fill="#777474"/>
<path opacity="0.3" d="M147.287 470.768C147.198 471.752 146.824 472.688 146.212 473.463C145.599 474.238 144.775 474.818 143.839 475.133C142.903 475.448 141.896 475.483 140.94 475.236C139.983 474.989 139.12 474.468 138.454 473.739C137.788 473.01 137.349 472.103 137.189 471.128C137.03 470.153 137.157 469.153 137.556 468.25C137.954 467.346 138.607 466.578 139.434 466.039C140.262 465.5 141.228 465.212 142.215 465.212C143.623 465.281 144.946 465.904 145.897 466.945C146.847 467.986 147.347 469.36 147.287 470.768V470.768Z" fill="#777474"/>
<path opacity="0.3" d="M120.766 201.26C120.724 201.714 120.551 202.145 120.269 202.502C119.987 202.858 119.607 203.126 119.176 203.271C118.745 203.417 118.28 203.434 117.84 203.32C117.399 203.207 117 202.969 116.692 202.634C116.385 202.298 116.181 201.881 116.105 201.432C116.03 200.984 116.086 200.523 116.267 200.105C116.449 199.688 116.747 199.332 117.127 199.081C117.506 198.83 117.95 198.694 118.405 198.69C118.729 198.704 119.047 198.781 119.341 198.917C119.635 199.054 119.9 199.247 120.119 199.486C120.338 199.724 120.508 200.004 120.619 200.309C120.731 200.613 120.781 200.937 120.766 201.26V201.26Z" fill="#777474"/>
<path opacity="0.3" d="M569.696 275.538C570.216 275.591 570.739 275.485 571.197 275.234C571.654 274.984 572.026 274.6 572.261 274.134C572.497 273.669 572.586 273.142 572.516 272.625C572.447 272.108 572.223 271.624 571.873 271.236C571.523 270.849 571.064 270.577 570.556 270.456C570.048 270.335 569.516 270.37 569.028 270.558C568.541 270.745 568.122 271.076 567.827 271.506C567.532 271.937 567.373 272.446 567.373 272.968C567.345 273.616 567.572 274.249 568.007 274.731C568.442 275.212 569.049 275.502 569.696 275.538V275.538Z" fill="#777474"/>
<path opacity="0.3" d="M592.926 504.279C592.884 504.732 592.711 505.163 592.429 505.52C592.146 505.877 591.766 506.145 591.335 506.29C590.904 506.436 590.439 506.453 589.998 506.34C589.557 506.226 589.159 505.988 588.851 505.652C588.543 505.317 588.339 504.9 588.263 504.451C588.188 504.002 588.244 503.541 588.425 503.123C588.607 502.705 588.905 502.349 589.285 502.098C589.665 501.847 590.109 501.711 590.564 501.708C590.888 501.721 591.206 501.798 591.501 501.935C591.795 502.071 592.059 502.265 592.278 502.503C592.498 502.742 592.668 503.022 592.779 503.326C592.89 503.631 592.94 503.955 592.926 504.279V504.279Z" fill="#777474"/>
<path opacity="0.3" d="M95.5614 166.333C96.682 166.436 97.8074 166.197 98.7897 165.648C99.7721 165.099 100.566 164.266 101.066 163.258C101.567 162.251 101.751 161.115 101.594 160.001C101.438 158.886 100.948 157.845 100.19 157.014C99.4308 156.183 98.4387 155.601 97.3432 155.344C96.2477 155.087 95.1001 155.167 94.051 155.574C93.0018 155.981 92.1002 156.695 91.4644 157.624C90.8286 158.552 90.4885 159.651 90.4885 160.776C90.4551 161.475 90.5601 162.173 90.7973 162.83C91.0345 163.488 91.3992 164.093 91.8705 164.609C92.3419 165.125 92.9106 165.543 93.544 165.839C94.1774 166.135 94.863 166.303 95.5614 166.333V166.333Z" fill="#777474"/>
<path opacity="0.3" d="M233.395 530.293C233.302 531.271 232.927 532.2 232.316 532.969C231.705 533.739 230.883 534.314 229.952 534.625C229.02 534.936 228.018 534.97 227.067 534.723C226.116 534.476 225.257 533.959 224.595 533.233C223.933 532.508 223.495 531.605 223.336 530.636C223.176 529.667 223.301 528.672 223.696 527.772C224.091 526.873 224.738 526.107 225.56 525.568C226.381 525.029 227.341 524.74 228.323 524.737C229.021 524.768 229.706 524.937 230.339 525.233C230.972 525.529 231.54 525.947 232.011 526.463C232.482 526.979 232.847 527.583 233.084 528.24C233.322 528.897 233.428 529.595 233.395 530.293V530.293Z" fill="#777474"/>
<path opacity="0.3" d="M560.791 526.94C560.698 527.918 560.324 528.848 559.712 529.617C559.101 530.387 558.279 530.962 557.348 531.274C556.416 531.585 555.413 531.62 554.462 531.373C553.511 531.126 552.652 530.608 551.99 529.882C551.327 529.156 550.889 528.254 550.73 527.285C550.57 526.315 550.695 525.32 551.09 524.42C551.485 523.52 552.132 522.754 552.954 522.215C553.775 521.676 554.736 521.387 555.718 521.384C556.416 521.414 557.102 521.583 557.735 521.879C558.368 522.175 558.936 522.593 559.408 523.109C559.879 523.625 560.244 524.229 560.481 524.886C560.719 525.544 560.824 526.241 560.791 526.94V526.94Z" fill="#777474"/>
<path opacity="0.3" d="M647.479 362.848C647.39 363.831 647.016 364.767 646.404 365.542C645.791 366.317 644.967 366.897 644.031 367.212C643.095 367.527 642.088 367.562 641.131 367.315C640.175 367.068 639.312 366.548 638.646 365.818C637.98 365.089 637.541 364.182 637.381 363.207C637.222 362.232 637.349 361.233 637.748 360.329C638.146 359.425 638.799 358.657 639.626 358.118C640.454 357.579 641.42 357.292 642.407 357.292C643.815 357.362 645.137 357.985 646.087 359.025C647.037 360.066 647.538 361.44 647.479 362.848V362.848Z" fill="#777474"/>
<path opacity="0.3" d="M38.9175 286.651C40.0381 286.753 41.1636 286.514 42.146 285.966C43.1285 285.417 43.9221 284.584 44.4228 283.576C44.9234 282.569 45.1078 281.433 44.9515 280.319C44.7951 279.204 44.3055 278.163 43.5469 277.332C42.7883 276.501 41.7961 275.918 40.7006 275.661C39.6051 275.404 38.4574 275.484 37.4082 275.891C36.3591 276.298 35.4574 277.012 34.8216 277.941C34.1858 278.869 33.8455 279.968 33.8455 281.093C33.7865 282.502 34.2866 283.876 35.2367 284.917C36.1868 285.958 37.5099 286.581 38.9175 286.651V286.651Z" fill="#777474"/>
<path opacity="0.3" d="M395.66 66.7564C375.217 54.2734 349.896 46.0634 326.665 53.3734C308.623 59.0474 295.033 73.8324 284.734 90.4864C273.157 109.226 265.026 130.237 256.393 150.712C251.093 163.244 245.32 175.293 237.615 186.274C229.416 197.953 219.585 208.394 208.421 217.28C197.18 226.175 184.595 233.222 171.136 238.156C155.92 243.696 140.162 246.767 124.559 250.639C98.9674 257.03 71.7875 266.96 55.0225 290.623C47.415 301.274 43.2165 313.981 42.9814 327.067C42.7874 340.719 46.7365 354.167 53.0475 365.85C67.2955 392.403 92.0364 407.588 117.899 417.317C145.583 427.725 174.777 432.685 201.877 445.036C215.39 451.211 228.36 459.303 239.085 470.369C249.732 481.349 257.94 494.715 265.258 508.498C279.041 534.532 290.158 562.919 310.015 584.33C319.191 594.207 330.149 602.202 342.538 606.271C354.967 610.344 368.247 610.344 380.907 607.39C440.261 593.49 466.707 527.822 490.632 473.904C503.99 443.766 518.857 414.43 541.391 391.316C563.15 369.007 589.13 351.983 609.457 327.889C627.457 306.494 641.05 279.089 637.875 249.105C634.817 220.605 618.675 195.387 598.848 177.548C576.005 157.005 547.779 144.99 520.329 133.943C505.616 128.019 490.71 122.495 476.423 115.386C462.33 108.178 448.618 100.246 435.343 91.6224C428.955 87.5504 422.605 83.4124 416.217 79.3064C409.441 74.9514 402.395 71.1794 395.542 66.9914C395 66.6574 394.535 67.5584 395.042 67.8914C401.895 72.0634 408.399 76.9194 415.136 81.2744C421.524 85.3794 427.913 89.5184 434.301 93.5904C447.267 102.027 460.655 109.797 474.412 116.87C501.712 130.587 530.862 139.181 558.081 153.132C583.44 166.132 607.329 183.587 622.546 209.987C629.554 222.103 634.546 235.787 635.904 250.105C637.204 264.942 634.754 279.868 628.779 293.51C616.622 321.864 593.972 342.09 571.903 360.895C560.172 370.876 548.363 380.769 537.677 392.067C527.314 403.151 518.271 415.4 510.729 428.567C494.971 455.584 483.937 485.42 470.429 513.773C457.229 541.441 441.081 569.143 417.347 587.267C395.394 604.005 366.472 612.983 340.454 603.172C314.861 593.508 297.942 567.927 285.049 543.16C271.381 516.86 259.999 488.007 239.13 467.347C218.493 446.954 191.391 437.31 165.102 429.601C137.302 421.459 108.264 414.784 83.7565 397.392C62.1565 382.056 44.1874 355.523 45.0394 326.171C45.8914 296.432 67.7665 275.522 90.9585 264.308C118.758 250.841 149.963 249.656 178.228 237.708C201.923 227.695 222.908 210.44 238.511 188.508C252.411 169.05 260.193 145.871 269.95 123.843C278.35 104.836 287.915 85.3434 302.318 70.9594C317.225 56.0904 336.351 50.4834 356.174 53.5204C369.841 55.6064 382.85 60.9464 394.93 68.1724C395.738 68.6254 396.477 67.2574 395.66 66.7564Z" fill="#777474"/>
<g opacity="0.425">
<path opacity="0.425" d="M403.599 18.4285C380.214 4.16047 351.215 -5.21753 324.654 3.15947C304.054 9.65047 288.492 26.5595 276.761 45.5795C263.52 67.0405 254.189 91.0875 244.316 114.516C238.238 128.884 231.655 142.668 222.789 155.251C213.42 168.653 202.151 180.621 189.337 190.779C176.46 200.965 162.045 209.037 146.631 214.693C129.246 221.034 111.166 224.538 93.3174 228.993C64.0084 236.303 32.9174 247.65 13.7534 274.718C5.09282 286.895 0.302885 301.398 0.00844137 316.337C-0.223559 331.937 4.34444 347.292 11.5084 360.637C27.7694 390.995 56.1084 408.364 85.6524 419.48C117.362 431.393 150.775 437.069 181.787 451.205C197.313 458.279 212.181 467.555 224.493 480.239C236.693 492.807 246.093 508.123 254.46 523.928C270.26 553.717 282.96 586.209 305.684 610.706C316.177 622.006 328.684 631.13 342.853 635.787C357.062 640.445 372.24 640.445 386.681 637.072C454.592 621.167 484.83 546.024 512.204 484.327C527.536 449.818 544.494 416.207 570.358 389.74C595.292 364.21 625.027 344.719 648.258 317.133C668.894 292.668 684.381 261.345 680.742 227.052C677.296 194.477 658.789 165.641 636.101 145.252C610.001 121.752 577.676 108.005 546.315 95.3725C529.435 88.5805 512.36 82.2555 495.982 74.1125C479.838 66.0685 464.312 56.6575 448.982 46.8945C441.664 42.2385 434.382 37.4945 427.068 32.7945C419.325 27.8045 411.31 23.4155 403.45 18.6265C402.908 18.2925 402.443 19.1945 402.95 19.5265C410.81 24.2995 418.283 29.7895 426.026 34.7625C433.344 39.4685 440.626 44.1905 447.94 48.8625C462.924 58.3915 478.101 67.6025 493.859 75.5125C525.104 91.2125 558.478 101.044 589.646 117.012C618.684 131.912 646.057 151.906 663.519 182.145C671.534 196.029 677.226 211.733 678.813 228.153C680.296 245.169 677.487 262.284 670.644 277.933C656.667 310.407 630.727 333.569 605.483 355.115C592.048 366.544 578.535 377.858 566.301 390.793C554.447 403.481 544.093 417.491 535.443 432.546C517.443 463.485 504.818 497.646 489.33 530.103C474.191 561.809 455.723 593.534 428.505 614.294C403.338 633.467 370.196 643.762 340.383 632.499C311.035 621.418 291.637 592.113 276.848 563.71C261.206 533.623 248.158 500.6 224.308 476.952C200.69 453.625 169.677 442.594 139.594 433.782C107.768 424.451 74.5104 416.793 46.4794 396.9C21.6994 379.33 1.10239 348.89 2.03139 315.233C3.03739 281.133 28.1314 257.141 54.6874 244.275C86.5124 228.856 122.287 227.504 154.655 213.803C181.719 202.355 205.762 182.597 223.611 157.532C239.485 135.254 248.429 108.737 259.58 83.5385C269.22 61.7615 280.138 39.4495 296.671 22.9615C313.785 5.90647 335.698 -0.518529 358.464 2.98647C374.106 5.38647 389.012 11.4975 402.834 19.7865C403.675 20.2785 404.41 18.9125 403.599 18.4285Z" fill="#777474"/>
</g>
<path opacity="0.3" d="M513.632 395.792C531.52 374.548 554.208 359.292 573.76 340.07C590.796 323.317 606.438 302.022 610.271 276.57C613.948 252.006 605.276 227.842 591.222 208.97C575.622 187.943 553.86 174.293 531.442 163.679C506.934 152.079 481.071 144.187 457.066 131.372C433.138 118.589 411.146 102.035 387.566 88.6014C369.678 78.4214 347.766 72.2014 327.866 78.4884C312.572 83.3284 300.725 95.4104 291.626 109.327C281.25 125.214 273.932 143.27 266.537 160.942C262.279 171.088 258.137 181.268 252.561 190.642C246.385 201.019 238.859 210.53 230.182 218.928C221.528 227.341 211.709 234.467 201.028 240.088C188.871 246.446 175.823 250.167 162.698 253.355C138.925 259.146 114.107 263.818 94.0904 280.272C85.6904 287.197 78.4093 296.009 74.1903 306.672C70.0096 317.426 68.9885 329.149 71.2473 340.463C75.8543 364.797 92.1163 384.388 111.32 396.463C154.72 423.782 212.334 419.093 249.62 458.976C267.702 478.335 277.497 504.399 290.12 527.913C301.348 548.813 315.751 569.585 336.852 578.978C358.379 588.578 382.888 583.57 402.672 571.521C424.122 558.504 439.802 537.008 452.115 514.246C455.212 508.508 458.154 502.675 460.942 496.746C463.807 490.656 466.053 484.279 468.763 478.104C469.034 477.504 468.221 476.97 467.95 477.574C465.24 483.695 461.987 489.553 459.122 495.574C456.257 501.633 453.276 507.638 450.101 513.516C444.002 525.07 436.75 535.978 428.458 546.074C412.39 565.166 390.708 579.514 366.703 581.551C355.08 582.635 343.397 580.242 333.135 574.675C322.991 569.104 314.435 560.675 307.194 551.181C291.939 531.172 282.841 506.842 270.412 484.796C264.256 473.831 257.212 463.35 248.46 454.689C239.705 446.214 229.604 439.25 218.569 434.08C196.384 423.336 172.457 418.496 149.304 410.935C126.267 403.408 102.843 392.645 87.3564 371.551C73.3794 352.444 66.7203 325.81 78.0253 303.266C89.0253 281.388 111.325 269.74 132.345 263.382C156.97 255.939 182.756 253.119 205.715 240.052C225.558 228.581 242.138 212.226 253.879 192.542C264.179 175.521 270.489 155.862 278.813 137.673C286.213 121.636 294.687 105.382 307.231 93.5014C320.201 81.1854 336.618 76.5304 353.538 78.8664C378.781 82.3374 400.115 98.8744 421.603 112.625C432.87 119.867 444.253 126.976 456.062 133.251C467.399 139.137 479.058 144.379 490.985 148.951C535.085 166.59 588.94 186.966 605.511 240.868C609.282 252.806 610.184 265.464 608.143 277.815C605.936 290.398 600.71 302.079 594.012 312.492C579.686 334.787 559.242 350.572 540.039 367.329C530.359 375.773 520.913 384.582 512.627 394.644C511.967 395.424 513.013 396.543 513.632 395.792Z" fill="#777474"/>
</g>
</svg>
