<svg width="36" height="37" viewBox="0 0 36 37" fill="none" xmlns="http://www.w3.org/2000/svg">
<path d="M29.954 6.91492C27.2069 4.16844 23.5925 2.45947 19.7266 2.0792C15.8607 1.69894 11.9826 2.6709 8.75302 4.82947C5.52345 6.98805 3.14227 10.1997 2.01521 13.9171C0.88815 17.6345 1.08496 21.6278 2.57209 25.2164C4.05923 28.805 6.74467 31.7669 10.1709 33.5974C13.597 35.428 17.5519 36.0139 21.3617 35.2553C25.1714 34.4968 28.6003 32.4407 31.064 29.4374C33.5277 26.4341 34.8738 22.6694 34.873 18.7849C34.872 14.3325 33.1026 10.0629 29.954 6.91492V6.91492ZM26.721 25.3869V25.3809L25.87 26.2259C25.3291 26.7737 24.6561 27.1727 23.916 27.3845C23.1759 27.5963 22.3937 27.6136 21.645 27.4349C20.1099 27.0249 18.6504 26.3716 17.322 25.4999C16.0887 24.7116 14.9458 23.7901 13.914 22.7519C12.9647 21.8095 12.1118 20.7747 11.368 19.6629C10.5542 18.4665 9.91009 17.1631 9.45397 15.7899C9.19781 14.9992 9.16681 14.1528 9.36444 13.3455C9.56207 12.5382 9.98054 11.8019 10.573 11.2189L11.573 10.2189C11.7063 10.0857 11.887 10.0109 12.0755 10.0109C12.2639 10.0109 12.4447 10.0857 12.578 10.2189V10.2189L15.723 13.3639C15.8562 13.4972 15.931 13.678 15.931 13.8664C15.931 14.0549 15.8562 14.2356 15.723 14.3689L13.876 16.2159C13.6194 16.4694 13.4624 16.8067 13.4336 17.1663C13.4048 17.5258 13.506 17.8838 13.719 18.1749C14.3871 19.0916 15.1264 19.9543 15.93 20.7549C16.8257 21.6547 17.7995 22.4732 18.84 23.2009C19.1313 23.4039 19.4846 23.4983 19.8384 23.4676C20.1922 23.4369 20.524 23.2831 20.776 23.0329L22.561 21.2199C22.6943 21.0867 22.875 21.0119 23.0635 21.0119C23.2519 21.0119 23.4327 21.0867 23.566 21.2199L26.717 24.3759C26.7841 24.4418 26.8375 24.5203 26.874 24.6069C26.9106 24.6935 26.9296 24.7866 26.93 24.8806C26.9304 24.9746 26.9121 25.0678 26.8762 25.1547C26.8403 25.2416 26.7876 25.3205 26.721 25.3869Z" stroke="white" stroke-width="2"/>
</svg>
