<svg width="24" height="24" viewBox="0 0 24 24" fill="none" xmlns="http://www.w3.org/2000/svg">
<path d="M22.5938 8.55844V6.32812C22.5938 5.16502 21.6475 4.21875 20.4844 4.21875H19.3694L15.357 0.206437C15.3562 0.205594 15.3552 0.204797 15.3544 0.203906C15.2297 0.08025 15.0566 0.00342187 14.8702 0.000515625C14.8666 0.00046875 14.8631 0 14.8594 0H4.92188C4.53356 0 4.21875 0.314812 4.21875 0.703125V4.21875H3.51562C2.35252 4.21875 1.40625 5.16502 1.40625 6.32812V8.55844C0.587859 8.84869 0 9.63023 0 10.5469V19.0781C0 20.2412 0.946266 21.1875 2.10938 21.1875H4.21875V23.2969C4.21875 23.6852 4.53356 24 4.92188 24H19.0781C19.4664 24 19.7812 23.6852 19.7812 23.2969V21.1875H21.8906C23.0537 21.1875 24 20.2412 24 19.0781V10.5469C24 9.63023 23.4121 8.84869 22.5938 8.55844ZM19.7812 5.625H20.4844C20.8721 5.625 21.1875 5.94042 21.1875 6.32812V8.4375H19.7812V5.625ZM15.5625 2.40061L17.3806 4.21875H15.5625V2.40061ZM5.625 1.40625H14.1562V4.92188C14.1562 5.31019 14.4711 5.625 14.8594 5.625H18.375V8.4375H5.625V1.40625ZM2.8125 6.32812C2.8125 5.94042 3.12792 5.625 3.51562 5.625H4.21875V8.4375H2.8125V6.32812ZM18.375 22.5938H5.625V15.5625H18.375V22.5938ZM22.5938 19.0781C22.5938 19.4658 22.2783 19.7812 21.8906 19.7812H19.7812V15.5625H20.4844C20.8727 15.5625 21.1875 15.2477 21.1875 14.8594C21.1875 14.4711 20.8727 14.1562 20.4844 14.1562C19.9103 14.1562 4.32319 14.1562 3.51562 14.1562C3.12731 14.1562 2.8125 14.4711 2.8125 14.8594C2.8125 15.2477 3.12731 15.5625 3.51562 15.5625H4.21875V19.7812H2.10938C1.72167 19.7812 1.40625 19.4658 1.40625 19.0781V10.5469C1.40625 10.1592 1.72167 9.84375 2.10938 9.84375C2.95978 9.84375 20.9218 9.84375 21.8906 9.84375C22.2783 9.84375 22.5938 10.1592 22.5938 10.5469V19.0781Z" fill="#4D4B4B"/>
<path d="M16.2656 16.9688H7.73438C7.34606 16.9688 7.03125 17.2836 7.03125 17.6719C7.03125 18.0602 7.34606 18.375 7.73438 18.375H16.2656C16.6539 18.375 16.9688 18.0602 16.9688 17.6719C16.9688 17.2836 16.6539 16.9688 16.2656 16.9688Z" fill="#4D4B4B"/>
<path d="M16.2656 19.7812H7.73438C7.34606 19.7812 7.03125 20.0961 7.03125 20.4844C7.03125 20.8727 7.34606 21.1875 7.73438 21.1875H16.2656C16.6539 21.1875 16.9688 20.8727 16.9688 20.4844C16.9688 20.0961 16.6539 19.7812 16.2656 19.7812Z" fill="#4D4B4B"/>
<path d="M4.92188 11.25H3.51562C3.12731 11.25 2.8125 11.5648 2.8125 11.9531C2.8125 12.3414 3.12731 12.6562 3.51562 12.6562H4.92188C5.31019 12.6562 5.625 12.3414 5.625 11.9531C5.625 11.5648 5.31019 11.25 4.92188 11.25Z" fill="#4D4B4B"/>
</svg>
