<svg width="54" height="54" viewBox="0 0 54 54" fill="none" xmlns="http://www.w3.org/2000/svg">
<g clip-path="url(#clip0_51:135)">
<path d="M47.1628 7.02285H46.5221C47.7434 5.03449 47.2924 2.36502 45.3323 0.910739C43.2203 -0.656074 40.2191 -0.151733 38.7452 2.05083L35.4181 7.02296H6.83695C4.48768 7.02296 2.57642 8.93422 2.57642 11.2835V38.5228C2.57642 40.8721 4.48768 42.7833 6.83695 42.7833H23.3862L22.1357 48.0353H19.437C17.6781 48.0353 16.2471 49.4661 16.2471 51.225V51.891H12.9202C12.3377 51.891 11.8655 52.3633 11.8655 52.9457C11.8655 53.5281 12.3377 54.0003 12.9202 54.0003H41.0797C41.6622 54.0003 42.1343 53.5281 42.1343 52.9457C42.1343 52.3633 41.6622 51.891 41.0797 51.891H37.7527V51.225C37.7527 49.4661 36.3217 48.0353 34.5629 48.0353H31.8641L30.6137 42.7833H47.1629C49.5121 42.7833 51.4234 40.8721 51.4234 38.5228V32.5291V11.2834C51.4234 8.93412 49.5122 7.02285 47.1628 7.02285ZM32.0513 25.5638C30.4023 26.7181 27.3131 25.1491 24.363 26.7233C23.6432 22.984 24.097 19.4672 27.8437 18.6909C28.3279 18.59 28.8492 18.5443 29.293 18.5532C30.5612 19.4941 31.8438 20.4457 33.1084 21.384C33.662 22.9943 33.4542 24.5818 32.0513 25.5638ZM33.1142 14.259L36.0996 16.474L33.8037 19.2732C32.8585 18.572 32.046 17.9691 31.1008 17.2678C31.2971 16.9745 32.9348 14.527 33.1142 14.259ZM40.4983 3.22394C41.2971 2.02995 42.9263 1.75215 44.0754 2.60485C45.225 3.45765 45.4309 5.09724 44.52 6.20791C42.9037 8.17834 39.0611 12.8633 37.4387 14.8413L34.2885 12.504L40.4983 3.22394ZM35.6433 51.225V51.891H18.3564V51.225C18.3564 50.6293 18.8412 50.1446 19.437 50.1446H34.5628C35.1586 50.1446 35.6433 50.6293 35.6433 51.225ZM29.6957 48.0353H24.304L25.5544 42.7833H28.4453L29.6957 48.0353ZM49.3141 38.5228C49.3141 39.709 48.3491 40.674 47.1629 40.674C45.4887 40.674 8.71943 40.674 6.83706 40.674C5.65088 40.674 4.68586 39.709 4.68586 38.5228V33.5838H7.69967C8.28216 33.5838 8.75434 33.1115 8.75434 32.5291C8.75434 31.9467 8.28216 31.4745 7.69967 31.4745H4.68564V11.2834C4.68564 10.0972 5.65066 9.13218 6.83685 9.13218H34.0067C32.9963 10.6422 30.0486 15.0473 29.1149 16.4425C27.0481 16.4612 24.9846 17.1812 23.6338 18.7581C21.7956 20.9038 21.4727 24.2754 22.6739 28.779C22.8793 29.5492 23.8402 29.8251 24.4216 29.2697C27.1487 26.6639 30.5451 29.5062 33.5867 27.0444C35.4433 25.5415 35.8827 23.1523 35.1826 20.9181C36.129 19.7643 43.9009 10.2887 44.8495 9.13218H47.1627C48.3489 9.13218 49.3139 10.0972 49.3139 11.2834V31.4744H16.1368C15.5543 31.4744 15.0821 31.9466 15.0821 32.529C15.0821 33.1114 15.5543 33.5837 16.1368 33.5837H49.3141V38.5228Z" fill="#4D4B4B"/>
<path d="M11.7144 31.4943C11.2067 31.5981 10.8665 32.0369 10.8665 32.529C10.8665 33.1887 11.4696 33.6939 12.1268 33.5626C12.7108 33.4441 13.0665 32.8813 12.9547 32.3223C12.8374 31.7454 12.2777 31.3809 11.7144 31.4943Z" fill="#4D4B4B"/>
</g>
<defs>
<clipPath id="clip0_51:135">
<rect width="54" height="54" fill="white"/>
</clipPath>
</defs>
</svg>
