<svg width="54" height="54" viewBox="0 0 54 54" fill="none" xmlns="http://www.w3.org/2000/svg">
<g clip-path="url(#clip0_59:1039)">
<path d="M21.6149 23.0522C22.7148 23.0513 23.708 22.3936 24.1382 21.3817C24.5689 20.3694 24.3535 19.198 23.5914 18.405L22.3253 17.0902C22.1568 16.916 21.9268 16.8155 21.6846 16.8106C21.4429 16.8092 21.2097 16.9004 21.0332 17.0657L18.3907 19.6046L15.7548 22.1435C15.5096 22.3682 15.405 22.7077 15.4823 23.0307C15.5592 23.3542 15.8058 23.6102 16.1257 23.7C16.4455 23.7893 16.7891 23.6986 17.0227 23.4623L19.0001 21.5582L19.2427 21.8097L18.065 25.1327C17.9515 25.4419 18.0127 25.7885 18.2254 26.0401C18.4385 26.2911 18.77 26.4086 19.0939 26.3474C19.4173 26.2862 19.6832 26.0557 19.7895 25.7439L20.7907 22.9168C21.0569 23.0035 21.3348 23.0495 21.6149 23.0522ZM21.639 19.0153L22.2739 19.6743C22.6255 20.0393 22.6148 20.62 22.2502 20.9716C21.8852 21.3232 21.3044 21.3125 20.9528 20.948L20.3184 20.2881L21.639 19.0153Z" fill="#4D4B4B"/>
<path d="M17.2618 18.4352C17.9395 18.4173 18.5864 18.1466 19.0752 17.6766C20.1671 16.6249 20.2001 14.8875 19.1485 13.7952L17.8783 12.4768C17.5276 12.1136 16.9495 12.1029 16.5854 12.4531L11.3137 17.5309C10.9496 17.8816 10.9394 18.4611 11.2901 18.8247L12.5588 20.1422C13.0619 20.6676 13.7535 20.9701 14.4803 20.9826H14.5335C15.972 20.9857 17.1653 19.8697 17.2582 18.4343L17.2618 18.4352ZM17.1957 14.4095L17.8301 15.068C18.1803 15.4321 18.1692 16.0115 17.8051 16.3618C17.6375 16.5409 17.3985 16.6352 17.1537 16.6182C16.9116 16.6138 16.681 16.5132 16.5135 16.3381L15.8791 15.6783L17.1957 14.4095ZM15.1692 18.9007C15.0003 19.0776 14.7622 19.1714 14.5179 19.1571C14.2753 19.1527 14.0447 19.0512 13.8772 18.8761L13.2433 18.2172L14.5607 16.9484L15.1947 17.6069C15.5427 17.971 15.5311 18.5473 15.1692 18.8971V18.9007Z" fill="#4D4B4B"/>
<path d="M28.67 23.6797C28.4056 23.4049 27.9981 23.3232 27.6483 23.4746L20.4712 26.5755C20.0115 26.7784 19.8015 27.314 20.0008 27.7755C20.2 28.2366 20.7339 28.451 21.1967 28.2553L22.4092 27.7313L24.3857 29.7841L23.8174 30.9738C23.5998 31.4295 23.7933 31.9759 24.249 32.1935C24.3718 32.2533 24.5063 32.2846 24.6426 32.2846C24.9941 32.2842 25.3145 32.0818 25.4659 31.7641L28.834 24.709C28.9993 24.3654 28.9341 23.9553 28.67 23.6797ZM24.2034 26.9562L26.1338 26.1216L25.2282 28.0203L24.2034 26.9562Z" fill="#4D4B4B"/>
<path d="M35.6524 30.9288C35.3017 30.5647 34.7227 30.554 34.3586 30.9042L31.3833 33.7688L32.7052 28.4904C32.8039 28.0951 32.6288 27.6818 32.2759 27.4776C31.9229 27.2735 31.4775 27.3271 31.1836 27.6094L25.9119 32.6877C25.5634 33.0406 25.5598 33.6075 25.9043 33.9645C26.2483 34.3219 26.8147 34.3398 27.1806 34.0051L30.1551 31.1401L28.8332 36.4185C28.734 36.8143 28.9087 37.228 29.2616 37.4326C29.615 37.6373 30.0604 37.5832 30.3548 37.3008L35.6256 32.2226C35.9902 31.8728 36.0023 31.2934 35.6524 30.9288V30.9288Z" fill="#4D4B4B"/>
<path d="M37.5564 32.906C37.3884 32.7313 37.1579 32.6304 36.9158 32.625C36.675 32.6308 36.4444 32.7215 36.2644 32.8814L30.9922 37.9592C30.629 38.3095 30.6179 38.888 30.9677 39.2521L31.6025 39.912C32.7279 41.1263 34.4215 41.6378 36.0312 41.2496C37.6404 40.8614 38.9146 39.6341 39.3626 38.0401C39.8103 36.4461 39.3622 34.7346 38.1904 33.565L37.5564 32.906ZM36.8005 38.7152C35.7086 39.7668 33.9712 39.7346 32.9191 38.6428L36.8729 34.8338C37.9245 35.9256 37.8924 37.6635 36.8005 38.7152Z" fill="#4D4B4B"/>
<path d="M49.3288 32.1394L50.3545 31.1136L49.0607 29.8198L48.035 30.8456V29.3945H46.2051V30.8456L45.1793 29.8198L43.886 31.1136L44.9113 32.1394H43.4602V33.9693H44.9113L43.886 34.9959L45.1793 36.2897L46.2051 35.2631V36.7141H48.035V35.2631L49.0607 36.2897L50.3545 34.9959L49.3288 33.9693H50.7798V32.1394H49.3288Z" fill="#4D4B4B"/>
<path d="M47.1203 26.192C45.5294 26.1902 43.9876 26.7442 42.7617 27.7583L19.3433 3.44552C19.1566 3.25074 18.8935 3.14888 18.6241 3.1663L3.5001 4.14246L1.88955 2.4707C1.53885 2.1066 0.959409 2.09588 0.595751 2.44658C0.231646 2.79728 0.220477 3.37672 0.571179 3.74083L2.16341 5.39337L0.0105029 19.7882C-0.0319387 20.0692 0.0587524 20.3538 0.255771 20.5584L30.0887 51.5306C30.4389 51.8947 31.0184 51.9058 31.3825 51.5551L44.1677 39.2399C46.7133 40.4622 49.7472 40.0007 51.8139 38.0766C53.8801 36.1528 54.5578 33.1596 53.5205 30.5336C52.4836 27.9075 49.9438 26.1849 47.1203 26.192V26.192ZM3.76547 7.05663L5.12941 8.47285C4.70678 9.31408 4.7452 10.313 5.23216 11.119C5.71913 11.9245 6.58538 12.4235 7.52669 12.44H7.57896C9.0948 12.4543 10.335 11.2365 10.3488 9.72063C10.3627 8.20435 9.14528 6.9646 7.62945 6.95031C7.22156 6.94182 6.81725 7.02804 6.44823 7.20228L5.16247 5.86916L18.3185 5.01988L18.6598 5.37416L2.84382 20.608L1.88687 19.6136L3.76547 7.05663ZM6.94413 9.03665C7.11345 8.8718 7.34084 8.77977 7.57718 8.78021H7.59549C7.96541 8.78781 8.29422 9.01699 8.42914 9.36144C8.56406 9.70589 8.47828 10.0977 8.21201 10.3541C8.04091 10.5275 7.80413 10.6204 7.56065 10.6092C7.19073 10.6025 6.86148 10.3733 6.72611 10.0289C6.59074 9.68444 6.67652 9.29219 6.94323 9.03576L6.94413 9.03665ZM30.7722 49.6019L26.7309 45.406H35.1281L30.7722 49.6019ZM36.9991 43.6043V43.5761H24.9675L4.11751 21.9255L19.929 6.69164L41.522 29.108C39.4915 31.9699 39.961 35.9049 42.6081 38.2088L36.9991 43.6043ZM47.1203 38.0864C44.341 38.0864 42.088 35.8334 42.088 33.0542C42.088 30.2749 44.341 28.0219 47.1203 28.0219C49.8995 28.0219 52.1525 30.2749 52.1525 33.0542C52.1498 35.8321 49.8982 38.0833 47.1203 38.0864Z" fill="#4D4B4B"/>
</g>
<defs>
<clipPath id="clip0_59:1039">
<rect width="54" height="54" fill="white"/>
</clipPath>
</defs>
</svg>
