<svg width="78" height="61" viewBox="0 0 78 61" fill="none" xmlns="http://www.w3.org/2000/svg">
<g clip-path="url(#clip0_59:1084)">
<path d="M78 15.0884C78 13.1272 77.2404 11.2835 75.8609 9.89649C73.0817 7.10385 68.6018 7.0389 65.7418 9.70011C64.1815 8.80967 62.1588 9.03132 60.8302 10.3672C59.5035 11.7013 59.2818 13.7314 60.1631 15.2992L48.7316 26.7936V9.60146H56.0494C56.6806 9.60146 57.192 9.08723 57.192 8.4526C57.192 7.81797 56.6806 7.30375 56.0494 7.30375H48.7316V1.43401C48.7316 0.799384 48.2201 0.285156 47.589 0.285156C46.9578 0.285156 46.4464 0.799384 46.4464 1.43401V7.30375H19.3501C18.7191 7.30375 18.2075 7.81797 18.2075 8.4526C18.2075 9.08723 18.7191 9.60146 19.3501 9.60146H24.3362L10.785 17.4609C10.7713 17.4688 10.7585 17.4779 10.745 17.486V9.60146H14.7796C15.4106 9.60146 15.9222 9.08723 15.9222 8.4526C15.9222 7.81797 15.4106 7.30375 14.7796 7.30375H10.7451V1.43447C10.7451 0.799843 10.2335 0.285616 9.60253 0.285616C8.97152 0.285616 8.45995 0.799843 8.45995 1.43447V7.30375H1.14258C0.51157 7.30375 0 7.81797 0 8.4526C0 9.08723 0.51157 9.60146 1.14258 9.60146H8.45995V51.3984H1.14258C0.51157 51.3984 0 51.9126 0 52.5472C0 53.1819 0.51157 53.6961 1.14258 53.6961H8.45995V59.5654C8.45995 60.2 8.97152 60.7142 9.60253 60.7142C10.2335 60.7142 10.7451 60.2 10.7451 59.5654V53.6961H39.1292C39.7602 53.6961 40.2718 53.1819 40.2718 52.5472C40.2718 51.9126 39.7603 51.3984 39.1292 51.3984H32.8558L37.6748 48.6028C38.1702 49.0287 38.7844 49.2552 39.416 49.2552C39.722 49.2552 40.0315 49.2025 40.3333 49.0944L46.4464 46.9042V51.3984H43.6995C43.0683 51.3984 42.5569 51.9126 42.5569 52.5472C42.5569 53.1819 43.0683 53.6961 43.6995 53.6961H46.4464V59.5658C46.4464 60.2004 46.9578 60.7147 47.589 60.7147C48.2201 60.7147 48.7316 60.2004 48.7316 59.5658V53.6961H56.0494C56.6806 53.6961 57.192 53.1819 57.192 52.5472C57.192 51.9126 56.6806 51.3984 56.0494 51.3984H48.7316V46.0854L50.7641 45.3572C50.7646 45.3571 50.765 45.3568 50.7657 45.3566C50.8027 45.3433 50.8389 45.3278 50.8743 45.3108C50.8827 45.3067 50.8909 45.3021 50.8991 45.2978C50.9249 45.2846 50.9501 45.2705 50.9748 45.2554C50.9858 45.2488 50.9965 45.2419 51.0071 45.2348C51.0303 45.2195 51.0527 45.2034 51.0746 45.1864C51.0833 45.1797 51.0923 45.1734 51.101 45.1664C51.1304 45.1423 51.1589 45.1169 51.1858 45.0899C51.1867 45.089 51.1877 45.0884 51.1886 45.0875L70.4885 25.6815C71.1109 26.0352 71.8062 26.213 72.5018 26.213C73.549 26.213 74.5963 25.8123 75.3935 25.0105C76.7221 23.6745 76.9426 21.6407 76.057 20.0718C77.3114 18.7119 78 16.9538 78 15.0884ZM74.2453 11.5214C75.1931 12.4742 75.7148 13.7409 75.7148 15.0882C75.7148 16.2898 75.2989 17.4261 74.5368 18.3335L67.4709 11.2289C69.4398 9.56301 72.3928 9.65967 74.2453 11.5214ZM43.8776 45.3853L40.567 42.0565L42.5158 36.5568C43.5238 36.4516 44.2397 36.5838 44.6027 36.9487C45.0391 37.3874 45.1422 38.337 44.901 39.6943C44.8998 39.7007 44.8998 39.7072 44.8988 39.7137C44.8934 39.7474 44.8893 39.7814 44.8869 39.8154C44.886 39.8291 44.8853 39.8427 44.8849 39.8563C44.8838 39.8862 44.8841 39.9161 44.8853 39.946C44.9164 40.655 45.5616 41.1472 46.2264 41.0273C47.577 40.7846 48.5212 40.8886 48.9573 41.3273C49.3204 41.6925 49.4518 42.4123 49.3472 43.4256L43.8776 45.3853ZM50.5734 39.7027C50.106 39.2328 49.5078 38.9138 48.7861 38.7459L58.9764 28.4997C59.4226 28.0509 59.4226 27.3236 58.9764 26.8749C58.53 26.4264 57.8067 26.4264 57.3605 26.8749L47.1705 37.1208C47.0035 36.3948 46.6864 35.7941 46.2188 35.324C45.7511 34.8539 45.1523 34.5364 44.43 34.3686L61.6733 17.0304L64.4122 19.7843L61.0908 23.124C60.6445 23.5728 60.6445 24.3001 61.0908 24.7487C61.5373 25.1974 62.2605 25.1973 62.7067 24.7487L66.0281 21.4091L68.7669 24.163L51.5234 41.5012C51.3566 40.775 51.0409 40.1728 50.5734 39.7027V39.7027ZM46.4464 9.60146V17.4941C46.4357 17.4878 46.4257 17.4806 46.4149 17.4743L32.8654 9.60146H46.4464ZM10.7494 21.4975C10.7504 20.657 11.2026 19.8724 11.9282 19.4505L27.4292 10.4603C28.154 10.0399 29.0541 10.0405 29.7783 10.4616L45.2712 19.4637C45.9962 19.8854 46.4466 20.67 46.4466 21.5114V29.0914L41.4089 34.1568V25.7576C41.4095 24.0973 40.5228 22.5503 39.0948 21.7204L30.9191 16.9702C29.4901 16.1395 27.7138 16.1391 26.2839 16.9682L18.1045 21.7124C16.6736 22.5423 15.7843 24.0885 15.7836 25.7481V35.2422C15.783 36.9026 16.6696 38.4495 18.0977 39.2793L26.2734 44.0296C26.9885 44.4453 27.7904 44.6531 28.5925 44.6531C29.3932 44.6531 30.1942 44.4456 30.9086 44.0314L39.0879 39.2874C39.1031 39.2787 39.1173 39.2686 39.1324 39.2597L36.8786 45.6201C36.7756 45.9108 36.7247 46.2088 36.7205 46.5039L29.7646 50.539C29.0385 50.9594 28.1376 50.9595 27.4133 50.5383L11.9201 41.5363C11.197 41.1156 10.7485 40.3317 10.7494 39.4886V21.4975ZM39.1236 25.7571V35.2513C39.1232 36.0921 38.672 36.8759 37.9459 37.297L29.7666 42.0412C29.0416 42.4615 28.1412 42.4613 27.4167 42.0401L19.241 37.2898C18.5174 36.8693 18.0683 36.085 18.0686 35.2425V25.7484C18.0689 24.9076 18.5201 24.1238 19.2462 23.7027L27.4255 18.9585C27.7878 18.7485 28.1936 18.6434 28.5998 18.6434C29.0064 18.6434 29.413 18.7488 29.7756 18.9594L37.9513 23.7096C38.6746 24.1302 39.1239 24.9145 39.1236 25.7571ZM10.7451 51.3984V43.506C10.7558 43.5123 10.7657 43.5194 10.7763 43.5256L24.3256 51.3985H10.7451V51.3984ZM39.5664 46.9299C39.3498 47.0074 39.1993 46.9013 39.1292 46.831C39.0593 46.7605 38.9534 46.6099 39.0308 46.3915L39.7178 44.4524L41.4946 46.2389L39.5664 46.9299ZM73.7776 23.3859C73.0743 24.0934 71.9293 24.0934 71.2259 23.3859L71.1908 23.3507L62.4814 14.5933L62.4463 14.5581C61.7428 13.8507 61.7428 12.6997 62.4463 11.9923C62.7981 11.6385 63.2601 11.4617 63.7222 11.4617C64.1842 11.4617 64.6463 11.6385 64.9981 11.9923L73.7778 20.8203C74.4812 21.5275 74.4812 22.6784 73.7776 23.3859Z" fill="#4D4B4B"/>
</g>
<defs>
<clipPath id="clip0_59:1084">
<rect width="78" height="61" fill="white"/>
</clipPath>
</defs>
</svg>
