<svg width="54" height="54" viewBox="0 0 54 54" fill="none" xmlns="http://www.w3.org/2000/svg">
<g clip-path="url(#clip0_252_576)">
<path d="M47.163 7.02236H46.5223C47.7436 5.034 47.2926 2.36453 45.3325 0.910251C43.2205 -0.656562 40.2193 -0.152221 38.7454 2.05034L35.4183 7.02247H6.83719C4.48792 7.02247 2.57666 8.93373 2.57666 11.283V38.5223C2.57666 40.8716 4.48792 42.7828 6.83719 42.7828H23.3864L22.1359 48.0348H19.4372C17.6783 48.0348 16.2473 49.4656 16.2473 51.2245V51.8905H12.9204C12.3379 51.8905 11.8657 52.3628 11.8657 52.9452C11.8657 53.5276 12.3379 53.9998 12.9204 53.9998H41.0799C41.6624 53.9998 42.1345 53.5276 42.1345 52.9452C42.1345 52.3628 41.6624 51.8905 41.0799 51.8905H37.7529V51.2245C37.7529 49.4656 36.3219 48.0348 34.5631 48.0348H31.8643L30.6139 42.7828H47.1631C49.5123 42.7828 51.4236 40.8716 51.4236 38.5223V32.5286V11.2829C51.4236 8.93363 49.5124 7.02236 47.163 7.02236ZM32.0515 25.5633C30.4025 26.7176 27.3133 25.1486 24.3632 26.7228C23.6434 22.9835 24.0972 19.4667 27.8439 18.6904C28.3281 18.5895 28.8494 18.5438 29.2932 18.5527C30.5614 19.4936 31.844 20.4452 33.1086 21.3835C33.6622 22.9938 33.4544 24.5813 32.0515 25.5633ZM33.1144 14.2585L36.0998 16.4735L33.8039 19.2727C32.8587 18.5715 32.0462 17.9686 31.101 17.2673C31.2973 16.974 32.935 14.5265 33.1144 14.2585ZM40.4985 3.22345C41.2973 2.02946 42.9265 1.75166 44.0756 2.60436C45.2252 3.45716 45.4311 5.09675 44.5202 6.20742C42.9039 8.17785 39.0613 12.8628 37.4389 14.8408L34.2887 12.5035L40.4985 3.22345ZM35.6435 51.2245V51.8905H18.3566V51.2245C18.3566 50.6288 18.8414 50.1441 19.4372 50.1441H34.563C35.1588 50.1441 35.6435 50.6288 35.6435 51.2245ZM29.6959 48.0348H24.3042L25.5546 42.7828H28.4455L29.6959 48.0348ZM49.3143 38.5223C49.3143 39.7085 48.3493 40.6735 47.1631 40.6735C45.4889 40.6735 8.71967 40.6735 6.8373 40.6735C5.65112 40.6735 4.6861 39.7085 4.6861 38.5223V33.5833H7.69991C8.2824 33.5833 8.75458 33.111 8.75458 32.5286C8.75458 31.9462 8.2824 31.474 7.69991 31.474H4.68588V11.2829C4.68588 10.0967 5.6509 9.13169 6.83709 9.13169H34.0069C32.9965 10.6417 30.0488 15.0468 29.1151 16.442C27.0483 16.4607 24.9848 17.1807 23.634 18.7576C21.7958 20.9033 21.4729 24.2749 22.6741 28.7785C22.8795 29.5487 23.8404 29.8246 24.4218 29.2692C27.1489 26.6634 30.5453 29.5057 33.5869 27.0439C35.4435 25.541 35.8829 23.1518 35.1828 20.9176C36.1292 19.7638 43.9011 10.2882 44.8497 9.13169H47.1629C48.3491 9.13169 49.3141 10.0967 49.3141 11.2829V31.4739H16.137C15.5545 31.4739 15.0823 31.9461 15.0823 32.5285C15.0823 33.1109 15.5545 33.5832 16.137 33.5832H49.3143V38.5223Z" fill="#949699"/>
<path d="M11.7146 31.4943C11.2069 31.5981 10.8667 32.0369 10.8667 32.529C10.8667 33.1887 11.4698 33.6939 12.127 33.5626C12.711 33.4441 13.0667 32.8813 12.9549 32.3223C12.8376 31.7454 12.2779 31.3809 11.7146 31.4943Z" fill="#949699"/>
</g>
<defs>
<clipPath id="clip0_252_576">
<rect width="54" height="54" fill="white"/>
</clipPath>
</defs>
</svg>
