<svg width="1055" height="1031" viewBox="0 0 1055 1031" fill="none" xmlns="http://www.w3.org/2000/svg">
<g clip-path="url(#clip0_234_443)">
<path d="M911.409 955.928L743.708 955.879L840.12 1016.54L911.409 955.928Z" fill="url(#paint0_linear_234_443)"/>
<path d="M549.35 1019.94L814.35 941.746L644.15 824.966L549.35 1019.94Z" fill="url(#paint1_linear_234_443)"/>
<path d="M7 15.0098L37.57 77.0098L124 15.0098H7Z" fill="url(#paint2_linear_234_443)"/>
<path d="M33 83.3659L162 156.01L123.82 15.0098L33 83.3659Z" fill="url(#paint3_linear_234_443)"/>
<path d="M37.9021 77.0107L7 107.319L162 156.011L37.9021 77.0107Z" fill="url(#paint4_linear_234_443)"/>
<path d="M540.35 76.5508L652.01 257.831L743.02 183.221L540.35 76.5508Z" fill="url(#paint5_linear_234_443)"/>
<path d="M652.01 257.831L501.47 280.831L540.35 76.5508L652.01 257.831Z" fill="url(#paint6_linear_234_443)"/>
<path d="M652.01 257.831L662.93 329.701L501.47 280.831L652.01 257.831Z" fill="url(#paint7_linear_234_443)"/>
<path d="M652.01 257.831L781.28 337.121L743.02 183.221L652.01 257.831Z" fill="url(#paint8_linear_234_443)"/>
<path d="M652.01 257.831L662.93 329.701L781.28 337.121L652.01 257.831Z" fill="url(#paint9_linear_234_443)"/>
<path d="M743.02 183.221L902.85 294.191L829.62 224.311L743.02 183.221Z" fill="url(#paint10_linear_234_443)"/>
<path d="M902.85 294.191L781.28 337.121L743.02 183.221L902.85 294.191Z" fill="url(#paint11_linear_234_443)"/>
<path d="M902.85 294.19L982.09 326.52L781.28 337.12L902.85 294.19Z" fill="url(#paint12_linear_234_443)"/>
<path d="M902.85 294.191L1034.89 323.781L829.62 224.311L902.85 294.191Z" fill="url(#paint13_linear_234_443)"/>
<path d="M903 294.011L967.813 327.011L1011 324.214L903 294.011Z" fill="url(#paint14_linear_234_443)"/>
<path d="M509.47 570.551L633.23 753.091V599.171L509.47 570.551Z" fill="url(#paint15_linear_234_443)"/>
<path d="M633.23 753.091L470.59 776.741L509.47 570.551L633.23 753.091Z" fill="url(#paint16_linear_234_443)"/>
<path d="M633.23 753.091L644.15 824.971L470.59 776.741L633.23 753.091Z" fill="url(#paint17_linear_234_443)"/>
<path d="M633.23 753.091L762.5 832.381L633.23 599.171V753.091Z" fill="url(#paint18_linear_234_443)"/>
<path d="M633.23 753.091L644.15 824.971L762.5 832.381L633.23 753.091Z" fill="url(#paint19_linear_234_443)"/>
<path d="M161.81 155.84L270.35 116.2L123.55 1.94043" fill="url(#paint20_linear_234_443)"/>
<path d="M292 15.0098L270.451 116.01L124 15.0098H292Z" fill="url(#paint21_linear_234_443)"/>
<path d="M291.585 15.0098L413 59.879L270 116.01L291.585 15.0098Z" fill="url(#paint22_linear_234_443)"/>
<path d="M270.35 116.2L300.59 251.42L413.45 52.7002L270.35 116.2Z" fill="url(#paint23_linear_234_443)"/>
<path d="M270.35 116.2L300.59 251.42L161.81 155.84L270.35 116.2Z" fill="url(#paint24_linear_234_443)"/>
<path d="M762.5 832.381L861.17 705.291L633.23 599.171L762.5 832.381Z" fill="url(#paint25_linear_234_443)"/>
<path d="M801.71 425.291L861.17 705.291L633.23 599.171L801.71 425.291Z" fill="url(#paint26_linear_234_443)"/>
<path d="M802 419L1004 640.139L861.296 705L802 419Z" fill="url(#paint27_linear_234_443)"/>
<path d="M861.17 705.291L891.41 840.521L1004.27 641.791L861.17 705.291Z" fill="url(#paint28_linear_234_443)"/>
<path d="M861.17 705.291L891.41 840.521L762.5 832.381L861.17 705.291Z" fill="url(#paint29_linear_234_443)"/>
<path d="M132.11 425.301L328.49 401.181L300.59 251.421L132.11 425.301Z" fill="url(#paint30_linear_234_443)"/>
<path d="M403.79 342.891L328.49 401.181L300.59 251.421L403.79 342.891Z" fill="url(#paint31_linear_234_443)"/>
<path d="M403.79 342.891L450.68 440.001L328.49 401.181L403.79 342.891Z" fill="url(#paint32_linear_234_443)"/>
<path d="M328.49 401.181L273.57 500.481L450.68 440.001L328.49 401.181Z" fill="url(#paint33_linear_234_443)"/>
<path d="M328.49 401.181L273.57 500.481L132.11 425.301L328.49 401.181Z" fill="url(#paint34_linear_234_443)"/>
<path d="M7 634.011L151 609.835L136.87 425.011L7 634.011Z" fill="url(#paint35_linear_234_443)"/>
<path d="M273.66 500.481L151.38 609.701L132.11 425.301L273.66 500.481Z" fill="url(#paint36_linear_234_443)"/>
<path d="M273.66 500.48L298.35 768.44L151.38 609.7L273.66 500.48Z" fill="url(#paint37_linear_234_443)"/>
<path d="M151.38 609.701L96.4502 709.001L298.35 768.441L151.38 609.701Z" fill="url(#paint38_linear_234_443)"/>
<path d="M151 610.011L110.721 709.011L7 634.058L151 610.011Z" fill="url(#paint39_linear_234_443)"/>
<path d="M161.81 155.841L76.0103 260.171L300.59 251.421L161.81 155.841Z" fill="url(#paint40_linear_234_443)"/>
<path d="M162 155.817L79.6328 260.011L7 107.011L162 155.817Z" fill="url(#paint41_linear_234_443)"/>
<path d="M76.0103 260.171L132.11 425.301L300.59 251.421L76.0103 260.171Z" fill="url(#paint42_linear_234_443)"/>
<path d="M7 107.011V342.011L76 260.426L7 107.011Z" fill="url(#paint43_linear_234_443)"/>
<path d="M132.11 425.301L0.350098 341.641L76.0101 260.171L132.11 425.301Z" fill="url(#paint44_linear_234_443)"/>
<path d="M859.578 15.0098L774 59.0098L998 55.3196L859.578 15.0098Z" fill="url(#paint45_linear_234_443)"/>
<path d="M859 15.0098L773.192 68.1606L540 77.0098L859 15.0098Z" fill="url(#paint46_linear_234_443)"/>
<path d="M773.52 59.1807L829.62 224.311L998.1 50.4307L773.52 59.1807Z" fill="url(#paint47_linear_234_443)"/>
<path d="M540.35 76.5507L743.02 183.611L773.52 59.1807L540.35 76.5507Z" fill="url(#paint48_linear_234_443)"/>
<path d="M829.62 224.311L743.02 183.611L773.52 59.1807L829.62 224.311Z" fill="url(#paint49_linear_234_443)"/>
<path d="M662.93 329.701L577.13 434.031L801.71 425.291L662.93 329.701Z" fill="url(#paint50_linear_234_443)"/>
<path d="M662.93 329.701L577.13 434.031L501.47 280.831L662.93 329.701Z" fill="url(#paint51_linear_234_443)"/>
<path d="M577.13 434.031L633.23 599.171L801.71 425.291L577.13 434.031Z" fill="url(#paint52_linear_234_443)"/>
<path d="M501.47 280.831L450.68 440.001L577.13 434.031L501.47 280.831Z" fill="url(#paint53_linear_234_443)"/>
<path d="M633.23 599.171L450.68 440.001L577.13 434.031L633.23 599.171Z" fill="url(#paint54_linear_234_443)"/>
<path d="M970.014 324L949 428L1004 419.278L970.014 324Z" fill="url(#paint55_linear_234_443)"/>
<path d="M1010 324.5L949.03 428.071L781.28 337.121L1010 324.5Z" fill="url(#paint56_linear_234_443)"/>
<path d="M781.28 337.121L662.93 329.701L949.03 428.071L781.28 337.121Z" fill="url(#paint57_linear_234_443)"/>
<path d="M1004.27 641.791L662.93 329.701L949.03 428.071L1004.27 641.791Z" fill="url(#paint58_linear_234_443)"/>
<path d="M470.59 776.74L584.02 888.27L644.15 824.97L470.59 776.74Z" fill="url(#paint59_linear_234_443)"/>
<path d="M470.59 776.74L584.02 888.27L298.35 768.44L470.59 776.74Z" fill="url(#paint60_linear_234_443)"/>
<path d="M584.02 888.266L549.35 1019.94L644.15 824.966L584.02 888.266Z" fill="url(#paint61_linear_234_443)"/>
<path d="M549.35 1019.94L298.35 768.44L584.02 888.27L549.35 1019.94Z" fill="url(#paint62_linear_234_443)"/>
<path d="M300.59 251.42L413.45 190.99V52.7002L300.59 251.42Z" fill="url(#paint63_linear_234_443)"/>
<path d="M413.45 190.99L540.35 76.5502L413.45 52.7002V190.99Z" fill="url(#paint64_linear_234_443)"/>
<path d="M300.59 251.42L501.47 282.74L413.45 190.99L300.59 251.42Z" fill="url(#paint65_linear_234_443)"/>
<path d="M413.45 190.991L501.47 282.741L540.35 76.5508L413.45 190.991Z" fill="url(#paint66_linear_234_443)"/>
<path d="M273.57 500.481L382.57 684.991L450.68 440.001L273.57 500.481Z" fill="url(#paint67_linear_234_443)"/>
<path d="M382.57 684.991L509.47 570.551L450.68 440.001L382.57 684.991Z" fill="url(#paint68_linear_234_443)"/>
<path d="M273.57 500.48L298.35 768.44L382.57 684.99L273.57 500.48Z" fill="url(#paint69_linear_234_443)"/>
<path d="M382.57 684.991L470.59 776.741L509.47 570.551L382.57 684.991Z" fill="url(#paint70_linear_234_443)"/>
<path d="M300.59 251.421L403.79 342.891L501.47 282.741L300.59 251.421Z" fill="url(#paint71_linear_234_443)"/>
<path d="M403.79 342.891L501.47 282.741L450.68 440.001" fill="url(#paint72_linear_234_443)"/>
<path d="M298.35 768.44L470.59 776.74L382.57 684.99L298.35 768.44Z" fill="url(#paint73_linear_234_443)"/>
<path d="M491 15.0098L539.961 77.0098L859 15.0098H491Z" fill="url(#paint74_linear_234_443)"/>
<path d="M418.785 54.0086L539.134 76.1968L497.403 22.5858L418.785 54.0086Z" fill="url(#paint75_linear_234_443)"/>
<path d="M833 230.011L995 193.223L914.282 146.011L833 230.011Z" fill="url(#paint76_linear_234_443)"/>
<path d="M830 229.203L940.646 283.011L1011 188.011L830 229.203Z" fill="url(#paint77_linear_234_443)"/>
<path d="M633.23 599.171L450.68 440.001L509.47 570.551L633.23 599.171Z" fill="url(#paint78_linear_234_443)"/>
<path d="M96 709.274L90.6581 882L7 634L96 709.274Z" fill="url(#paint79_linear_234_443)"/>
<path d="M213.35 920.271L87.96 881.511L96.45 709.001L213.35 920.271Z" fill="url(#paint80_linear_234_443)"/>
<path d="M7 634.011L12.6961 975.011L88 881.614L7 634.011Z" fill="url(#paint81_linear_234_443)"/>
<path d="M6.99964 958.501L190.803 926.897L85.9651 882.146L6.99964 958.501Z" fill="url(#paint82_linear_234_443)"/>
<path d="M1010.34 22.2046L831 224.44L1010.21 97.2451L1010.34 22.2046Z" fill="url(#paint83_linear_234_443)"/>
<path d="M298.35 768.441L417.24 941.751L96.4502 709.001L298.35 768.441Z" fill="url(#paint84_linear_234_443)"/>
<path d="M549.35 1019.94L417.24 941.75L298.35 768.44L549.35 1019.94Z" fill="url(#paint85_linear_234_443)"/>
<path d="M96.4502 709.001L213.35 920.271L417.24 941.751L96.4502 709.001Z" fill="url(#paint86_linear_234_443)"/>
<path d="M213 920.004L403.357 928.948L424 1003L213 920.004Z" fill="url(#paint87_linear_234_443)"/>
<path d="M891.41 840.516L814.35 941.746L644.15 824.966L891.41 840.516Z" fill="url(#paint88_linear_234_443)"/>
<path d="M664.993 1010.85L640.42 824.146L857.719 974.357L664.993 1010.85Z" fill="url(#paint89_linear_234_443)"/>
<path d="M213.35 920.264L14.5 961L53 1002L213.35 920.264Z" fill="url(#paint90_linear_234_443)"/>
<path d="M893 839.609L1011 892L962.182 730L893 839.609Z" fill="url(#paint91_linear_234_443)"/>
<path d="M890.954 974.93L1012 862.291L1009 732.291L890.954 974.93Z" fill="url(#paint92_linear_234_443)"/>
<path d="M7 342.011L132 425.674L7.63563 580.011L7 342.011Z" fill="url(#paint93_linear_234_443)"/>
<path d="M913.754 445.408L1009.99 654.695L961.563 416.634L913.754 445.408Z" fill="url(#paint94_linear_234_443)"/>
<g style="mix-blend-mode:multiply" opacity="0.55">
<path d="M1010.92 15.0098H7V1018.93H1010.92V15.0098Z" fill="#F7941E"/>
</g>
</g>
<defs>
<linearGradient id="paint0_linear_234_443" x1="-161601" y1="-110470" x2="-113338" y2="-97537.9" gradientUnits="userSpaceOnUse">
<stop stop-color="#D1D3D4"/>
<stop offset="0.23" stop-color="#CDCFD0"/>
<stop offset="0.45" stop-color="#C2C4C5"/>
<stop offset="0.66" stop-color="#AFB1B3"/>
<stop offset="0.87" stop-color="#949699"/>
<stop offset="1" stop-color="#808285"/>
</linearGradient>
<linearGradient id="paint1_linear_234_443" x1="181147" y1="199304" x2="181147" y2="161291" gradientUnits="userSpaceOnUse">
<stop stop-color="white"/>
<stop offset="0.41" stop-color="#FBFBFC"/>
<stop offset="0.79" stop-color="#F0F1F1"/>
<stop offset="1" stop-color="#E6E7E8"/>
</linearGradient>
<linearGradient id="paint2_linear_234_443" x1="65.5" y1="77.0098" x2="65.5" y2="15.0098" gradientUnits="userSpaceOnUse">
<stop stop-color="white"/>
<stop offset="0.29" stop-color="#FBFBFB"/>
<stop offset="0.59" stop-color="#EEEEEF"/>
<stop offset="0.91" stop-color="#D8DADB"/>
<stop offset="1" stop-color="#D1D3D4"/>
</linearGradient>
<linearGradient id="paint3_linear_234_443" x1="37.4407" y1="104.328" x2="146.184" y2="81.3108" gradientUnits="userSpaceOnUse">
<stop stop-color="#E6E7E8"/>
<stop offset="0.26" stop-color="#E2E3E4"/>
<stop offset="0.51" stop-color="#D7D8DA"/>
<stop offset="0.75" stop-color="#C4C5C7"/>
<stop offset="0.98" stop-color="#A9ABAE"/>
<stop offset="1" stop-color="#A7A9AC"/>
</linearGradient>
<linearGradient id="paint4_linear_234_443" x1="84.5" y1="156.011" x2="84.5" y2="77.0107" gradientUnits="userSpaceOnUse">
<stop stop-color="#D1D3D4"/>
<stop offset="0.44" stop-color="#CDCFD0"/>
<stop offset="0.85" stop-color="#C2C4C6"/>
<stop offset="1" stop-color="#BCBEC0"/>
</linearGradient>
<linearGradient id="paint5_linear_234_443" x1="130521" y1="46464.3" x2="130521" y2="13601.9" gradientUnits="userSpaceOnUse">
<stop stop-color="white"/>
<stop offset="0.29" stop-color="#FBFBFB"/>
<stop offset="0.59" stop-color="#EEEEEF"/>
<stop offset="0.91" stop-color="#D8DADB"/>
<stop offset="1" stop-color="#D1D3D4"/>
</linearGradient>
<linearGradient id="paint6_linear_234_443" x1="100179" y1="46141.7" x2="75557.4" y2="39893.9" gradientUnits="userSpaceOnUse">
<stop stop-color="white"/>
<stop offset="1" stop-color="#E6E7E8"/>
</linearGradient>
<linearGradient id="paint7_linear_234_443" x1="107309" y1="23920.3" x2="98630.8" y2="9754.05" gradientUnits="userSpaceOnUse">
<stop stop-color="white"/>
<stop offset="1" stop-color="#E6E7E8"/>
</linearGradient>
<linearGradient id="paint8_linear_234_443" x1="85467.4" y1="43085.9" x2="99803.2" y2="40745.9" gradientUnits="userSpaceOnUse">
<stop stop-color="#E6E7E8"/>
<stop offset="0.26" stop-color="#E2E3E4"/>
<stop offset="0.51" stop-color="#D7D8DA"/>
<stop offset="0.75" stop-color="#C4C5C7"/>
<stop offset="0.98" stop-color="#A9ABAE"/>
<stop offset="1" stop-color="#A7A9AC"/>
</linearGradient>
<linearGradient id="paint9_linear_234_443" x1="93248.1" y1="26834.2" x2="93248.1" y2="20547.3" gradientUnits="userSpaceOnUse">
<stop stop-color="#D1D3D4"/>
<stop offset="0.44" stop-color="#CDCFD0"/>
<stop offset="0.85" stop-color="#C2C4C6"/>
<stop offset="1" stop-color="#BCBEC0"/>
</linearGradient>
<linearGradient id="paint10_linear_234_443" x1="132218" y1="32614.2" x2="132218" y2="20299.9" gradientUnits="userSpaceOnUse">
<stop stop-color="white"/>
<stop offset="0.29" stop-color="#FBFBFB"/>
<stop offset="0.59" stop-color="#EEEEEF"/>
<stop offset="0.91" stop-color="#D8DADB"/>
<stop offset="1" stop-color="#D1D3D4"/>
</linearGradient>
<linearGradient id="paint11_linear_234_443" x1="144280" y1="47145.8" x2="116216" y2="37109.1" gradientUnits="userSpaceOnUse">
<stop stop-color="white"/>
<stop offset="1" stop-color="#E6E7E8"/>
</linearGradient>
<linearGradient id="paint12_linear_234_443" x1="944.88" y1="377.74" x2="818.49" y2="285.9" gradientUnits="userSpaceOnUse">
<stop stop-color="white"/>
<stop offset="1" stop-color="#A7A9AC"/>
</linearGradient>
<linearGradient id="paint13_linear_234_443" x1="173735" y1="29022.9" x2="206607" y2="15834.1" gradientUnits="userSpaceOnUse">
<stop stop-color="#E6E7E8"/>
<stop offset="0.26" stop-color="#E2E3E4"/>
<stop offset="0.51" stop-color="#D7D8DA"/>
<stop offset="0.75" stop-color="#C4C5C7"/>
<stop offset="0.98" stop-color="#A9ABAE"/>
<stop offset="1" stop-color="#A7A9AC"/>
</linearGradient>
<linearGradient id="paint14_linear_234_443" x1="105503" y1="11005.2" x2="105503" y2="9938.26" gradientUnits="userSpaceOnUse">
<stop stop-color="#D1D3D4"/>
<stop offset="0.44" stop-color="#CDCFD0"/>
<stop offset="0.85" stop-color="#C2C4C6"/>
<stop offset="1" stop-color="#BCBEC0"/>
</linearGradient>
<linearGradient id="paint15_linear_234_443" x1="71176.4" y1="137685" x2="71176.4" y2="104365" gradientUnits="userSpaceOnUse">
<stop stop-color="white"/>
<stop offset="0.29" stop-color="#FBFBFB"/>
<stop offset="0.59" stop-color="#EEEEEF"/>
<stop offset="0.91" stop-color="#D8DADB"/>
<stop offset="1" stop-color="#D1D3D4"/>
</linearGradient>
<linearGradient id="paint16_linear_234_443" x1="104911" y1="149895" x2="76644.6" y2="142218" gradientUnits="userSpaceOnUse">
<stop stop-color="white"/>
<stop offset="1" stop-color="#E6E7E8"/>
</linearGradient>
<linearGradient id="paint17_linear_234_443" x1="111634" y1="60240.3" x2="102755" y2="44663.8" gradientUnits="userSpaceOnUse">
<stop stop-color="white"/>
<stop offset="1" stop-color="#E6E7E8"/>
</linearGradient>
<linearGradient id="paint18_linear_234_443" x1="628.59" y1="729.241" x2="738.3" y2="707.911" gradientUnits="userSpaceOnUse">
<stop stop-color="#D1D3D4"/>
<stop offset="0.23" stop-color="#CDCFD0"/>
<stop offset="0.45" stop-color="#C2C4C5"/>
<stop offset="0.66" stop-color="#AFB1B3"/>
<stop offset="0.87" stop-color="#949699"/>
<stop offset="1" stop-color="#808285"/>
</linearGradient>
<linearGradient id="paint19_linear_234_443" x1="90800.4" y1="66598.7" x2="90800.4" y2="60311.8" gradientUnits="userSpaceOnUse">
<stop stop-color="#D1D3D4"/>
<stop offset="0.44" stop-color="#CDCFD0"/>
<stop offset="0.85" stop-color="#C2C4C6"/>
<stop offset="1" stop-color="#BCBEC0"/>
</linearGradient>
<linearGradient id="paint20_linear_234_443" x1="28984.4" y1="23687.1" x2="28984.4" y2="1.94043" gradientUnits="userSpaceOnUse">
<stop stop-color="white"/>
<stop offset="1" stop-color="#E6E7E8"/>
</linearGradient>
<linearGradient id="paint21_linear_234_443" x1="208" y1="116.01" x2="208" y2="15.0098" gradientUnits="userSpaceOnUse">
<stop stop-color="white"/>
<stop offset="1" stop-color="#D1D3D4"/>
</linearGradient>
<linearGradient id="paint22_linear_234_443" x1="49111.7" y1="11555.3" x2="49111.7" y2="15.0098" gradientUnits="userSpaceOnUse">
<stop stop-color="#E6E7E8"/>
<stop offset="0.26" stop-color="#E2E3E4"/>
<stop offset="0.51" stop-color="#D7D8DA"/>
<stop offset="0.75" stop-color="#C4C5C7"/>
<stop offset="0.98" stop-color="#A9ABAE"/>
<stop offset="1" stop-color="#A7A9AC"/>
</linearGradient>
<linearGradient id="paint23_linear_234_443" x1="49146.2" y1="49629.4" x2="49146.2" y2="10139.7" gradientUnits="userSpaceOnUse">
<stop stop-color="#D1D3D4"/>
<stop offset="0.23" stop-color="#CDCFD0"/>
<stop offset="0.45" stop-color="#C2C4C5"/>
<stop offset="0.66" stop-color="#AFB1B3"/>
<stop offset="0.87" stop-color="#949699"/>
<stop offset="1" stop-color="#808285"/>
</linearGradient>
<linearGradient id="paint24_linear_234_443" x1="249" y1="112.05" x2="224.78" y2="236.68" gradientUnits="userSpaceOnUse">
<stop stop-color="white"/>
<stop offset="0.41" stop-color="#FBFBFC"/>
<stop offset="0.79" stop-color="#F0F1F1"/>
<stop offset="1" stop-color="#E6E7E8"/>
</linearGradient>
<linearGradient id="paint25_linear_234_443" x1="170870" y1="194266" x2="170870" y2="139879" gradientUnits="userSpaceOnUse">
<stop stop-color="white"/>
<stop offset="1" stop-color="#E6E7E8"/>
</linearGradient>
<linearGradient id="paint26_linear_234_443" x1="170870" y1="197363" x2="170870" y2="118963" gradientUnits="userSpaceOnUse">
<stop stop-color="white"/>
<stop offset="1" stop-color="#D1D3D4"/>
</linearGradient>
<linearGradient id="paint27_linear_234_443" x1="183135" y1="201577" x2="183135" y2="121497" gradientUnits="userSpaceOnUse">
<stop stop-color="#E6E7E8"/>
<stop offset="0.26" stop-color="#E2E3E4"/>
<stop offset="0.51" stop-color="#D7D8DA"/>
<stop offset="0.75" stop-color="#C4C5C7"/>
<stop offset="0.98" stop-color="#A9ABAE"/>
<stop offset="1" stop-color="#A7A9AC"/>
</linearGradient>
<linearGradient id="paint28_linear_234_443" x1="134283" y1="167291" x2="134283" y2="127799" gradientUnits="userSpaceOnUse">
<stop stop-color="#D1D3D4"/>
<stop offset="0.23" stop-color="#CDCFD0"/>
<stop offset="0.45" stop-color="#C2C4C5"/>
<stop offset="0.66" stop-color="#AFB1B3"/>
<stop offset="0.87" stop-color="#949699"/>
<stop offset="1" stop-color="#808285"/>
</linearGradient>
<linearGradient id="paint29_linear_234_443" x1="110648" y1="95598.9" x2="106775" y2="114589" gradientUnits="userSpaceOnUse">
<stop stop-color="white"/>
<stop offset="0.41" stop-color="#FBFBFC"/>
<stop offset="0.79" stop-color="#F0F1F1"/>
<stop offset="1" stop-color="#E6E7E8"/>
</linearGradient>
<linearGradient id="paint30_linear_234_443" x1="-88682.9" y1="139501" x2="-60786.9" y2="108026" gradientUnits="userSpaceOnUse">
<stop stop-color="white"/>
<stop offset="1" stop-color="#E6E7E8"/>
</linearGradient>
<linearGradient id="paint31_linear_234_443" x1="-66798.1" y1="98881.4" x2="-57502.6" y2="88393.2" gradientUnits="userSpaceOnUse">
<stop stop-color="#E6E7E8"/>
<stop offset="0.26" stop-color="#E2E3E4"/>
<stop offset="0.51" stop-color="#D7D8DA"/>
<stop offset="0.75" stop-color="#C4C5C7"/>
<stop offset="0.98" stop-color="#A9ABAE"/>
<stop offset="1" stop-color="#A7A9AC"/>
</linearGradient>
<linearGradient id="paint32_linear_234_443" x1="-27035.5" y1="78451.6" x2="-21008.6" y2="71651.4" gradientUnits="userSpaceOnUse">
<stop stop-color="#E6E7E8"/>
<stop offset="0.26" stop-color="#E2E3E4"/>
<stop offset="0.51" stop-color="#D7D8DA"/>
<stop offset="0.75" stop-color="#C4C5C7"/>
<stop offset="0.98" stop-color="#A9ABAE"/>
<stop offset="1" stop-color="#A7A9AC"/>
</linearGradient>
<linearGradient id="paint33_linear_234_443" x1="-25079.5" y1="97276.2" x2="-14361.6" y2="85183.1" gradientUnits="userSpaceOnUse">
<stop stop-color="#D1D3D4"/>
<stop offset="0.23" stop-color="#CDCFD0"/>
<stop offset="0.45" stop-color="#C2C4C5"/>
<stop offset="0.66" stop-color="#AFB1B3"/>
<stop offset="0.87" stop-color="#949699"/>
<stop offset="1" stop-color="#808285"/>
</linearGradient>
<linearGradient id="paint34_linear_234_443" x1="-26436.1" y1="80687.5" x2="-39028" y2="92362.3" gradientUnits="userSpaceOnUse">
<stop stop-color="white"/>
<stop offset="0.41" stop-color="#FBFBFC"/>
<stop offset="0.79" stop-color="#F0F1F1"/>
<stop offset="1" stop-color="#E6E7E8"/>
</linearGradient>
<linearGradient id="paint35_linear_234_443" x1="-108459" y1="207448" x2="-70959.1" y2="176494" gradientUnits="userSpaceOnUse">
<stop stop-color="white"/>
<stop offset="1" stop-color="#E6E7E8"/>
</linearGradient>
<linearGradient id="paint36_linear_234_443" x1="-114739" y1="160725" x2="-94822.1" y2="138253" gradientUnits="userSpaceOnUse">
<stop stop-color="#E6E7E8"/>
<stop offset="0.26" stop-color="#E2E3E4"/>
<stop offset="0.51" stop-color="#D7D8DA"/>
<stop offset="0.75" stop-color="#C4C5C7"/>
<stop offset="0.98" stop-color="#A9ABAE"/>
<stop offset="1" stop-color="#A7A9AC"/>
</linearGradient>
<linearGradient id="paint37_linear_234_443" x1="217.815" y1="697.017" x2="339.964" y2="559.196" gradientUnits="userSpaceOnUse">
<stop stop-color="#D1D3D4"/>
<stop offset="0.32" stop-color="#CDCFD0"/>
<stop offset="0.62" stop-color="#C2C4C6"/>
<stop offset="0.91" stop-color="#AFB1B4"/>
<stop offset="1" stop-color="#A7A9AC"/>
</linearGradient>
<linearGradient id="paint38_linear_234_443" x1="-76769.3" y1="181543" x2="-65109.7" y2="168387" gradientUnits="userSpaceOnUse">
<stop stop-color="#D1D3D4"/>
<stop offset="0.23" stop-color="#CDCFD0"/>
<stop offset="0.45" stop-color="#C2C4C5"/>
<stop offset="0.66" stop-color="#AFB1B3"/>
<stop offset="0.87" stop-color="#949699"/>
<stop offset="1" stop-color="#808285"/>
</linearGradient>
<linearGradient id="paint39_linear_234_443" x1="-32133.1" y1="101495" x2="-43853.1" y2="109488" gradientUnits="userSpaceOnUse">
<stop stop-color="white"/>
<stop offset="0.41" stop-color="#FBFBFC"/>
<stop offset="0.79" stop-color="#F0F1F1"/>
<stop offset="1" stop-color="#E6E7E8"/>
</linearGradient>
<linearGradient id="paint40_linear_234_443" x1="42285.8" y1="27097" x2="42285.8" y2="16212.2" gradientUnits="userSpaceOnUse">
<stop stop-color="#D1D3D4"/>
<stop offset="0.23" stop-color="#CDCFD0"/>
<stop offset="0.45" stop-color="#C2C4C5"/>
<stop offset="0.66" stop-color="#AFB1B3"/>
<stop offset="0.87" stop-color="#949699"/>
<stop offset="1" stop-color="#808285"/>
</linearGradient>
<linearGradient id="paint41_linear_234_443" x1="12520.2" y1="39616.2" x2="12520.2" y2="16176.6" gradientUnits="userSpaceOnUse">
<stop stop-color="white"/>
<stop offset="1" stop-color="#A7A9AC"/>
</linearGradient>
<linearGradient id="paint42_linear_234_443" x1="42285.8" y1="73865.2" x2="42285.8" y2="43631" gradientUnits="userSpaceOnUse">
<stop stop-color="#D1D3D4"/>
<stop offset="0.23" stop-color="#CDCFD0"/>
<stop offset="0.45" stop-color="#C2C4C5"/>
<stop offset="0.66" stop-color="#AFB1B3"/>
<stop offset="0.87" stop-color="#949699"/>
<stop offset="1" stop-color="#808285"/>
</linearGradient>
<linearGradient id="paint43_linear_234_443" x1="41.5" y1="342.021" x2="41.5" y2="107.011" gradientUnits="userSpaceOnUse">
<stop stop-color="white"/>
<stop offset="0.02" stop-color="#FEFEFE"/>
<stop offset="0.59" stop-color="#ECEDEE"/>
<stop offset="1" stop-color="#E6E7E8"/>
</linearGradient>
<linearGradient id="paint44_linear_234_443" x1="2207.33" y1="50142.6" x2="21980.6" y2="57167.3" gradientUnits="userSpaceOnUse">
<stop stop-color="#E6E7E8"/>
<stop offset="0.26" stop-color="#E2E3E4"/>
<stop offset="0.51" stop-color="#D7D8DA"/>
<stop offset="0.75" stop-color="#C4C5C7"/>
<stop offset="0.98" stop-color="#A9ABAE"/>
<stop offset="1" stop-color="#A7A9AC"/>
</linearGradient>
<linearGradient id="paint45_linear_234_443" x1="199117" y1="2533.57" x2="199117" y2="-2056.95" gradientUnits="userSpaceOnUse">
<stop stop-color="#D1D3D4"/>
<stop offset="0.23" stop-color="#CDCFD0"/>
<stop offset="0.45" stop-color="#C2C4C5"/>
<stop offset="0.66" stop-color="#AFB1B3"/>
<stop offset="0.87" stop-color="#949699"/>
<stop offset="1" stop-color="#808285"/>
</linearGradient>
<linearGradient id="paint46_linear_234_443" x1="223677" y1="4640.83" x2="223677" y2="-2904.57" gradientUnits="userSpaceOnUse">
<stop stop-color="white"/>
<stop offset="1" stop-color="#A7A9AC"/>
</linearGradient>
<linearGradient id="paint47_linear_234_443" x1="199630" y1="38716.1" x2="199630" y2="8481.87" gradientUnits="userSpaceOnUse">
<stop stop-color="#D1D3D4"/>
<stop offset="0.23" stop-color="#CDCFD0"/>
<stop offset="0.45" stop-color="#C2C4C5"/>
<stop offset="0.66" stop-color="#AFB1B3"/>
<stop offset="0.87" stop-color="#949699"/>
<stop offset="1" stop-color="#808285"/>
</linearGradient>
<linearGradient id="paint48_linear_234_443" x1="153637" y1="22664.4" x2="153637" y2="7181.55" gradientUnits="userSpaceOnUse">
<stop stop-color="white"/>
<stop offset="0.02" stop-color="#FEFEFE"/>
<stop offset="0.59" stop-color="#ECEDEE"/>
<stop offset="1" stop-color="#E6E7E8"/>
</linearGradient>
<linearGradient id="paint49_linear_234_443" x1="65444.5" y1="19168" x2="76089.4" y2="21653.3" gradientUnits="userSpaceOnUse">
<stop stop-color="#E6E7E8"/>
<stop offset="0.26" stop-color="#E2E3E4"/>
<stop offset="0.51" stop-color="#D7D8DA"/>
<stop offset="0.75" stop-color="#C4C5C7"/>
<stop offset="0.98" stop-color="#A9ABAE"/>
<stop offset="1" stop-color="#A7A9AC"/>
</linearGradient>
<linearGradient id="paint50_linear_234_443" x1="155328" y1="45409.6" x2="155328" y2="34525.9" gradientUnits="userSpaceOnUse">
<stop stop-color="#D1D3D4"/>
<stop offset="0.23" stop-color="#CDCFD0"/>
<stop offset="0.45" stop-color="#C2C4C5"/>
<stop offset="0.66" stop-color="#AFB1B3"/>
<stop offset="0.87" stop-color="#949699"/>
<stop offset="1" stop-color="#808285"/>
</linearGradient>
<linearGradient id="paint51_linear_234_443" x1="94447" y1="66477" x2="94447" y2="43008.3" gradientUnits="userSpaceOnUse">
<stop stop-color="white"/>
<stop offset="1" stop-color="#A7A9AC"/>
</linearGradient>
<linearGradient id="paint52_linear_234_443" x1="155328" y1="104272" x2="155328" y2="74037.4" gradientUnits="userSpaceOnUse">
<stop stop-color="#D1D3D4"/>
<stop offset="0.23" stop-color="#CDCFD0"/>
<stop offset="0.45" stop-color="#C2C4C5"/>
<stop offset="0.66" stop-color="#AFB1B3"/>
<stop offset="0.87" stop-color="#949699"/>
<stop offset="1" stop-color="#808285"/>
</linearGradient>
<linearGradient id="paint53_linear_234_443" x1="65390.4" y1="70006.8" x2="65390.4" y2="44673.3" gradientUnits="userSpaceOnUse">
<stop stop-color="white"/>
<stop offset="0.02" stop-color="#FEFEFE"/>
<stop offset="0.59" stop-color="#ECEDEE"/>
<stop offset="1" stop-color="#E6E7E8"/>
</linearGradient>
<linearGradient id="paint54_linear_234_443" x1="82129" y1="73852" x2="119369" y2="92180" gradientUnits="userSpaceOnUse">
<stop stop-color="#E6E7E8"/>
<stop offset="0.26" stop-color="#E2E3E4"/>
<stop offset="0.51" stop-color="#D7D8DA"/>
<stop offset="0.75" stop-color="#C4C5C7"/>
<stop offset="0.98" stop-color="#A9ABAE"/>
<stop offset="1" stop-color="#A7A9AC"/>
</linearGradient>
<linearGradient id="paint55_linear_234_443" x1="59302.9" y1="44641.5" x2="59302.9" y2="33791.2" gradientUnits="userSpaceOnUse">
<stop stop-color="#D1D3D4"/>
<stop offset="0.23" stop-color="#CDCFD0"/>
<stop offset="0.45" stop-color="#C2C4C5"/>
<stop offset="0.66" stop-color="#AFB1B3"/>
<stop offset="0.87" stop-color="#949699"/>
<stop offset="1" stop-color="#808285"/>
</linearGradient>
<linearGradient id="paint56_linear_234_443" x1="230940" y1="44781.9" x2="230940" y2="33897.1" gradientUnits="userSpaceOnUse">
<stop stop-color="white"/>
<stop offset="1" stop-color="#A7A9AC"/>
</linearGradient>
<linearGradient id="paint57_linear_234_443" x1="231154" y1="42248.1" x2="231154" y2="32572.4" gradientUnits="userSpaceOnUse">
<stop stop-color="white"/>
<stop offset="0.02" stop-color="#FEFEFE"/>
<stop offset="0.59" stop-color="#ECEDEE"/>
<stop offset="1" stop-color="#E6E7E8"/>
</linearGradient>
<linearGradient id="paint58_linear_234_443" x1="218513" y1="119695" x2="351034" y2="184225" gradientUnits="userSpaceOnUse">
<stop stop-color="#E6E7E8"/>
<stop offset="0.26" stop-color="#E2E3E4"/>
<stop offset="0.51" stop-color="#D7D8DA"/>
<stop offset="0.75" stop-color="#C4C5C7"/>
<stop offset="0.98" stop-color="#A9ABAE"/>
<stop offset="1" stop-color="#A7A9AC"/>
</linearGradient>
<linearGradient id="paint59_linear_234_443" x1="97147" y1="99629.2" x2="97147" y2="87190.2" gradientUnits="userSpaceOnUse">
<stop stop-color="#D1D3D4"/>
<stop offset="0.23" stop-color="#CDCFD0"/>
<stop offset="0.45" stop-color="#C2C4C5"/>
<stop offset="0.66" stop-color="#AFB1B3"/>
<stop offset="0.87" stop-color="#949699"/>
<stop offset="1" stop-color="#808285"/>
</linearGradient>
<linearGradient id="paint60_linear_234_443" x1="126230" y1="106977" x2="126230" y2="92618.1" gradientUnits="userSpaceOnUse">
<stop stop-color="white"/>
<stop offset="0.29" stop-color="#FBFBFB"/>
<stop offset="0.59" stop-color="#EEEEEF"/>
<stop offset="0.91" stop-color="#D8DADB"/>
<stop offset="1" stop-color="#D1D3D4"/>
</linearGradient>
<linearGradient id="paint61_linear_234_443" x1="57088.1" y1="199304" x2="57088.1" y2="161291" gradientUnits="userSpaceOnUse">
<stop stop-color="#D1D3D4"/>
<stop offset="0.23" stop-color="#CDCFD0"/>
<stop offset="0.45" stop-color="#C2C4C5"/>
<stop offset="0.66" stop-color="#AFB1B3"/>
<stop offset="0.87" stop-color="#949699"/>
<stop offset="1" stop-color="#808285"/>
</linearGradient>
<linearGradient id="paint62_linear_234_443" x1="78400.5" y1="207439" x2="160975" y2="249197" gradientUnits="userSpaceOnUse">
<stop stop-color="white"/>
<stop offset="0.41" stop-color="#FBFBFC"/>
<stop offset="0.79" stop-color="#F0F1F1"/>
<stop offset="1" stop-color="#E6E7E8"/>
</linearGradient>
<linearGradient id="paint63_linear_234_443" x1="40554.4" y1="49629.4" x2="40554.4" y2="10139.7" gradientUnits="userSpaceOnUse">
<stop stop-color="white"/>
<stop offset="0.41" stop-color="#FBFBFC"/>
<stop offset="0.79" stop-color="#F0F1F1"/>
<stop offset="1" stop-color="#E6E7E8"/>
</linearGradient>
<linearGradient id="paint64_linear_234_443" x1="60887.6" y1="26196.4" x2="60887.6" y2="7072.3" gradientUnits="userSpaceOnUse">
<stop stop-color="#E6E7E8"/>
<stop offset="0.26" stop-color="#E2E3E4"/>
<stop offset="0.51" stop-color="#D7D8DA"/>
<stop offset="0.75" stop-color="#C4C5C7"/>
<stop offset="0.98" stop-color="#A9ABAE"/>
<stop offset="1" stop-color="#A7A9AC"/>
</linearGradient>
<linearGradient id="paint65_linear_234_443" x1="80789.2" y1="25954.4" x2="80789.2" y2="17536.3" gradientUnits="userSpaceOnUse">
<stop stop-color="white"/>
<stop offset="1" stop-color="#D1D3D4"/>
</linearGradient>
<linearGradient id="paint66_linear_234_443" x1="60887.6" y1="57974.7" x2="60887.6" y2="15460.4" gradientUnits="userSpaceOnUse">
<stop stop-color="#D1D3D4"/>
<stop offset="0.23" stop-color="#CDCFD0"/>
<stop offset="0.45" stop-color="#C2C4C5"/>
<stop offset="0.66" stop-color="#AFB1B3"/>
<stop offset="0.87" stop-color="#949699"/>
<stop offset="1" stop-color="#808285"/>
</linearGradient>
<linearGradient id="paint67_linear_234_443" x1="64348.4" y1="167780" x2="64348.4" y2="107760" gradientUnits="userSpaceOnUse">
<stop stop-color="white"/>
<stop offset="0.41" stop-color="#FBFBFC"/>
<stop offset="0.79" stop-color="#F0F1F1"/>
<stop offset="1" stop-color="#E6E7E8"/>
</linearGradient>
<linearGradient id="paint68_linear_234_443" x1="56938.1" y1="167780" x2="56938.1" y2="107760" gradientUnits="userSpaceOnUse">
<stop stop-color="white"/>
<stop offset="1" stop-color="#D1D3D4"/>
</linearGradient>
<linearGradient id="paint69_linear_234_443" x1="35995" y1="205892" x2="35995" y2="134089" gradientUnits="userSpaceOnUse">
<stop stop-color="white"/>
<stop offset="0.41" stop-color="#FBFBFC"/>
<stop offset="0.79" stop-color="#F0F1F1"/>
<stop offset="1" stop-color="#E6E7E8"/>
</linearGradient>
<linearGradient id="paint70_linear_234_443" x1="56364.5" y1="128373" x2="74234.2" y2="142969" gradientUnits="userSpaceOnUse">
<stop stop-color="#D1D3D4"/>
<stop offset="0.23" stop-color="#CDCFD0"/>
<stop offset="0.45" stop-color="#C2C4C5"/>
<stop offset="0.66" stop-color="#AFB1B3"/>
<stop offset="0.87" stop-color="#949699"/>
<stop offset="1" stop-color="#808285"/>
</linearGradient>
<linearGradient id="paint71_linear_234_443" x1="80933.8" y1="24163.5" x2="80298.2" y2="31345.3" gradientUnits="userSpaceOnUse">
<stop stop-color="white"/>
<stop offset="0.41" stop-color="#FBFBFC"/>
<stop offset="0.79" stop-color="#F0F1F1"/>
<stop offset="1" stop-color="#E6E7E8"/>
</linearGradient>
<linearGradient id="paint72_linear_234_443" x1="45306.3" y1="43175.4" x2="37815.8" y2="67113.4" gradientUnits="userSpaceOnUse">
<stop stop-color="#E6E7E8"/>
<stop offset="0.26" stop-color="#E2E3E4"/>
<stop offset="0.51" stop-color="#D7D8DA"/>
<stop offset="0.75" stop-color="#C4C5C7"/>
<stop offset="0.98" stop-color="#A9ABAE"/>
<stop offset="1" stop-color="#A7A9AC"/>
</linearGradient>
<linearGradient id="paint73_linear_234_443" x1="66459.2" y1="63354.8" x2="66459.2" y2="71772.9" gradientUnits="userSpaceOnUse">
<stop stop-color="#E6E7E8"/>
<stop offset="0.26" stop-color="#E2E3E4"/>
<stop offset="0.51" stop-color="#D7D8DA"/>
<stop offset="0.75" stop-color="#C4C5C7"/>
<stop offset="0.98" stop-color="#A9ABAE"/>
<stop offset="1" stop-color="#A7A9AC"/>
</linearGradient>
<linearGradient id="paint74_linear_234_443" x1="219359" y1="-7749.25" x2="221507" y2="9167" gradientUnits="userSpaceOnUse">
<stop stop-color="#D1D3D4"/>
<stop offset="0.23" stop-color="#CDCFD0"/>
<stop offset="0.45" stop-color="#C2C4C5"/>
<stop offset="0.66" stop-color="#AFB1B3"/>
<stop offset="0.87" stop-color="#949699"/>
<stop offset="1" stop-color="#808285"/>
</linearGradient>
<linearGradient id="paint75_linear_234_443" x1="58488.2" y1="3742.06" x2="57870.5" y2="9673.28" gradientUnits="userSpaceOnUse">
<stop stop-color="#E6E7E8"/>
<stop offset="0.26" stop-color="#E2E3E4"/>
<stop offset="0.51" stop-color="#D7D8DA"/>
<stop offset="0.75" stop-color="#C4C5C7"/>
<stop offset="0.98" stop-color="#A9ABAE"/>
<stop offset="1" stop-color="#A7A9AC"/>
</linearGradient>
<linearGradient id="paint76_linear_234_443" x1="162375" y1="18825.1" x2="162375" y2="4219.17" gradientUnits="userSpaceOnUse">
<stop stop-color="white"/>
<stop offset="0.41" stop-color="#FBFBFC"/>
<stop offset="0.79" stop-color="#F0F1F1"/>
<stop offset="1" stop-color="#E6E7E8"/>
</linearGradient>
<linearGradient id="paint77_linear_234_443" x1="181318" y1="30762.8" x2="181318" y2="14078.9" gradientUnits="userSpaceOnUse">
<stop stop-color="white"/>
<stop offset="0.41" stop-color="#FBFBFC"/>
<stop offset="0.79" stop-color="#F0F1F1"/>
<stop offset="1" stop-color="#E6E7E8"/>
</linearGradient>
<linearGradient id="paint78_linear_234_443" x1="101436" y1="73347.8" x2="98191.6" y2="92484.8" gradientUnits="userSpaceOnUse">
<stop stop-color="white"/>
<stop offset="1" stop-color="#D1D3D4"/>
</linearGradient>
<linearGradient id="paint79_linear_234_443" x1="2264.93" y1="218767" x2="2264.93" y2="157340" gradientUnits="userSpaceOnUse">
<stop stop-color="white"/>
<stop offset="1" stop-color="#D1D3D4"/>
</linearGradient>
<linearGradient id="paint80_linear_234_443" x1="18935.3" y1="194725" x2="18935.3" y2="150090" gradientUnits="userSpaceOnUse">
<stop stop-color="#D1D3D4"/>
<stop offset="0.32" stop-color="#CDCFD0"/>
<stop offset="0.62" stop-color="#C2C4C6"/>
<stop offset="0.91" stop-color="#AFB1B4"/>
<stop offset="1" stop-color="#A7A9AC"/>
</linearGradient>
<linearGradient id="paint81_linear_234_443" x1="1718.53" y1="332427" x2="1718.53" y2="216105" gradientUnits="userSpaceOnUse">
<stop stop-color="white"/>
<stop offset="0.41" stop-color="#FBFBFC"/>
<stop offset="0.79" stop-color="#F0F1F1"/>
<stop offset="1" stop-color="#E6E7E8"/>
</linearGradient>
<linearGradient id="paint82_linear_234_443" x1="13539.6" y1="92307.7" x2="14044.7" y2="83633.4" gradientUnits="userSpaceOnUse">
<stop stop-color="#D1D3D4"/>
<stop offset="0.44" stop-color="#CDCFD0"/>
<stop offset="0.85" stop-color="#C2C4C6"/>
<stop offset="1" stop-color="#BCBEC0"/>
</linearGradient>
<linearGradient id="paint83_linear_234_443" x1="-192568" y1="277497" x2="-179227" y2="286125" gradientUnits="userSpaceOnUse">
<stop stop-color="#D1D3D4"/>
<stop offset="0.44" stop-color="#CDCFD0"/>
<stop offset="0.85" stop-color="#C2C4C6"/>
<stop offset="1" stop-color="#BCBEC0"/>
</linearGradient>
<linearGradient id="paint84_linear_234_443" x1="82379.1" y1="219450" x2="82379.1" y2="165277" gradientUnits="userSpaceOnUse">
<stop stop-color="white"/>
<stop offset="1" stop-color="#D1D3D4"/>
</linearGradient>
<linearGradient id="paint85_linear_234_443" x1="106597" y1="256795" x2="106597" y2="193543" gradientUnits="userSpaceOnUse">
<stop stop-color="#D1D3D4"/>
<stop offset="0.32" stop-color="#CDCFD0"/>
<stop offset="0.62" stop-color="#C2C4C6"/>
<stop offset="0.91" stop-color="#AFB1B4"/>
<stop offset="1" stop-color="#A7A9AC"/>
</linearGradient>
<linearGradient id="paint86_linear_234_443" x1="82379.1" y1="219450" x2="82379.1" y2="165277" gradientUnits="userSpaceOnUse">
<stop stop-color="white"/>
<stop offset="0.41" stop-color="#FBFBFC"/>
<stop offset="0.79" stop-color="#F0F1F1"/>
<stop offset="1" stop-color="#E6E7E8"/>
</linearGradient>
<linearGradient id="paint87_linear_234_443" x1="68999" y1="93686.6" x2="68999" y2="77141.4" gradientUnits="userSpaceOnUse">
<stop stop-color="white"/>
<stop offset="1" stop-color="#D1D3D4"/>
</linearGradient>
<linearGradient id="paint88_linear_234_443" x1="190399" y1="110576" x2="190399" y2="96938.4" gradientUnits="userSpaceOnUse">
<stop stop-color="white"/>
<stop offset="0.29" stop-color="#FBFBFB"/>
<stop offset="0.59" stop-color="#EEEEEF"/>
<stop offset="0.91" stop-color="#D8DADB"/>
<stop offset="1" stop-color="#D1D3D4"/>
</linearGradient>
<linearGradient id="paint89_linear_234_443" x1="-150889" y1="-275657" x2="-150889" y2="-225671" gradientUnits="userSpaceOnUse">
<stop stop-color="white"/>
<stop offset="0.29" stop-color="#FBFBFB"/>
<stop offset="0.59" stop-color="#EEEEEF"/>
<stop offset="0.91" stop-color="#D8DADB"/>
<stop offset="1" stop-color="#D1D3D4"/>
</linearGradient>
<linearGradient id="paint90_linear_234_443" x1="22000.9" y1="200757" x2="22000.9" y2="167753" gradientUnits="userSpaceOnUse">
<stop stop-color="white"/>
<stop offset="0.41" stop-color="#FBFBFC"/>
<stop offset="0.79" stop-color="#F0F1F1"/>
<stop offset="1" stop-color="#E6E7E8"/>
</linearGradient>
<linearGradient id="paint91_linear_234_443" x1="117396" y1="151968" x2="117396" y2="104386" gradientUnits="userSpaceOnUse">
<stop stop-color="white"/>
<stop offset="1" stop-color="#E6E7E8"/>
</linearGradient>
<linearGradient id="paint92_linear_234_443" x1="10711.3" y1="312338" x2="37989.4" y2="239788" gradientUnits="userSpaceOnUse">
<stop stop-color="white"/>
<stop offset="0.29" stop-color="#FBFBFB"/>
<stop offset="0.59" stop-color="#EEEEEF"/>
<stop offset="0.91" stop-color="#D8DADB"/>
<stop offset="1" stop-color="#D1D3D4"/>
</linearGradient>
<linearGradient id="paint93_linear_234_443" x1="69.5" y1="580.011" x2="69.5" y2="342.021" gradientUnits="userSpaceOnUse">
<stop stop-color="white"/>
<stop offset="0.4" stop-color="#F9F9FA"/>
<stop offset="0.92" stop-color="#E9EAEB"/>
<stop offset="1" stop-color="#E6E7E8"/>
</linearGradient>
<linearGradient id="paint94_linear_234_443" x1="110973" y1="121885" x2="91605" y2="72279.2" gradientUnits="userSpaceOnUse">
<stop stop-color="#D1D3D4"/>
<stop offset="0.23" stop-color="#CDCFD0"/>
<stop offset="0.45" stop-color="#C2C4C5"/>
<stop offset="0.66" stop-color="#AFB1B3"/>
<stop offset="0.87" stop-color="#949699"/>
<stop offset="1" stop-color="#808285"/>
</linearGradient>
<clipPath id="clip0_234_443">
<rect width="1054.45" height="1030.24" fill="white" transform="translate(0 0.0644531)"/>
</clipPath>
</defs>
</svg>
