<svg xmlns="http://www.w3.org/2000/svg" xmlns:xlink="http://www.w3.org/1999/xlink" viewBox="0 0 1578.34 1368.44"><defs><style>.cls-1{fill:none;}.cls-2{isolation:isolate;}.cls-3{clip-path:url(#clip-path);}.cls-4{fill:url(#linear-gradient);}.cls-5{fill:url(#linear-gradient-2);}.cls-6{fill:url(#linear-gradient-3);}.cls-7{fill:url(#linear-gradient-4);}.cls-8{fill:url(#linear-gradient-5);}.cls-9{fill:url(#linear-gradient-6);}.cls-10{fill:url(#linear-gradient-7);}.cls-11{fill:url(#linear-gradient-8);}.cls-12{fill:url(#linear-gradient-9);}.cls-13{fill:url(#linear-gradient-10);}.cls-14{fill:url(#linear-gradient-11);}.cls-15{fill:url(#linear-gradient-12);}.cls-16{fill:url(#linear-gradient-13);}.cls-17{fill:url(#linear-gradient-14);}.cls-18{fill:url(#linear-gradient-15);}.cls-19{fill:url(#linear-gradient-16);}.cls-20{fill:url(#linear-gradient-17);}.cls-21{fill:url(#linear-gradient-18);}.cls-22{fill:url(#linear-gradient-19);}.cls-23{fill:url(#linear-gradient-20);}.cls-24{fill:url(#linear-gradient-21);}.cls-25{fill:url(#linear-gradient-22);}.cls-26{fill:url(#linear-gradient-23);}.cls-27{fill:url(#linear-gradient-24);}.cls-28{fill:url(#linear-gradient-25);}.cls-29{fill:url(#linear-gradient-26);}.cls-30{fill:url(#linear-gradient-27);}.cls-31{fill:url(#linear-gradient-28);}.cls-32{fill:url(#linear-gradient-29);}.cls-33{fill:url(#linear-gradient-30);}.cls-34{fill:url(#linear-gradient-31);}.cls-35{fill:url(#linear-gradient-32);}.cls-36{fill:url(#linear-gradient-33);}.cls-37{fill:url(#linear-gradient-34);}.cls-38{fill:url(#linear-gradient-35);}.cls-39{fill:url(#linear-gradient-36);}.cls-40{fill:url(#linear-gradient-37);}.cls-41{fill:url(#linear-gradient-38);}.cls-42{fill:url(#linear-gradient-39);}.cls-43{fill:url(#linear-gradient-40);}.cls-44{fill:url(#linear-gradient-41);}.cls-45{fill:url(#linear-gradient-42);}.cls-46{fill:url(#linear-gradient-43);}.cls-47{fill:url(#linear-gradient-44);}.cls-48{fill:url(#linear-gradient-45);}.cls-49{fill:url(#linear-gradient-46);}.cls-50{fill:url(#linear-gradient-47);}.cls-51{fill:url(#linear-gradient-48);}.cls-52{fill:url(#linear-gradient-49);}.cls-53{fill:url(#linear-gradient-50);}.cls-54{fill:url(#linear-gradient-51);}.cls-55{fill:url(#linear-gradient-52);}.cls-56{fill:url(#linear-gradient-53);}.cls-57{fill:url(#linear-gradient-54);}.cls-58{fill:url(#linear-gradient-55);}.cls-59{fill:url(#linear-gradient-56);}.cls-60{fill:url(#linear-gradient-57);}.cls-61{fill:url(#linear-gradient-58);}.cls-62{fill:url(#linear-gradient-59);}.cls-63{fill:url(#linear-gradient-60);}.cls-64{fill:url(#linear-gradient-61);}.cls-65{fill:url(#linear-gradient-62);}.cls-66{fill:url(#linear-gradient-63);}.cls-67{fill:url(#linear-gradient-64);}.cls-68{fill:url(#linear-gradient-65);}.cls-69{fill:url(#linear-gradient-66);}.cls-70{fill:url(#linear-gradient-67);}.cls-71{fill:url(#linear-gradient-68);}.cls-72{fill:url(#linear-gradient-69);}.cls-73{fill:url(#linear-gradient-70);}.cls-74{fill:url(#linear-gradient-71);}.cls-75{fill:url(#linear-gradient-72);}.cls-76{fill:url(#linear-gradient-73);}.cls-77{fill:url(#linear-gradient-74);}.cls-78{fill:url(#linear-gradient-75);}.cls-79{fill:url(#linear-gradient-76);}.cls-80{fill:url(#linear-gradient-77);}.cls-81{fill:url(#linear-gradient-78);}.cls-82{fill:url(#linear-gradient-79);}.cls-83{fill:url(#linear-gradient-80);}.cls-84{fill:url(#linear-gradient-81);}.cls-85{fill:url(#linear-gradient-82);}.cls-86{fill:url(#linear-gradient-83);}.cls-87{fill:url(#linear-gradient-84);}.cls-88{fill:url(#linear-gradient-85);}.cls-89{fill:url(#linear-gradient-86);}.cls-90{fill:url(#linear-gradient-87);}.cls-91{fill:url(#linear-gradient-88);}.cls-92{fill:url(#linear-gradient-89);}.cls-93{fill:url(#linear-gradient-90);}.cls-94{fill:url(#linear-gradient-91);}.cls-95{fill:url(#linear-gradient-92);}.cls-96{fill:url(#linear-gradient-93);}.cls-97{fill:url(#linear-gradient-94);}.cls-98{fill:url(#linear-gradient-95);}.cls-99{fill:url(#linear-gradient-96);}.cls-100{fill:url(#linear-gradient-97);}.cls-101{fill:url(#linear-gradient-98);}.cls-102{fill:url(#linear-gradient-99);}.cls-103{fill:url(#linear-gradient-100);}.cls-104{fill:url(#linear-gradient-101);}.cls-105{fill:url(#linear-gradient-102);}.cls-106{fill:url(#linear-gradient-103);}.cls-107{fill:url(#linear-gradient-104);}.cls-108{fill:url(#linear-gradient-105);}.cls-109{fill:url(#linear-gradient-106);}.cls-110{fill:url(#linear-gradient-107);}.cls-111{fill:url(#linear-gradient-108);}.cls-112{fill:url(#linear-gradient-109);}.cls-113{fill:url(#linear-gradient-110);}.cls-114{fill:url(#linear-gradient-111);}.cls-115{fill:url(#linear-gradient-112);}.cls-116{fill:#f7941e;opacity:0.55;mix-blend-mode:multiply;}</style><clipPath id="clip-path" transform="translate(45.35 221.44)"><rect class="cls-1" width="1003.92" height="1003.92"/></clipPath><linearGradient id="linear-gradient" x1="106.96" y1="296.05" x2="106.96" y2="221.44" gradientUnits="userSpaceOnUse"><stop offset="0" stop-color="#fff"/><stop offset="0.29" stop-color="#fbfbfb"/><stop offset="0.59" stop-color="#eeeeef"/><stop offset="0.91" stop-color="#d8dadb"/><stop offset="1" stop-color="#d1d3d4"/></linearGradient><linearGradient id="linear-gradient-2" x1="87.33" y1="267.66" x2="35.58" y2="249.84" gradientUnits="userSpaceOnUse"><stop offset="0" stop-color="#fff"/><stop offset="1" stop-color="#e6e7e8"/></linearGradient><linearGradient id="linear-gradient-3" x1="64.75" y1="313.66" x2="35.55" y2="292.44" xlink:href="#linear-gradient-2"/><linearGradient id="linear-gradient-4" x1="82" y1="318.94" x2="191.71" y2="297.61" gradientUnits="userSpaceOnUse"><stop offset="0" stop-color="#e6e7e8"/><stop offset="0.26" stop-color="#e2e3e4"/><stop offset="0.51" stop-color="#d7d8da"/><stop offset="0.75" stop-color="#c4c5c7"/><stop offset="0.98" stop-color="#a9abae"/><stop offset="1" stop-color="#a7a9ac"/></linearGradient><linearGradient id="linear-gradient-5" x1="126.09" y1="375.34" x2="126.09" y2="296.05" gradientUnits="userSpaceOnUse"><stop offset="0" stop-color="#d1d3d4"/><stop offset="0.44" stop-color="#cdcfd0"/><stop offset="0.85" stop-color="#c2c4c6"/><stop offset="1" stop-color="#bcbec0"/></linearGradient><linearGradient id="linear-gradient-6" x1="686.69" y1="477.33" x2="686.69" y2="296.05" xlink:href="#linear-gradient"/><linearGradient id="linear-gradient-7" x1="707.48" y1="446.94" x2="551.85" y2="393.35" xlink:href="#linear-gradient-2"/><linearGradient id="linear-gradient-8" x1="706.87" y1="550.68" x2="577.95" y2="457.02" xlink:href="#linear-gradient-2"/><linearGradient id="linear-gradient-9" x1="701.47" y1="500.22" x2="811.17" y2="478.89" xlink:href="#linear-gradient-4"/><linearGradient id="linear-gradient-10" x1="761.65" y1="556.62" x2="761.65" y2="477.33" xlink:href="#linear-gradient-5"/><linearGradient id="linear-gradient-11" x1="867.94" y1="513.69" x2="867.94" y2="402.72" xlink:href="#linear-gradient"/><linearGradient id="linear-gradient-12" x1="943.41" y1="526.59" x2="766.37" y2="465.63" xlink:href="#linear-gradient-2"/><linearGradient id="linear-gradient-13" x1="989.89" y1="597.24" x2="863.49" y2="505.41" gradientUnits="userSpaceOnUse"><stop offset="0" stop-color="#fff"/><stop offset="1" stop-color="#a7a9ac"/></linearGradient><linearGradient id="linear-gradient-14" x1="887.68" y1="510.96" x2="1066.84" y2="476.13" xlink:href="#linear-gradient-4"/><linearGradient id="linear-gradient-15" x1="1013.87" y1="546.02" x2="1013.87" y2="513.69" xlink:href="#linear-gradient-5"/><linearGradient id="linear-gradient-16" x1="616.35" y1="972.6" x2="616.35" y2="790.05" xlink:href="#linear-gradient"/><linearGradient id="linear-gradient-17" x1="687.51" y1="945.65" x2="520.68" y2="888.2" xlink:href="#linear-gradient-2"/><linearGradient id="linear-gradient-18" x1="685.84" y1="1049.03" x2="549.31" y2="949.83" xlink:href="#linear-gradient-2"/><linearGradient id="linear-gradient-19" x1="673.6" y1="948.74" x2="783.31" y2="927.42" gradientUnits="userSpaceOnUse"><stop offset="0" stop-color="#d1d3d4"/><stop offset="0.23" stop-color="#cdcfd0"/><stop offset="0.45" stop-color="#c2c4c5"/><stop offset="0.66" stop-color="#afb1b3"/><stop offset="0.87" stop-color="#949699"/><stop offset="1" stop-color="#808285"/></linearGradient><linearGradient id="linear-gradient-20" x1="742.87" y1="1051.89" x2="742.87" y2="972.6" xlink:href="#linear-gradient-5"/><linearGradient id="linear-gradient-21" x1="241.96" y1="375.34" x2="241.96" y2="221.44" xlink:href="#linear-gradient-2"/><linearGradient id="linear-gradient-22" x1="270" y1="114.26" x2="270" y2="114.26" xlink:href="#linear-gradient-2"/><linearGradient id="linear-gradient-23" x1="252.76" y1="335.7" x2="252.76" y2="221.44" gradientUnits="userSpaceOnUse"><stop offset="0" stop-color="#fff"/><stop offset="1" stop-color="#d1d3d4"/></linearGradient><linearGradient id="linear-gradient-24" x1="386.9" y1="335.7" x2="386.9" y2="221.44" xlink:href="#linear-gradient-4"/><linearGradient id="linear-gradient-25" x1="386.9" y1="470.92" x2="386.9" y2="272.2" xlink:href="#linear-gradient-19"/><linearGradient id="linear-gradient-26" x1="294.01" y1="331.55" x2="269.78" y2="456.18" gradientUnits="userSpaceOnUse"><stop offset="0" stop-color="#fff"/><stop offset="0.41" stop-color="#fbfbfc"/><stop offset="0.79" stop-color="#f0f1f1"/><stop offset="1" stop-color="#e6e7e8"/></linearGradient><linearGradient id="linear-gradient-27" x1="792.21" y1="1051.89" x2="792.21" y2="818.67" xlink:href="#linear-gradient-2"/><linearGradient id="linear-gradient-28" x1="860.82" y1="703.35" x2="860.82" y2="703.35" xlink:href="#linear-gradient-2"/><linearGradient id="linear-gradient-29" x1="792.21" y1="924.79" x2="792.21" y2="644.79" xlink:href="#linear-gradient-23"/><linearGradient id="linear-gradient-30" x1="948" y1="924.79" x2="948" y2="644.79" xlink:href="#linear-gradient-4"/><linearGradient id="linear-gradient-31" x1="977.73" y1="1060.02" x2="977.73" y2="861.3" xlink:href="#linear-gradient-19"/><linearGradient id="linear-gradient-32" x1="897.77" y1="923.16" x2="870.37" y2="1064.11" xlink:href="#linear-gradient-26"/><linearGradient id="linear-gradient-33" x1="130.93" y1="941.35" x2="130.93" y2="699.47" gradientTransform="translate(752.53 -103.11) rotate(41.55)" xlink:href="#linear-gradient-2"/><linearGradient id="linear-gradient-34" x1="196.41" y1="793.05" x2="196.41" y2="793.05" gradientTransform="translate(707.18 -324.55) rotate(41.55)" xlink:href="#linear-gradient-2"/><linearGradient id="linear-gradient-35" x1="145.15" y1="793.05" x2="145.15" y2="699.47" gradientTransform="translate(752.53 -103.11) rotate(41.55)" xlink:href="#linear-gradient-4"/><linearGradient id="linear-gradient-36" x1="255" y1="793.05" x2="255" y2="699.48" gradientTransform="translate(752.53 -103.11) rotate(41.55)" xlink:href="#linear-gradient-4"/><linearGradient id="linear-gradient-37" x1="255" y1="903.78" x2="255" y2="741.05" gradientTransform="translate(752.53 -103.11) rotate(41.55)" xlink:href="#linear-gradient-19"/><linearGradient id="linear-gradient-38" x1="169.5" y1="787.82" x2="136.95" y2="955.25" gradientTransform="translate(752.53 -103.11) rotate(41.55)" xlink:href="#linear-gradient-26"/><linearGradient id="linear-gradient-39" x1="133.8" y1="1214.86" x2="133.8" y2="941.35" gradientTransform="translate(752.53 -103.11) rotate(41.55)" xlink:href="#linear-gradient-2"/><linearGradient id="linear-gradient-40" x1="202.16" y1="1066.56" x2="202.16" y2="1066.56" gradientTransform="translate(707.18 -324.55) rotate(41.55)" xlink:href="#linear-gradient-2"/><linearGradient id="linear-gradient-41" x1="143.34" y1="1066.56" x2="143.34" y2="903.72" gradientTransform="translate(752.53 -103.11) rotate(41.55)" xlink:href="#linear-gradient-4"/><linearGradient id="linear-gradient-42" x1="309.8" y1="1087.88" x2="309.8" y2="903.72" gradientTransform="translate(752.53 -103.11) rotate(41.55)" gradientUnits="userSpaceOnUse"><stop offset="0" stop-color="#d1d3d4"/><stop offset="0.32" stop-color="#cdcfd0"/><stop offset="0.62" stop-color="#c2c4c6"/><stop offset="0.91" stop-color="#afb1b4"/><stop offset="1" stop-color="#a7a9ac"/></linearGradient><linearGradient id="linear-gradient-43" x1="309.8" y1="1177.3" x2="309.8" y2="1066.56" gradientTransform="translate(752.53 -103.11) rotate(41.55)" xlink:href="#linear-gradient-19"/><linearGradient id="linear-gradient-44" x1="175.25" y1="1061.33" x2="142.71" y2="1228.76" gradientTransform="translate(752.53 -103.11) rotate(41.55)" xlink:href="#linear-gradient-26"/><linearGradient id="linear-gradient-45" x1="233.3" y1="479.67" x2="233.3" y2="375.34" xlink:href="#linear-gradient-19"/><linearGradient id="linear-gradient-46" x1="126.09" y1="479.67" x2="126.09" y2="326.47" xlink:href="#linear-gradient-13"/><linearGradient id="linear-gradient-47" x1="233.3" y1="644.8" x2="233.3" y2="470.92" xlink:href="#linear-gradient-19"/><linearGradient id="linear-gradient-48" x1="83.18" y1="561.15" x2="83.18" y2="326.47" gradientUnits="userSpaceOnUse"><stop offset="0" stop-color="#fff"/><stop offset="0.02" stop-color="#fefefe"/><stop offset="0.59" stop-color="#ecedee"/><stop offset="1" stop-color="#e6e7e8"/></linearGradient><linearGradient id="linear-gradient-49" x1="62.11" y1="523.52" x2="203.15" y2="586.32" xlink:href="#linear-gradient-4"/><linearGradient id="linear-gradient-50" x1="930.82" y1="278.68" x2="930.82" y2="174.35" xlink:href="#linear-gradient-19"/><linearGradient id="linear-gradient-51" x1="744.84" y1="296.05" x2="744.84" y2="174.35" xlink:href="#linear-gradient-13"/><linearGradient id="linear-gradient-52" x1="930.82" y1="443.81" x2="930.82" y2="269.93" xlink:href="#linear-gradient-19"/><linearGradient id="linear-gradient-53" x1="701.94" y1="403.11" x2="701.94" y2="278.68" xlink:href="#linear-gradient-48"/><linearGradient id="linear-gradient-54" x1="792.49" y1="337.16" x2="900.67" y2="385.33" xlink:href="#linear-gradient-4"/><linearGradient id="linear-gradient-55" x1="734.42" y1="653.54" x2="734.42" y2="549.21" xlink:href="#linear-gradient-19"/><linearGradient id="linear-gradient-56" x1="627.2" y1="653.54" x2="627.2" y2="500.34" xlink:href="#linear-gradient-13"/><linearGradient id="linear-gradient-57" x1="734.42" y1="818.67" x2="734.42" y2="644.79" xlink:href="#linear-gradient-19"/><linearGradient id="linear-gradient-58" x1="558.91" y1="659.5" x2="558.91" y2="500.34" xlink:href="#linear-gradient-48"/><linearGradient id="linear-gradient-59" x1="492.79" y1="666.02" x2="704.27" y2="760.18" xlink:href="#linear-gradient-4"/><linearGradient id="linear-gradient-60" x1="1106.33" y1="647.57" x2="1106.33" y2="543.24" xlink:href="#linear-gradient-19"/><linearGradient id="linear-gradient-61" x1="953.06" y1="647.57" x2="953.06" y2="543.24" xlink:href="#linear-gradient-13"/><linearGradient id="linear-gradient-62" x1="1106.33" y1="861.3" x2="1106.33" y2="638.82" xlink:href="#linear-gradient-19"/><linearGradient id="linear-gradient-63" x1="850.99" y1="647.57" x2="850.99" y2="549.21" xlink:href="#linear-gradient-48"/><linearGradient id="linear-gradient-64" x1="683.58" y1="603.91" x2="1084.41" y2="782.37" xlink:href="#linear-gradient-4"/><linearGradient id="linear-gradient-65" x1="602.37" y1="1107.78" x2="602.37" y2="996.24" xlink:href="#linear-gradient-19"/><linearGradient id="linear-gradient-66" x1="486.19" y1="1107.78" x2="486.19" y2="987.94" xlink:href="#linear-gradient"/><linearGradient id="linear-gradient-67" x1="641.75" y1="1239.44" x2="641.75" y2="1044.47" xlink:href="#linear-gradient-19"/><linearGradient id="linear-gradient-68" x1="318.76" y1="1043.19" x2="621.68" y2="1178.06" xlink:href="#linear-gradient-26"/><linearGradient id="linear-gradient-69" x1="402.02" y1="470.92" x2="402.02" y2="272.2" xlink:href="#linear-gradient-26"/><linearGradient id="linear-gradient-70" x1="521.9" y1="410.49" x2="521.9" y2="272.2" xlink:href="#linear-gradient-4"/><linearGradient id="linear-gradient-71" x1="446.03" y1="502.24" x2="446.03" y2="410.49" xlink:href="#linear-gradient-23"/><linearGradient id="linear-gradient-72" x1="521.9" y1="502.24" x2="521.9" y2="296.05" xlink:href="#linear-gradient-19"/><linearGradient id="linear-gradient-73" x1="407.13" y1="904.49" x2="407.13" y2="659.5" xlink:href="#linear-gradient-26"/><linearGradient id="linear-gradient-74" x1="491.02" y1="904.49" x2="491.02" y2="659.5" xlink:href="#linear-gradient-23"/><linearGradient id="linear-gradient-75" x1="373.07" y1="987.94" x2="373.07" y2="719.98" xlink:href="#linear-gradient-26"/><linearGradient id="linear-gradient-76" x1="486.5" y1="841.27" x2="571.52" y2="954.1" xlink:href="#linear-gradient-19"/><linearGradient id="linear-gradient-77" x1="446.76" y1="482.86" x2="431.94" y2="559.12" xlink:href="#linear-gradient-26"/><linearGradient id="linear-gradient-78" x1="505.05" y1="494.19" x2="473.74" y2="655.24" xlink:href="#linear-gradient-4"/><linearGradient id="linear-gradient-79" x1="429.47" y1="904.49" x2="429.47" y2="996.24" xlink:href="#linear-gradient-4"/><linearGradient id="linear-gradient-80" x1="451.32" y1="221.44" x2="451.32" y2="90.7" xlink:href="#linear-gradient-26"/><linearGradient id="linear-gradient-81" x1="720.37" y1="174.35" x2="720.37" y2="90.7" xlink:href="#linear-gradient-23"/><linearGradient id="linear-gradient-82" x1="436.68" y1="272.2" x2="436.68" y2="174.35" xlink:href="#linear-gradient-26"/><linearGradient id="linear-gradient-83" x1="640.1" y1="96.21" x2="773.36" y2="273.04" xlink:href="#linear-gradient-19"/><linearGradient id="linear-gradient-84" x1="521.9" y1="174.35" x2="521.9" y2="296.05" xlink:href="#linear-gradient-4"/><linearGradient id="linear-gradient-85" x1="1042.52" y1="443.81" x2="1042.52" y2="269.93" xlink:href="#linear-gradient-26"/><linearGradient id="linear-gradient-86" x1="1310.73" y1="367.66" x2="1310.73" y2="269.93" xlink:href="#linear-gradient-23"/><linearGradient id="linear-gradient-87" x1="1042.52" y1="543.28" x2="1042.52" y2="367.66" xlink:href="#linear-gradient-26"/><linearGradient id="linear-gradient-88" x1="1265.21" y1="326.38" x2="1398.5" y2="503.27" xlink:href="#linear-gradient-19"/><linearGradient id="linear-gradient-89" x1="1149.26" y1="367.66" x2="1149.26" y2="638.82" xlink:href="#linear-gradient-4"/><linearGradient id="linear-gradient-90" x1="598.54" y1="679.5" x2="575.38" y2="798.67" xlink:href="#linear-gradient-23"/><linearGradient id="linear-gradient-91" x1="70.73" y1="1101.01" x2="70.73" y2="853.32" xlink:href="#linear-gradient-23"/><linearGradient id="linear-gradient-92" x1="195.66" y1="1139.78" x2="195.66" y2="928.5" gradientTransform="matrix(1, 0, 0, 1, 0, 0)" xlink:href="#linear-gradient-42"/><linearGradient id="linear-gradient-93" x1="66.48" y1="1194.44" x2="66.48" y2="853.32" xlink:href="#linear-gradient-26"/><linearGradient id="linear-gradient-94" x1="133.85" y1="1194.44" x2="133.85" y2="1101.01" xlink:href="#linear-gradient-5"/><linearGradient id="linear-gradient-95" x1="1041.14" y1="174.35" x2="1041.14" y2="0" xlink:href="#linear-gradient-23"/><linearGradient id="linear-gradient-96" x1="1373.9" y1="367.66" x2="1373.9" y2="0" gradientTransform="matrix(1, 0, 0, 1, 0, 0)" xlink:href="#linear-gradient-42"/><linearGradient id="linear-gradient-97" x1="1036.9" y1="269.93" x2="1036.9" y2="172.51" xlink:href="#linear-gradient-26"/><linearGradient id="linear-gradient-98" x1="1310.73" y1="367.66" x2="1310.73" y2="172.51" xlink:href="#linear-gradient-5"/><linearGradient id="linear-gradient-99" x1="301.85" y1="1161.25" x2="301.85" y2="928.5" xlink:href="#linear-gradient-23"/><linearGradient id="linear-gradient-100" x1="468.85" y1="1239.44" x2="468.85" y2="987.94" gradientTransform="matrix(1, 0, 0, 1, 0, 0)" xlink:href="#linear-gradient-42"/><linearGradient id="linear-gradient-101" x1="301.85" y1="1161.25" x2="301.85" y2="928.5" xlink:href="#linear-gradient-26"/><linearGradient id="linear-gradient-102" x1="371.35" y1="1339.11" x2="371.35" y2="1139.78" xlink:href="#linear-gradient-23"/><linearGradient id="linear-gradient-103" x1="528.3" y1="1161.25" x2="528.3" y2="1339.11" gradientUnits="userSpaceOnUse"><stop offset="0" stop-color="#d1d3d4"/><stop offset="0.31" stop-color="#b4b6b7"/><stop offset="0.76" stop-color="#8e9093"/><stop offset="1" stop-color="#808285"/></linearGradient><linearGradient id="linear-gradient-104" x1="726.85" y1="1239.44" x2="726.85" y2="1044.47" xlink:href="#linear-gradient-26"/><linearGradient id="linear-gradient-105" x1="812.78" y1="1161.25" x2="812.78" y2="1044.47" xlink:href="#linear-gradient"/><linearGradient id="linear-gradient-106" x1="743.69" y1="1368.44" x2="743.69" y2="1161.25" xlink:href="#linear-gradient"/><linearGradient id="linear-gradient-107" x1="897.89" y1="1368.44" x2="897.89" y2="1060.02" xlink:href="#linear-gradient-19"/><linearGradient id="linear-gradient-108" x1="133.85" y1="1321.44" x2="133.85" y2="1139.78" xlink:href="#linear-gradient-26"/><linearGradient id="linear-gradient-109" x1="284.85" y1="1339.11" x2="284.85" y2="1139.78" gradientTransform="matrix(1, 0, 0, 1, 0, 0)" xlink:href="#linear-gradient-42"/><linearGradient id="linear-gradient-110" x1="1032.67" y1="1155.01" x2="1032.67" y2="861.3" xlink:href="#linear-gradient-2"/><linearGradient id="linear-gradient-111" x1="1010.97" y1="1368.44" x2="1010.97" y2="1060.02" xlink:href="#linear-gradient"/><linearGradient id="linear-gradient-112" x1="111.23" y1="799.13" x2="111.23" y2="561.15" gradientUnits="userSpaceOnUse"><stop offset="0" stop-color="#fff"/><stop offset="0.4" stop-color="#f9f9fa"/><stop offset="0.92" stop-color="#e9eaeb"/><stop offset="1" stop-color="#e6e7e8"/></linearGradient></defs><g class="cls-2"><g id="Layer_1" data-name="Layer 1"><g class="cls-3"><polygon class="cls-4" points="45.35 221.44 77.55 296.05 168.56 221.44 45.35 221.44"/><polygon class="cls-5" points="77.55 296.05 45.35 278.95 45.35 221.44 77.55 296.05"/><polygon class="cls-6" points="77.55 296.05 45.35 326.47 45.35 278.95 77.55 296.05"/><polygon class="cls-7" points="77.55 296.05 206.81 375.34 168.56 221.44 77.55 296.05"/><polygon class="cls-8" points="77.55 296.05 45.35 326.47 206.81 375.34 77.55 296.05"/><polygon class="cls-9" points="585.36 296.05 697.02 477.33 788.03 402.72 585.36 296.05"/><polygon class="cls-10" points="697.02 477.33 546.48 500.34 585.36 296.05 697.02 477.33"/><polygon class="cls-11" points="697.02 477.33 707.93 549.21 546.48 500.34 697.02 477.33"/><polygon class="cls-12" points="697.02 477.33 826.28 556.62 788.03 402.72 697.02 477.33"/><polygon class="cls-13" points="697.02 477.33 707.93 549.21 826.28 556.62 697.02 477.33"/><polygon class="cls-14" points="788.03 402.72 947.86 513.69 874.63 443.81 788.03 402.72"/><polygon class="cls-15" points="947.86 513.69 826.28 556.62 788.03 402.72 947.86 513.69"/><polygon class="cls-16" points="947.86 513.69 1027.1 546.02 826.28 556.62 947.86 513.69"/><polygon class="cls-17" points="947.86 513.69 1079.89 543.28 874.63 443.81 947.86 513.69"/><polygon class="cls-18" points="947.86 513.69 1027.1 546.02 1079.89 543.28 947.86 513.69"/><polygon class="cls-19" points="554.47 790.05 678.24 972.6 678.24 818.67 554.47 790.05"/><polygon class="cls-20" points="678.24 972.6 515.59 996.24 554.47 790.05 678.24 972.6"/><polygon class="cls-21" points="678.24 972.6 689.15 1044.47 515.59 996.24 678.24 972.6"/><polygon class="cls-22" points="678.24 972.6 807.5 1051.89 678.24 818.67 678.24 972.6"/><polygon class="cls-23" points="678.24 972.6 689.15 1044.47 807.5 1051.89 678.24 972.6"/><polyline class="cls-24" points="206.81 375.34 315.36 335.7 168.56 221.44"/><path class="cls-25" d="M270,114.26" transform="translate(45.35 221.44)"/><polygon class="cls-26" points="336.95 221.44 315.36 335.7 168.56 221.44 336.95 221.44"/><polygon class="cls-27" points="336.95 221.44 458.45 272.2 315.36 335.7 336.95 221.44"/><polygon class="cls-28" points="315.36 335.7 345.6 470.92 458.45 272.2 315.36 335.7"/><polygon class="cls-29" points="315.36 335.7 345.6 470.92 206.81 375.34 315.36 335.7"/><polygon class="cls-30" points="807.5 1051.89 906.18 924.79 678.24 818.67 807.5 1051.89"/><path class="cls-31" d="M860.82,703.35" transform="translate(45.35 221.44)"/><polygon class="cls-32" points="846.72 644.79 906.18 924.79 678.24 818.67 846.72 644.79"/><polygon class="cls-33" points="846.72 644.79 1049.28 861.3 906.18 924.79 846.72 644.79"/><polygon class="cls-34" points="906.18 924.79 936.42 1060.02 1049.28 861.3 906.18 924.79"/><polygon class="cls-35" points="906.18 924.79 936.42 1060.02 807.5 1051.89 906.18 924.79"/><polygon class="cls-36" points="177.12 644.8 373.5 620.68 345.6 470.92 177.12 644.8"/><path class="cls-37" d="M328.14,399.24" transform="translate(45.35 221.44)"/><polygon class="cls-38" points="448.8 562.39 373.5 620.68 345.6 470.92 448.8 562.39"/><polygon class="cls-39" points="448.8 562.39 495.69 659.5 373.5 620.68 448.8 562.39"/><polygon class="cls-40" points="373.5 620.68 318.57 719.98 495.69 659.5 373.5 620.68"/><polygon class="cls-41" points="373.5 620.68 318.57 719.98 177.12 644.8 373.5 620.68"/><polygon class="cls-42" points="0 853.32 196.38 829.2 177.12 644.8 0 853.32"/><path class="cls-43" d="M151,607.76" transform="translate(45.35 221.44)"/><polygon class="cls-44" points="318.67 719.98 196.38 829.2 177.12 644.8 318.67 719.98"/><polygon class="cls-45" points="318.67 719.98 343.36 987.94 196.38 829.2 318.67 719.98"/><polygon class="cls-46" points="196.38 829.2 141.46 928.5 343.36 987.94 196.38 829.2"/><polygon class="cls-47" points="196.38 829.2 141.46 928.5 0 853.32 196.38 829.2"/><polygon class="cls-48" points="206.81 375.34 121.01 479.67 345.6 470.92 206.81 375.34"/><polygon class="cls-49" points="206.81 375.34 121.01 479.67 45.35 326.47 206.81 375.34"/><polygon class="cls-50" points="121.01 479.67 177.12 644.8 345.6 470.92 121.01 479.67"/><polygon class="cls-51" points="45.35 326.47 45.35 561.15 121.01 479.67 45.35 326.47"/><polygon class="cls-52" points="177.12 644.8 45.35 561.15 121.01 479.67 177.12 644.8"/><polygon class="cls-53" points="904.33 174.35 818.53 278.68 1043.11 269.93 904.33 174.35"/><polygon class="cls-54" points="904.33 174.35 818.53 278.68 585.36 296.05 904.33 174.35"/><polygon class="cls-55" points="818.53 278.68 874.63 443.81 1043.11 269.93 818.53 278.68"/><polygon class="cls-56" points="585.36 296.05 788.03 403.11 818.53 278.68 585.36 296.05"/><polygon class="cls-57" points="874.63 443.81 788.03 403.11 818.53 278.68 874.63 443.81"/><polygon class="cls-58" points="707.93 549.21 622.13 653.54 846.72 644.79 707.93 549.21"/><polygon class="cls-59" points="707.93 549.21 622.13 653.54 546.48 500.34 707.93 549.21"/><polygon class="cls-60" points="622.13 653.54 678.24 818.67 846.72 644.79 622.13 653.54"/><polygon class="cls-61" points="546.48 500.34 495.69 659.5 622.13 653.54 546.48 500.34"/><polygon class="cls-62" points="678.24 818.67 495.69 659.5 622.13 653.54 678.24 818.67"/><polygon class="cls-63" points="1079.84 543.24 994.04 647.57 1218.62 638.82 1079.84 543.24"/><polygon class="cls-64" points="1079.84 543.24 994.04 647.57 826.28 556.62 1079.84 543.24"/><polygon class="cls-65" points="994.04 647.57 1049.28 861.3 1218.62 638.82 994.04 647.57"/><polygon class="cls-66" points="826.28 556.62 707.93 549.21 994.04 647.57 826.28 556.62"/><polygon class="cls-67" points="1049.28 861.3 707.93 549.21 994.04 647.57 1049.28 861.3"/><polygon class="cls-68" points="515.59 996.24 629.02 1107.78 689.15 1044.47 515.59 996.24"/><polygon class="cls-69" points="515.59 996.24 629.02 1107.78 343.36 987.94 515.59 996.24"/><polygon class="cls-70" points="629.02 1107.78 594.36 1239.44 689.15 1044.47 629.02 1107.78"/><polygon class="cls-71" points="594.36 1239.44 343.36 987.94 629.02 1107.78 594.36 1239.44"/><polygon class="cls-72" points="345.6 470.92 458.45 410.5 458.45 272.2 345.6 470.92"/><polygon class="cls-73" points="458.45 410.5 585.36 296.05 458.45 272.2 458.45 410.5"/><polygon class="cls-74" points="345.6 470.92 546.48 502.24 458.45 410.5 345.6 470.92"/><polygon class="cls-75" points="458.45 410.5 546.48 502.24 585.36 296.05 458.45 410.5"/><polygon class="cls-76" points="318.57 719.98 427.57 904.5 495.69 659.5 318.57 719.98"/><polygon class="cls-77" points="427.57 904.5 554.47 790.05 495.69 659.5 427.57 904.5"/><polygon class="cls-78" points="318.57 719.98 343.36 987.94 427.57 904.5 318.57 719.98"/><polygon class="cls-79" points="427.57 904.5 515.59 996.24 554.47 790.05 427.57 904.5"/><polygon class="cls-80" points="345.6 470.92 448.8 562.39 546.48 502.24 345.6 470.92"/><polyline class="cls-81" points="448.8 562.39 546.48 502.24 495.69 659.5"/><polygon class="cls-82" points="343.36 987.94 515.59 996.24 427.57 904.5 343.36 987.94"/><polygon class="cls-83" points="336.95 221.44 536.4 174.35 565.69 90.7 336.95 221.44"/><polygon class="cls-84" points="536.4 174.35 904.33 174.35 565.69 90.7 536.4 174.35"/><polygon class="cls-85" points="336.95 221.44 458.45 272.2 536.4 174.35 336.95 221.44"/><polygon class="cls-86" points="536.4 174.35 585.36 296.05 904.33 174.35 536.4 174.35"/><polygon class="cls-87" points="458.45 272.2 585.36 296.05 536.4 174.35 458.45 272.2"/><polygon class="cls-88" points="874.63 443.81 1210.42 367.67 1043.11 269.93 874.63 443.81"/><polygon class="cls-89" points="1210.42 367.67 1578.34 367.67 1043.11 269.93 1210.42 367.67"/><polygon class="cls-90" points="874.63 443.81 1079.89 543.28 1210.42 367.67 874.63 443.81"/><polygon class="cls-91" points="1210.42 367.67 1218.62 638.82 1578.34 367.67 1210.42 367.67"/><polygon class="cls-92" points="1079.89 543.28 1218.62 638.82 1210.42 367.67 1079.89 543.28"/><polygon class="cls-93" points="678.24 818.67 495.69 659.5 554.47 790.05 678.24 818.67"/><polygon class="cls-94" points="141.46 928.5 132.97 1101.01 0 853.32 141.46 928.5"/><polygon class="cls-95" points="258.36 1139.78 132.97 1101.01 141.46 928.5 258.36 1139.78"/><polygon class="cls-96" points="0 853.32 9.36 1194.44 132.97 1101.01 0 853.32"/><polygon class="cls-97" points="9.36 1194.44 258.36 1139.78 132.97 1101.01 9.36 1194.44"/><polygon class="cls-98" points="1177.96 0 1169.47 172.51 904.33 174.35 1177.96 0"/><polygon class="cls-99" points="1578.34 367.67 1169.47 172.51 1177.96 0 1578.34 367.67"/><polygon class="cls-100" points="904.33 174.35 1043.11 269.93 1169.47 172.51 904.33 174.35"/><polygon class="cls-101" points="1043.11 269.93 1578.34 367.67 1169.47 172.51 1043.11 269.93"/><polygon class="cls-102" points="343.36 987.94 462.25 1161.25 141.46 928.5 343.36 987.94"/><polygon class="cls-103" points="594.36 1239.44 462.25 1161.25 343.36 987.94 594.36 1239.44"/><polygon class="cls-104" points="141.46 928.5 258.36 1139.78 462.25 1161.25 141.46 928.5"/><polygon class="cls-105" points="258.36 1139.78 462.25 1161.25 484.36 1339.11 258.36 1139.78"/><polygon class="cls-106" points="462.25 1161.25 484.36 1339.11 594.36 1239.44 462.25 1161.25"/><polygon class="cls-107" points="594.36 1239.44 859.36 1161.25 689.15 1044.47 594.36 1239.44"/><polygon class="cls-108" points="936.42 1060.02 859.36 1161.25 689.15 1044.47 936.42 1060.02"/><polygon class="cls-109" points="859.36 1161.25 893.02 1368.44 594.36 1239.44 859.36 1161.25"/><polygon class="cls-110" points="936.42 1060.02 893.02 1368.44 859.36 1161.25 936.42 1060.02"/><polygon class="cls-111" points="258.36 1139.78 9.36 1194.44 85.36 1321.44 258.36 1139.78"/><polygon class="cls-112" points="484.36 1339.11 85.36 1321.44 258.36 1139.78 484.36 1339.11"/><polygon class="cls-113" points="936.42 1060.02 1128.92 1155.01 1049.28 861.3 936.42 1060.02"/><polygon class="cls-114" points="893.02 1368.44 1128.92 1155.01 936.42 1060.02 893.02 1368.44"/><polygon class="cls-115" points="45.35 561.15 177.12 644.8 46.03 799.13 45.35 561.15"/></g><rect class="cls-116" x="45.36" y="221.44" width="1003.92" height="1003.92"/></g></g></svg>