<svg xmlns="http://www.w3.org/2000/svg" xmlns:xlink="http://www.w3.org/1999/xlink" viewBox="0 0 1000 1000"><defs><style>.cls-1{fill:none;}.cls-2{isolation:isolate;}.cls-3{clip-path:url(#clip-path);}.cls-4{fill:url(#linear-gradient);}.cls-5{fill:url(#linear-gradient-2);}.cls-6{fill:url(#linear-gradient-3);}.cls-7{fill:url(#linear-gradient-4);}.cls-8{fill:url(#linear-gradient-5);}.cls-9{fill:url(#linear-gradient-6);}.cls-10{fill:url(#linear-gradient-7);}.cls-11{fill:url(#linear-gradient-8);}.cls-12{fill:url(#linear-gradient-9);}.cls-13{fill:url(#linear-gradient-10);}.cls-14{fill:url(#linear-gradient-11);}.cls-15{fill:url(#linear-gradient-12);}.cls-16{fill:url(#linear-gradient-13);}.cls-17{fill:url(#linear-gradient-14);}.cls-18{fill:url(#linear-gradient-15);}.cls-19{fill:url(#linear-gradient-16);}.cls-20{fill:url(#linear-gradient-17);}.cls-21{fill:url(#linear-gradient-18);}.cls-22{fill:url(#linear-gradient-19);}.cls-23{fill:url(#linear-gradient-20);}.cls-24{fill:url(#linear-gradient-21);}.cls-25{fill:url(#linear-gradient-22);}.cls-26{fill:url(#linear-gradient-23);}.cls-27{fill:url(#linear-gradient-24);}.cls-28{fill:url(#linear-gradient-25);}.cls-29{fill:url(#linear-gradient-26);}.cls-30{fill:url(#linear-gradient-27);}.cls-31{fill:url(#linear-gradient-28);}.cls-32{fill:url(#linear-gradient-29);}.cls-33{fill:url(#linear-gradient-30);}.cls-34{fill:url(#linear-gradient-31);}.cls-35{fill:url(#linear-gradient-32);}.cls-36{fill:url(#linear-gradient-33);}.cls-37{fill:url(#linear-gradient-34);}.cls-38{fill:url(#linear-gradient-35);}.cls-39{fill:url(#linear-gradient-36);}.cls-40{fill:url(#linear-gradient-37);}.cls-41{fill:url(#linear-gradient-38);}.cls-42{fill:url(#linear-gradient-39);}.cls-43{fill:url(#linear-gradient-40);}.cls-44{fill:url(#linear-gradient-41);}.cls-45{fill:url(#linear-gradient-42);}.cls-46{fill:url(#linear-gradient-43);}.cls-47{fill:url(#linear-gradient-44);}.cls-48{fill:url(#linear-gradient-45);}.cls-49{fill:url(#linear-gradient-46);}.cls-50{fill:url(#linear-gradient-47);}.cls-51{fill:url(#linear-gradient-48);}.cls-52{fill:url(#linear-gradient-49);}.cls-53{fill:url(#linear-gradient-50);}.cls-54{fill:url(#linear-gradient-51);}.cls-55{fill:url(#linear-gradient-52);}.cls-56{fill:url(#linear-gradient-53);}.cls-57{fill:url(#linear-gradient-54);}.cls-58{fill:url(#linear-gradient-55);}.cls-59{fill:url(#linear-gradient-56);}.cls-60{fill:url(#linear-gradient-57);}.cls-61{fill:url(#linear-gradient-58);}.cls-62{fill:url(#linear-gradient-59);}.cls-63{fill:url(#linear-gradient-60);}.cls-64{fill:url(#linear-gradient-61);}.cls-65{fill:url(#linear-gradient-62);}.cls-66{fill:url(#linear-gradient-63);}.cls-67{fill:url(#linear-gradient-64);}.cls-68{fill:url(#linear-gradient-65);}.cls-69{fill:url(#linear-gradient-66);}.cls-70{fill:url(#linear-gradient-67);}.cls-71{fill:url(#linear-gradient-68);}.cls-72{fill:url(#linear-gradient-69);}.cls-73{fill:url(#linear-gradient-70);}.cls-74{fill:url(#linear-gradient-71);}.cls-75{fill:url(#linear-gradient-72);}.cls-76{fill:url(#linear-gradient-73);}.cls-77{fill:url(#linear-gradient-74);}.cls-78{fill:url(#linear-gradient-75);}.cls-79{fill:url(#linear-gradient-76);}.cls-80{fill:url(#linear-gradient-77);}.cls-81{fill:url(#linear-gradient-78);}.cls-82{fill:url(#linear-gradient-79);}.cls-83{fill:url(#linear-gradient-80);}.cls-84{fill:url(#linear-gradient-81);}.cls-85{fill:url(#linear-gradient-82);}.cls-86{fill:url(#linear-gradient-83);}.cls-87{fill:url(#linear-gradient-84);}.cls-88{fill:url(#linear-gradient-85);}.cls-89{fill:url(#linear-gradient-86);}.cls-90{fill:url(#linear-gradient-87);}.cls-91{fill:url(#linear-gradient-88);}.cls-92{fill:url(#linear-gradient-89);}.cls-93{fill:url(#linear-gradient-90);}.cls-94{fill:url(#linear-gradient-91);}.cls-95{fill:url(#linear-gradient-92);}.cls-96{fill:url(#linear-gradient-93);}.cls-97{fill:url(#linear-gradient-94);}.cls-98{fill:url(#linear-gradient-95);}.cls-99{fill:url(#linear-gradient-96);}.cls-100{fill:url(#linear-gradient-97);}.cls-101{fill:url(#linear-gradient-98);}.cls-102{fill:url(#linear-gradient-99);}.cls-103{fill:url(#linear-gradient-100);}.cls-104{fill:url(#linear-gradient-101);}.cls-105{fill:url(#linear-gradient-102);}.cls-106{fill:#f7941e;opacity:0.55;mix-blend-mode:multiply;}</style><clipPath id="clip-path"><rect class="cls-1" width="1003.92" height="1003.92"/></clipPath><linearGradient id="linear-gradient" x1="61.6" y1="74.61" x2="61.6" gradientUnits="userSpaceOnUse"><stop offset="0" stop-color="#fff"/><stop offset="0.29" stop-color="#fbfbfb"/><stop offset="0.59" stop-color="#eeeeef"/><stop offset="0.91" stop-color="#d8dadb"/><stop offset="1" stop-color="#d1d3d4"/></linearGradient><linearGradient id="linear-gradient-2" x1="41.97" y1="46.21" x2="-9.78" y2="28.4" gradientUnits="userSpaceOnUse"><stop offset="0" stop-color="#fff"/><stop offset="1" stop-color="#e6e7e8"/></linearGradient><linearGradient id="linear-gradient-3" x1="19.4" y1="92.22" x2="-9.8" y2="71" xlink:href="#linear-gradient-2"/><linearGradient id="linear-gradient-4" x1="36.64" y1="97.49" x2="146.35" y2="76.17" gradientUnits="userSpaceOnUse"><stop offset="0" stop-color="#e6e7e8"/><stop offset="0.26" stop-color="#e2e3e4"/><stop offset="0.51" stop-color="#d7d8da"/><stop offset="0.75" stop-color="#c4c5c7"/><stop offset="0.98" stop-color="#a9abae"/><stop offset="1" stop-color="#a7a9ac"/></linearGradient><linearGradient id="linear-gradient-5" x1="80.73" y1="153.9" x2="80.73" y2="74.61" gradientUnits="userSpaceOnUse"><stop offset="0" stop-color="#d1d3d4"/><stop offset="0.44" stop-color="#cdcfd0"/><stop offset="0.85" stop-color="#c2c4c6"/><stop offset="1" stop-color="#bcbec0"/></linearGradient><linearGradient id="linear-gradient-6" x1="641.34" y1="255.89" x2="641.34" y2="74.61" xlink:href="#linear-gradient"/><linearGradient id="linear-gradient-7" x1="662.13" y1="225.5" x2="506.5" y2="171.91" xlink:href="#linear-gradient-2"/><linearGradient id="linear-gradient-8" x1="661.51" y1="329.24" x2="532.6" y2="235.57" xlink:href="#linear-gradient-2"/><linearGradient id="linear-gradient-9" x1="656.11" y1="278.77" x2="765.82" y2="257.45" xlink:href="#linear-gradient-4"/><linearGradient id="linear-gradient-10" x1="716.3" y1="335.18" x2="716.3" y2="255.89" xlink:href="#linear-gradient-5"/><linearGradient id="linear-gradient-11" x1="822.59" y1="292.25" x2="822.59" y2="181.28" xlink:href="#linear-gradient"/><linearGradient id="linear-gradient-12" x1="898.06" y1="305.15" x2="721.01" y2="244.18" xlink:href="#linear-gradient-2"/><linearGradient id="linear-gradient-13" x1="944.53" y1="375.8" x2="818.14" y2="283.96" gradientUnits="userSpaceOnUse"><stop offset="0" stop-color="#fff"/><stop offset="1" stop-color="#a7a9ac"/></linearGradient><linearGradient id="linear-gradient-14" x1="842.33" y1="289.52" x2="1021.48" y2="254.69" xlink:href="#linear-gradient-4"/><linearGradient id="linear-gradient-15" x1="968.52" y1="324.58" x2="968.52" y2="292.25" xlink:href="#linear-gradient-5"/><linearGradient id="linear-gradient-16" x1="571" y1="751.15" x2="571" y2="568.61" xlink:href="#linear-gradient"/><linearGradient id="linear-gradient-17" x1="642.16" y1="724.21" x2="475.32" y2="666.76" xlink:href="#linear-gradient-2"/><linearGradient id="linear-gradient-18" x1="640.49" y1="827.59" x2="503.96" y2="728.39" xlink:href="#linear-gradient-2"/><linearGradient id="linear-gradient-19" x1="628.24" y1="727.3" x2="737.95" y2="705.97" gradientUnits="userSpaceOnUse"><stop offset="0" stop-color="#d1d3d4"/><stop offset="0.23" stop-color="#cdcfd0"/><stop offset="0.45" stop-color="#c2c4c5"/><stop offset="0.66" stop-color="#afb1b3"/><stop offset="0.87" stop-color="#949699"/><stop offset="1" stop-color="#808285"/></linearGradient><linearGradient id="linear-gradient-20" x1="697.51" y1="830.44" x2="697.51" y2="751.15" xlink:href="#linear-gradient-5"/><linearGradient id="linear-gradient-21" x1="196.6" y1="153.9" x2="196.6" y2="0" xlink:href="#linear-gradient-2"/><linearGradient id="linear-gradient-22" x1="207.4" y1="114.26" x2="207.4" gradientUnits="userSpaceOnUse"><stop offset="0" stop-color="#fff"/><stop offset="1" stop-color="#d1d3d4"/></linearGradient><linearGradient id="linear-gradient-23" x1="341.55" y1="114.26" x2="341.55" y2="0" xlink:href="#linear-gradient-4"/><linearGradient id="linear-gradient-24" x1="341.55" y1="249.48" x2="341.55" y2="50.76" xlink:href="#linear-gradient-19"/><linearGradient id="linear-gradient-25" x1="248.65" y1="110.11" x2="224.43" y2="234.74" gradientUnits="userSpaceOnUse"><stop offset="0" stop-color="#fff"/><stop offset="0.41" stop-color="#fbfbfc"/><stop offset="0.79" stop-color="#f0f1f1"/><stop offset="1" stop-color="#e6e7e8"/></linearGradient><linearGradient id="linear-gradient-26" x1="746.85" y1="830.44" x2="746.85" y2="597.23" xlink:href="#linear-gradient-2"/><linearGradient id="linear-gradient-27" x1="746.85" y1="703.35" x2="746.85" y2="423.35" xlink:href="#linear-gradient-22"/><linearGradient id="linear-gradient-28" x1="902.64" y1="703.35" x2="902.64" y2="423.35" xlink:href="#linear-gradient-4"/><linearGradient id="linear-gradient-29" x1="932.37" y1="838.57" x2="932.37" y2="639.85" xlink:href="#linear-gradient-19"/><linearGradient id="linear-gradient-30" x1="852.42" y1="701.72" x2="825.02" y2="842.66" xlink:href="#linear-gradient-25"/><linearGradient id="linear-gradient-31" x1="130.93" y1="941.35" x2="130.93" y2="699.47" gradientTransform="translate(707.18 -324.55) rotate(41.55)" xlink:href="#linear-gradient-2"/><linearGradient id="linear-gradient-32" x1="145.15" y1="793.05" x2="145.15" y2="699.47" gradientTransform="translate(707.18 -324.55) rotate(41.55)" xlink:href="#linear-gradient-4"/><linearGradient id="linear-gradient-33" x1="255" y1="793.05" x2="255" y2="699.48" gradientTransform="translate(707.18 -324.55) rotate(41.55)" xlink:href="#linear-gradient-4"/><linearGradient id="linear-gradient-34" x1="255" y1="903.78" x2="255" y2="741.05" gradientTransform="translate(707.18 -324.55) rotate(41.55)" xlink:href="#linear-gradient-19"/><linearGradient id="linear-gradient-35" x1="169.5" y1="787.82" x2="136.95" y2="955.25" gradientTransform="translate(707.18 -324.55) rotate(41.55)" xlink:href="#linear-gradient-25"/><linearGradient id="linear-gradient-36" x1="133.8" y1="1214.86" x2="133.8" y2="941.35" gradientTransform="translate(707.18 -324.55) rotate(41.55)" xlink:href="#linear-gradient-2"/><linearGradient id="linear-gradient-37" x1="143.34" y1="1066.56" x2="143.34" y2="903.72" gradientTransform="translate(707.18 -324.55) rotate(41.55)" xlink:href="#linear-gradient-4"/><linearGradient id="linear-gradient-38" x1="309.8" y1="1087.88" x2="309.8" y2="903.72" gradientTransform="translate(707.18 -324.55) rotate(41.55)" gradientUnits="userSpaceOnUse"><stop offset="0" stop-color="#d1d3d4"/><stop offset="0.32" stop-color="#cdcfd0"/><stop offset="0.62" stop-color="#c2c4c6"/><stop offset="0.91" stop-color="#afb1b4"/><stop offset="1" stop-color="#a7a9ac"/></linearGradient><linearGradient id="linear-gradient-39" x1="309.8" y1="1177.3" x2="309.8" y2="1066.56" gradientTransform="translate(707.18 -324.55) rotate(41.55)" xlink:href="#linear-gradient-19"/><linearGradient id="linear-gradient-40" x1="175.25" y1="1061.33" x2="142.71" y2="1228.76" gradientTransform="translate(707.18 -324.55) rotate(41.55)" xlink:href="#linear-gradient-25"/><linearGradient id="linear-gradient-41" x1="187.95" y1="258.23" x2="187.95" y2="153.9" xlink:href="#linear-gradient-19"/><linearGradient id="linear-gradient-42" x1="80.73" y1="258.23" x2="80.73" y2="105.03" xlink:href="#linear-gradient-13"/><linearGradient id="linear-gradient-43" x1="187.95" y1="423.36" x2="187.95" y2="249.48" xlink:href="#linear-gradient-19"/><linearGradient id="linear-gradient-44" x1="37.83" y1="339.71" x2="37.83" y2="105.03" gradientUnits="userSpaceOnUse"><stop offset="0" stop-color="#fff"/><stop offset="0.02" stop-color="#fefefe"/><stop offset="0.59" stop-color="#ecedee"/><stop offset="1" stop-color="#e6e7e8"/></linearGradient><linearGradient id="linear-gradient-45" x1="16.75" y1="302.08" x2="157.8" y2="364.88" xlink:href="#linear-gradient-4"/><linearGradient id="linear-gradient-46" x1="885.46" y1="57.24" x2="885.46" y2="-47.09" xlink:href="#linear-gradient-19"/><linearGradient id="linear-gradient-47" x1="699.49" y1="74.61" x2="699.49" y2="-47.09" xlink:href="#linear-gradient-13"/><linearGradient id="linear-gradient-48" x1="885.46" y1="222.37" x2="885.46" y2="48.49" xlink:href="#linear-gradient-19"/><linearGradient id="linear-gradient-49" x1="656.59" y1="181.67" x2="656.59" y2="57.24" xlink:href="#linear-gradient-44"/><linearGradient id="linear-gradient-50" x1="747.13" y1="115.72" x2="855.31" y2="163.88" xlink:href="#linear-gradient-4"/><linearGradient id="linear-gradient-51" x1="689.07" y1="432.09" x2="689.07" y2="327.77" xlink:href="#linear-gradient-19"/><linearGradient id="linear-gradient-52" x1="581.85" y1="432.09" x2="581.85" y2="278.9" xlink:href="#linear-gradient-13"/><linearGradient id="linear-gradient-53" x1="689.07" y1="597.23" x2="689.07" y2="423.35" xlink:href="#linear-gradient-19"/><linearGradient id="linear-gradient-54" x1="513.56" y1="438.06" x2="513.56" y2="278.9" xlink:href="#linear-gradient-44"/><linearGradient id="linear-gradient-55" x1="447.43" y1="444.58" x2="658.92" y2="538.74" xlink:href="#linear-gradient-4"/><linearGradient id="linear-gradient-56" x1="1060.98" y1="426.13" x2="1060.98" y2="321.8" xlink:href="#linear-gradient-19"/><linearGradient id="linear-gradient-57" x1="907.71" y1="426.13" x2="907.71" y2="321.8" xlink:href="#linear-gradient-13"/><linearGradient id="linear-gradient-58" x1="1060.98" y1="639.85" x2="1060.98" y2="417.38" xlink:href="#linear-gradient-19"/><linearGradient id="linear-gradient-59" x1="805.63" y1="426.13" x2="805.63" y2="327.77" xlink:href="#linear-gradient-44"/><linearGradient id="linear-gradient-60" x1="638.22" y1="382.47" x2="1039.06" y2="560.93" xlink:href="#linear-gradient-4"/><linearGradient id="linear-gradient-61" x1="557.02" y1="886.33" x2="557.02" y2="774.8" xlink:href="#linear-gradient-19"/><linearGradient id="linear-gradient-62" x1="440.83" y1="886.33" x2="440.83" y2="766.5" xlink:href="#linear-gradient"/><linearGradient id="linear-gradient-63" x1="596.4" y1="1018" x2="596.4" y2="823.03" xlink:href="#linear-gradient-19"/><linearGradient id="linear-gradient-64" x1="273.4" y1="821.75" x2="576.33" y2="956.62" xlink:href="#linear-gradient-25"/><linearGradient id="linear-gradient-65" x1="356.67" y1="249.48" x2="356.67" y2="50.76" xlink:href="#linear-gradient-25"/><linearGradient id="linear-gradient-66" x1="476.55" y1="189.05" x2="476.55" y2="50.76" xlink:href="#linear-gradient-4"/><linearGradient id="linear-gradient-67" x1="400.68" y1="280.8" x2="400.68" y2="189.05" xlink:href="#linear-gradient-22"/><linearGradient id="linear-gradient-68" x1="476.55" y1="280.8" x2="476.55" y2="74.61" xlink:href="#linear-gradient-19"/><linearGradient id="linear-gradient-69" x1="361.78" y1="683.05" x2="361.78" y2="438.06" xlink:href="#linear-gradient-25"/><linearGradient id="linear-gradient-70" x1="445.67" y1="683.05" x2="445.67" y2="438.06" xlink:href="#linear-gradient-22"/><linearGradient id="linear-gradient-71" x1="327.72" y1="766.5" x2="327.72" y2="498.54" xlink:href="#linear-gradient-25"/><linearGradient id="linear-gradient-72" x1="441.15" y1="619.83" x2="526.17" y2="732.66" xlink:href="#linear-gradient-19"/><linearGradient id="linear-gradient-73" x1="401.4" y1="261.42" x2="386.58" y2="337.67" xlink:href="#linear-gradient-25"/><linearGradient id="linear-gradient-74" x1="459.69" y1="272.75" x2="428.39" y2="433.79" xlink:href="#linear-gradient-4"/><linearGradient id="linear-gradient-75" x1="384.12" y1="683.05" x2="384.12" y2="774.8" xlink:href="#linear-gradient-4"/><linearGradient id="linear-gradient-76" x1="391.32" y1="50.76" x2="391.32" y2="-47.09" xlink:href="#linear-gradient-25"/><linearGradient id="linear-gradient-77" x1="594.75" y1="-125.23" x2="728" y2="51.6" xlink:href="#linear-gradient-19"/><linearGradient id="linear-gradient-78" x1="476.55" y1="-47.09" x2="476.55" y2="74.61" xlink:href="#linear-gradient-4"/><linearGradient id="linear-gradient-79" x1="997.17" y1="222.37" x2="997.17" y2="48.49" xlink:href="#linear-gradient-25"/><linearGradient id="linear-gradient-80" x1="1265.37" y1="146.22" x2="1265.37" y2="48.49" xlink:href="#linear-gradient-22"/><linearGradient id="linear-gradient-81" x1="997.17" y1="321.84" x2="997.17" y2="146.22" xlink:href="#linear-gradient-25"/><linearGradient id="linear-gradient-82" x1="553.19" y1="458.05" x2="530.02" y2="577.23" xlink:href="#linear-gradient-22"/><linearGradient id="linear-gradient-83" x1="25.37" y1="879.57" x2="25.37" y2="631.88" xlink:href="#linear-gradient-22"/><linearGradient id="linear-gradient-84" x1="150.31" y1="918.33" x2="150.31" y2="707.06" gradientTransform="matrix(1, 0, 0, 1, 0, 0)" xlink:href="#linear-gradient-38"/><linearGradient id="linear-gradient-85" x1="21.13" y1="973" x2="21.13" y2="631.88" xlink:href="#linear-gradient-25"/><linearGradient id="linear-gradient-86" x1="88.5" y1="973" x2="88.5" y2="879.57" xlink:href="#linear-gradient-5"/><linearGradient id="linear-gradient-87" x1="991.54" y1="48.49" x2="991.54" y2="-48.93" xlink:href="#linear-gradient-25"/><linearGradient id="linear-gradient-88" x1="1265.37" y1="146.22" x2="1265.37" y2="-48.93" xlink:href="#linear-gradient-5"/><linearGradient id="linear-gradient-89" x1="256.5" y1="939.81" x2="256.5" y2="707.06" xlink:href="#linear-gradient-22"/><linearGradient id="linear-gradient-90" x1="423.5" y1="1018" x2="423.5" y2="766.5" gradientTransform="matrix(1, 0, 0, 1, 0, 0)" xlink:href="#linear-gradient-38"/><linearGradient id="linear-gradient-91" x1="256.5" y1="939.81" x2="256.5" y2="707.06" xlink:href="#linear-gradient-25"/><linearGradient id="linear-gradient-92" x1="326" y1="1117.67" x2="326" y2="918.33" xlink:href="#linear-gradient-22"/><linearGradient id="linear-gradient-93" x1="482.95" y1="939.81" x2="482.95" y2="1117.67" gradientUnits="userSpaceOnUse"><stop offset="0" stop-color="#d1d3d4"/><stop offset="0.31" stop-color="#b4b6b7"/><stop offset="0.76" stop-color="#8e9093"/><stop offset="1" stop-color="#808285"/></linearGradient><linearGradient id="linear-gradient-94" x1="681.5" y1="1018" x2="681.5" y2="823.03" xlink:href="#linear-gradient-25"/><linearGradient id="linear-gradient-95" x1="767.43" y1="939.81" x2="767.43" y2="823.03" xlink:href="#linear-gradient"/><linearGradient id="linear-gradient-96" x1="698.33" y1="1147" x2="698.33" y2="939.81" xlink:href="#linear-gradient"/><linearGradient id="linear-gradient-97" x1="852.53" y1="1147" x2="852.53" y2="838.57" xlink:href="#linear-gradient-19"/><linearGradient id="linear-gradient-98" x1="88.5" y1="1100" x2="88.5" y2="918.33" xlink:href="#linear-gradient-25"/><linearGradient id="linear-gradient-99" x1="239.5" y1="1117.67" x2="239.5" y2="918.33" gradientTransform="matrix(1, 0, 0, 1, 0, 0)" xlink:href="#linear-gradient-38"/><linearGradient id="linear-gradient-100" x1="987.31" y1="933.57" x2="987.31" y2="639.85" xlink:href="#linear-gradient-2"/><linearGradient id="linear-gradient-101" x1="965.61" y1="1147" x2="965.61" y2="838.57" xlink:href="#linear-gradient"/><linearGradient id="linear-gradient-102" x1="65.88" y1="577.69" x2="65.88" y2="339.71" gradientUnits="userSpaceOnUse"><stop offset="0" stop-color="#fff"/><stop offset="0.4" stop-color="#f9f9fa"/><stop offset="0.92" stop-color="#e9eaeb"/><stop offset="1" stop-color="#e6e7e8"/></linearGradient></defs><g class="cls-2"><g id="Layer_1" data-name="Layer 1"><g class="cls-3"><polygon class="cls-4" points="0 0 32.19 74.61 123.2 0 0 0"/><polygon class="cls-5" points="32.19 74.61 0 57.51 0 0 32.19 74.61"/><polygon class="cls-6" points="32.19 74.61 0 105.03 0 57.51 32.19 74.61"/><polygon class="cls-7" points="32.19 74.61 161.46 153.9 123.2 0 32.19 74.61"/><polygon class="cls-8" points="32.19 74.61 0 105.03 161.46 153.9 32.19 74.61"/><polygon class="cls-9" points="540 74.61 651.66 255.89 742.67 181.28 540 74.61"/><polygon class="cls-10" points="651.66 255.89 501.12 278.89 540 74.61 651.66 255.89"/><polygon class="cls-11" points="651.66 255.89 662.58 327.76 501.12 278.89 651.66 255.89"/><polygon class="cls-12" points="651.66 255.89 780.93 335.18 742.67 181.28 651.66 255.89"/><polygon class="cls-13" points="651.66 255.89 662.58 327.76 780.93 335.18 651.66 255.89"/><polygon class="cls-14" points="742.67 181.28 902.5 292.25 829.27 222.37 742.67 181.28"/><polygon class="cls-15" points="902.5 292.25 780.93 335.18 742.67 181.28 902.5 292.25"/><polygon class="cls-16" points="902.5 292.25 981.74 324.58 780.93 335.18 902.5 292.25"/><polygon class="cls-17" points="902.5 292.25 1034.54 321.84 829.27 222.37 902.5 292.25"/><polygon class="cls-18" points="902.5 292.25 981.74 324.58 1034.54 321.84 902.5 292.25"/><polygon class="cls-19" points="509.12 568.61 632.88 751.15 632.88 597.23 509.12 568.61"/><polygon class="cls-20" points="632.88 751.15 470.24 774.8 509.12 568.61 632.88 751.15"/><polygon class="cls-21" points="632.88 751.15 643.8 823.03 470.24 774.8 632.88 751.15"/><polygon class="cls-22" points="632.88 751.15 762.15 830.44 632.88 597.23 632.88 751.15"/><polygon class="cls-23" points="632.88 751.15 643.8 823.03 762.15 830.44 632.88 751.15"/><polyline class="cls-24" points="161.46 153.9 270 114.26 123.2 0"/><polygon class="cls-25" points="291.6 0 270 114.26 123.2 0 291.6 0"/><polygon class="cls-26" points="291.6 0 413.1 50.76 270 114.26 291.6 0"/><polygon class="cls-27" points="270 114.26 300.24 249.48 413.1 50.76 270 114.26"/><polygon class="cls-28" points="270 114.26 300.24 249.48 161.46 153.9 270 114.26"/><polygon class="cls-29" points="762.15 830.44 860.82 703.35 632.88 597.23 762.15 830.44"/><polygon class="cls-30" points="801.36 423.35 860.82 703.35 632.88 597.23 801.36 423.35"/><polygon class="cls-31" points="801.36 423.35 1003.92 639.85 860.82 703.35 801.36 423.35"/><polygon class="cls-32" points="860.82 703.35 891.06 838.58 1003.92 639.85 860.82 703.35"/><polygon class="cls-33" points="860.82 703.35 891.06 838.58 762.15 830.44 860.82 703.35"/><polygon class="cls-34" points="131.76 423.36 328.14 399.24 300.24 249.48 131.76 423.36"/><polygon class="cls-35" points="403.44 340.95 328.14 399.24 300.24 249.48 403.44 340.95"/><polygon class="cls-36" points="403.44 340.95 450.33 438.06 328.14 399.24 403.44 340.95"/><polygon class="cls-37" points="328.14 399.24 273.22 498.54 450.33 438.06 328.14 399.24"/><polygon class="cls-38" points="328.14 399.24 273.22 498.54 131.76 423.36 328.14 399.24"/><polygon class="cls-39" points="-45.35 631.88 151.03 607.76 131.76 423.36 -45.35 631.88"/><polygon class="cls-40" points="273.31 498.54 151.03 607.76 131.76 423.36 273.31 498.54"/><polygon class="cls-41" points="273.31 498.54 298 766.5 151.03 607.76 273.31 498.54"/><polygon class="cls-42" points="151.03 607.76 96.1 707.06 298 766.5 151.03 607.76"/><polygon class="cls-43" points="151.03 607.76 96.1 707.06 -45.35 631.88 151.03 607.76"/><polygon class="cls-44" points="161.46 153.9 75.66 258.23 300.24 249.48 161.46 153.9"/><polygon class="cls-45" points="161.46 153.9 75.66 258.23 0 105.03 161.46 153.9"/><polygon class="cls-46" points="75.66 258.23 131.76 423.36 300.24 249.48 75.66 258.23"/><polygon class="cls-47" points="0 105.03 0 339.7 75.66 258.23 0 105.03"/><polygon class="cls-48" points="131.76 423.36 0 339.7 75.66 258.23 131.76 423.36"/><polygon class="cls-49" points="858.97 -47.09 773.17 57.24 997.75 48.49 858.97 -47.09"/><polygon class="cls-50" points="858.97 -47.09 773.17 57.24 540 74.61 858.97 -47.09"/><polygon class="cls-51" points="773.17 57.24 829.27 222.37 997.75 48.49 773.17 57.24"/><polygon class="cls-52" points="540 74.61 742.67 181.67 773.17 57.24 540 74.61"/><polygon class="cls-53" points="829.27 222.37 742.67 181.67 773.17 57.24 829.27 222.37"/><polygon class="cls-54" points="662.58 327.76 576.78 432.09 801.36 423.35 662.58 327.76"/><polygon class="cls-55" points="662.58 327.76 576.78 432.09 501.12 278.89 662.58 327.76"/><polygon class="cls-56" points="576.78 432.09 632.88 597.23 801.36 423.35 576.78 432.09"/><polygon class="cls-57" points="501.12 278.89 450.33 438.06 576.78 432.09 501.12 278.89"/><polygon class="cls-58" points="632.88 597.23 450.33 438.06 576.78 432.09 632.88 597.23"/><polygon class="cls-59" points="1034.49 321.8 948.68 426.13 1173.27 417.38 1034.49 321.8"/><polygon class="cls-60" points="1034.49 321.8 948.68 426.13 780.93 335.18 1034.49 321.8"/><polygon class="cls-61" points="948.68 426.13 1003.92 639.85 1173.27 417.38 948.68 426.13"/><polygon class="cls-62" points="780.93 335.18 662.58 327.76 948.68 426.13 780.93 335.18"/><polygon class="cls-63" points="1003.92 639.85 662.58 327.76 948.68 426.13 1003.92 639.85"/><polygon class="cls-64" points="470.24 774.8 583.67 886.33 643.8 823.03 470.24 774.8"/><polygon class="cls-65" points="470.24 774.8 583.67 886.33 298 766.5 470.24 774.8"/><polygon class="cls-66" points="583.67 886.33 549 1018 643.8 823.03 583.67 886.33"/><polygon class="cls-67" points="549 1018 298 766.5 583.67 886.33 549 1018"/><polygon class="cls-68" points="300.24 249.48 413.1 189.05 413.1 50.76 300.24 249.48"/><polygon class="cls-69" points="413.1 189.05 540 74.61 413.1 50.76 413.1 189.05"/><polygon class="cls-70" points="300.24 249.48 501.12 280.8 413.1 189.05 300.24 249.48"/><polygon class="cls-71" points="413.1 189.05 501.12 280.8 540 74.61 413.1 189.05"/><polygon class="cls-72" points="273.22 498.54 382.22 683.05 450.33 438.06 273.22 498.54"/><polygon class="cls-73" points="382.22 683.05 509.12 568.61 450.33 438.06 382.22 683.05"/><polygon class="cls-74" points="273.22 498.54 298 766.5 382.22 683.05 273.22 498.54"/><polygon class="cls-75" points="382.22 683.05 470.24 774.8 509.12 568.61 382.22 683.05"/><polygon class="cls-76" points="300.24 249.48 403.44 340.95 501.12 280.8 300.24 249.48"/><polyline class="cls-77" points="403.44 340.95 501.12 280.8 450.33 438.06"/><polygon class="cls-78" points="298 766.5 470.24 774.8 382.22 683.05 298 766.5"/><polygon class="cls-79" points="291.6 0 413.1 50.76 491.05 -47.09 291.6 0"/><polygon class="cls-80" points="491.05 -47.09 540 74.61 858.97 -47.09 491.05 -47.09"/><polygon class="cls-81" points="413.1 50.76 540 74.61 491.05 -47.09 413.1 50.76"/><polygon class="cls-82" points="829.27 222.37 1165.06 146.22 997.75 48.49 829.27 222.37"/><polygon class="cls-83" points="1165.06 146.22 1532.99 146.22 997.75 48.49 1165.06 146.22"/><polygon class="cls-84" points="829.27 222.37 1034.54 321.84 1165.06 146.22 829.27 222.37"/><polygon class="cls-85" points="632.88 597.23 450.33 438.06 509.12 568.61 632.88 597.23"/><polygon class="cls-86" points="96.1 707.06 87.61 879.57 -45.35 631.88 96.1 707.06"/><polygon class="cls-87" points="213 918.33 87.61 879.57 96.1 707.06 213 918.33"/><polygon class="cls-88" points="-45.35 631.88 -36 973 87.61 879.57 -45.35 631.88"/><polygon class="cls-89" points="-36 973 213 918.33 87.61 879.57 -36 973"/><polygon class="cls-90" points="858.97 -47.09 997.75 48.49 1124.11 -48.93 858.97 -47.09"/><polygon class="cls-91" points="997.75 48.49 1532.99 146.22 1124.11 -48.93 997.75 48.49"/><polygon class="cls-92" points="298 766.5 416.89 939.81 96.1 707.06 298 766.5"/><polygon class="cls-93" points="549 1018 416.89 939.81 298 766.5 549 1018"/><polygon class="cls-94" points="96.1 707.06 213 918.33 416.89 939.81 96.1 707.06"/><polygon class="cls-95" points="213 918.33 416.89 939.81 439 1117.67 213 918.33"/><polygon class="cls-96" points="416.89 939.81 439 1117.67 549 1018 416.89 939.81"/><polygon class="cls-97" points="549 1018 814 939.81 643.8 823.03 549 1018"/><polygon class="cls-98" points="891.06 838.58 814 939.81 643.8 823.03 891.06 838.58"/><polygon class="cls-99" points="814 939.81 847.67 1147 549 1018 814 939.81"/><polygon class="cls-100" points="891.06 838.58 847.67 1147 814 939.81 891.06 838.58"/><polygon class="cls-101" points="213 918.33 -36 973 40 1100 213 918.33"/><polygon class="cls-102" points="439 1117.67 40 1100 213 918.33 439 1117.67"/><polygon class="cls-103" points="891.06 838.58 1083.56 933.57 1003.92 639.85 891.06 838.58"/><polygon class="cls-104" points="847.67 1147 1083.56 933.57 891.06 838.58 847.67 1147"/><polygon class="cls-105" points="0 339.7 131.76 423.36 0.67 577.69 0 339.7"/></g><rect class="cls-106" width="1003.92" height="1003.92"/></g></g></svg>