<svg width="34" height="29" viewBox="0 0 34 29" fill="none" xmlns="http://www.w3.org/2000/svg">
<path d="M33.3549 0.777848C33.1438 0.526213 32.8785 0.32554 32.5789 0.19082C32.2794 0.0560997 31.9532 -0.00918345 31.6249 -0.000152328C31.2113 0.00562891 30.8022 0.0869657 30.4179 0.239848L1.99387 11.0908C0.485875 11.6668 0.281875 12.5308 0.293875 12.9908C0.305875 13.4508 0.558875 14.3058 2.09387 14.7908L2.12187 14.7988L8.02187 16.4858L11.2109 25.6038C11.3669 26.1664 11.6978 26.6647 12.1556 27.0269C12.6134 27.3891 13.1745 27.5964 13.7579 27.6188C14.5228 27.5987 15.2513 27.2884 15.7959 26.7508L19.4419 23.3998L24.7319 27.6588L24.7819 27.6988L24.7959 27.7098C25.3197 28.1435 25.9732 28.3898 26.6529 28.4098C27.2745 28.3847 27.8666 28.138 28.3222 27.7143C28.7777 27.2907 29.0667 26.718 29.1369 26.0998L33.7939 3.09985C33.8981 2.70453 33.9128 2.29094 33.8368 1.88923C33.7609 1.48752 33.5962 1.10783 33.3549 0.777848ZM9.99387 16.1728L21.3689 10.3618L14.2859 17.8878C14.1698 18.0108 14.0875 18.1617 14.0469 18.3258L12.6809 23.8578L9.99387 16.1728ZM14.4619 25.3108C14.4149 25.3538 14.3669 25.3928 14.3199 25.4288L15.5879 20.2998L17.8879 22.1558L14.4619 25.3108ZM31.8679 2.71085L27.2109 25.7108C27.1659 25.9308 27.0229 26.4428 26.6549 26.4428C26.4163 26.4195 26.1911 26.3219 26.0109 26.1638L20.0169 21.3378L16.4509 18.4658L26.6939 7.57885C26.8522 7.40995 26.9459 7.19064 26.9585 6.9595C26.9711 6.72835 26.9018 6.50016 26.7628 6.31506C26.6237 6.12995 26.4239 5.99978 26.1984 5.94743C25.9729 5.89509 25.7362 5.92391 25.5299 6.02885L8.67987 14.6348L2.70387 12.9248L31.1189 2.07885C31.2795 2.01163 31.4509 1.97402 31.6249 1.96785C31.6849 1.96785 31.7919 1.97485 31.8319 2.02385C31.931 2.2406 31.9438 2.48695 31.8679 2.71285V2.71085Z" fill="white"/>
</svg>
